<svg width="156" height="40" viewBox="0 0 156 40" fill="none" xmlns="http://www.w3.org/2000/svg">
<path d="M155.721 2.68594C155.78 2.69394 155.82 2.70994 155.88 2.73394C155.84 2.74994 155.8 2.76594 155.76 2.78994C155.78 2.90194 155.8 2.99794 155.76 3.06194V3.19794C155.82 3.26994 155.84 3.33394 155.8 3.40594C155.78 3.46994 155.76 3.53394 155.76 3.60594C155.78 3.63794 155.78 3.66194 155.8 3.69394C155.78 3.70994 155.78 3.74194 155.76 3.76594C155.76 3.89394 155.8 3.99794 155.84 4.05394C155.9 4.10194 155.88 4.14994 155.8 4.20594C155.721 4.26194 155.721 4.31794 155.84 4.35794C155.9 4.40594 155.9 4.44594 155.84 4.49394C155.78 4.54194 155.76 4.58194 155.76 4.62994V5.21394H155.501C155.561 5.26194 155.621 5.29394 155.721 5.31794C155.8 5.34194 155.82 5.37394 155.76 5.42194C155.82 5.44594 155.78 5.50194 155.681 5.58994L155.84 5.72594C155.78 5.79794 155.721 5.86194 155.681 5.93394C155.621 6.00594 155.661 6.06994 155.76 6.14194C155.88 6.18994 155.9 6.23794 155.84 6.29394C155.78 6.34994 155.721 6.41394 155.681 6.48594H155.501C155.621 6.59794 155.641 6.71794 155.581 6.84594C155.521 6.97394 155.541 7.09394 155.661 7.20594C155.701 7.26994 155.701 7.34994 155.661 7.45394L155.581 7.67794C155.601 7.71794 155.601 7.75794 155.621 7.79794L155.78 7.82994C155.78 7.78194 155.8 7.75794 155.82 7.74194L155.86 8.31794C155.741 8.47794 155.741 8.63794 155.82 8.79794C155.84 8.82994 155.84 8.85394 155.84 8.88594C155.82 8.86994 155.78 8.86194 155.721 8.86194L155.462 9.04594C155.462 9.12594 155.442 9.18994 155.382 9.22994C155.561 9.22994 155.721 9.20594 155.86 9.17394C155.86 9.21394 155.86 9.25394 155.84 9.29394H156C155.96 9.34194 155.94 9.38194 155.9 9.42994C155.86 9.42194 155.84 9.41394 155.78 9.41394C155.8 9.48594 155.8 9.54994 155.8 9.62194C155.78 9.67794 155.741 9.72594 155.741 9.78194C155.741 9.79794 155.76 9.80594 155.76 9.82194C155.741 9.86994 155.741 9.91794 155.701 9.96594C155.581 10.1259 155.561 10.3099 155.621 10.5099C155.681 10.7099 155.701 10.9259 155.661 11.1419L155.422 11.2939C155.362 11.3499 155.302 11.3979 155.222 11.4379C155.202 11.4539 155.182 11.4699 155.182 11.4939C155.222 11.5419 155.222 11.5819 155.182 11.6139C155.063 11.6619 155.063 11.7019 155.143 11.7499C155.222 11.7979 155.302 11.8379 155.362 11.8859C155.242 11.9739 155.202 12.0619 155.242 12.1419C155.262 12.1979 155.262 12.2539 155.262 12.3179C155.322 12.3579 155.362 12.3899 155.402 12.4379H155.242C155.242 12.4459 155.222 12.4539 155.222 12.4619C155.262 12.4619 155.302 12.4779 155.342 12.4779C155.422 12.4779 155.521 12.5019 155.641 12.5499C155.641 12.5979 155.561 12.6219 155.382 12.6219C155.501 12.6699 155.541 12.7259 155.501 12.7899C155.481 12.8619 155.422 12.9179 155.382 12.9579C155.322 12.9579 155.262 12.9499 155.202 12.9419C155.202 12.9499 155.202 12.9499 155.202 12.9579C155.222 13.0139 155.182 13.0619 155.123 13.1099C155.123 13.1659 155.143 13.2219 155.202 13.2619C155.202 13.2779 155.182 13.2939 155.182 13.3099C155.222 13.3499 155.242 13.3899 155.242 13.4299C155.242 13.4539 155.242 13.4779 155.242 13.5019H155.382C155.322 13.5259 155.302 13.5579 155.302 13.6059H155.501C155.402 13.6459 155.362 13.6699 155.342 13.6939C155.342 13.7019 155.342 13.7019 155.362 13.7099H155.661V13.7499H155.422C155.442 13.7579 155.442 13.7739 155.462 13.7819C155.402 13.8539 155.362 13.9099 155.342 13.9739C155.322 14.0379 155.302 14.0939 155.302 14.1579C155.302 14.1659 155.302 14.1659 155.302 14.1739L155.442 14.2299C155.402 14.2459 155.342 14.2619 155.302 14.2779V14.2859C155.362 14.3179 155.382 14.3579 155.382 14.4059C155.262 14.5179 155.222 14.6139 155.262 14.6939C155.302 14.7739 155.302 14.8699 155.302 14.9819C155.422 15.0539 155.442 15.1179 155.382 15.1899C155.322 15.2619 155.302 15.3259 155.302 15.3979C155.182 15.5099 155.163 15.5899 155.222 15.6379C155.342 15.7099 155.342 15.7979 155.222 15.9099H155.561C155.501 15.9099 155.442 15.9259 155.382 15.9419V16.6939C155.382 16.7419 155.362 16.7899 155.302 16.8459C155.242 16.9019 155.242 16.9579 155.302 16.9979C155.422 17.1099 155.382 17.2139 155.222 17.3099C155.342 17.3979 155.342 17.4779 155.222 17.5499C155.163 17.5979 155.163 17.6299 155.222 17.6539C155.282 17.6779 155.302 17.7099 155.302 17.7579C155.422 17.8299 155.422 17.9019 155.342 17.9819C155.262 18.0619 155.242 18.1499 155.302 18.2379C155.302 18.3259 155.282 18.4139 155.262 18.4939C155.242 18.5739 155.242 18.6459 155.302 18.7179C155.362 18.7659 155.382 18.8059 155.342 18.8379C155.322 18.8699 155.302 18.9099 155.302 18.9579C155.242 19.0299 155.262 19.0939 155.342 19.1659C155.422 19.2379 155.422 19.3179 155.302 19.4059C155.302 19.4539 155.282 19.5099 155.262 19.5739C155.242 19.6459 155.242 19.7019 155.302 19.7419C155.362 19.8539 155.382 19.9659 155.342 20.0699C155.322 20.1739 155.322 20.2699 155.382 20.3579C155.322 20.4699 155.302 20.5979 155.342 20.7339C155.362 20.8699 155.322 20.9979 155.222 21.1099C155.282 21.1579 155.342 21.1979 155.382 21.2459C155.442 21.2939 155.462 21.3339 155.462 21.3819C155.402 21.4699 155.382 21.5579 155.422 21.6379C155.442 21.7179 155.462 21.8059 155.462 21.8939C155.462 21.9659 155.442 22.0299 155.422 22.1019C155.402 22.1739 155.342 22.2539 155.302 22.3419L155.043 22.4459C155.262 22.4459 155.382 22.5259 155.382 22.6859C155.262 22.6859 155.222 22.6939 155.222 22.7179C155.342 22.7179 155.422 22.7339 155.481 22.7499C155.362 22.7979 155.322 22.8459 155.362 22.9019C155.382 22.9579 155.382 23.0219 155.322 23.0939C155.262 23.1419 155.282 23.1819 155.362 23.2299C155.442 23.2779 155.481 23.3179 155.481 23.3659C155.481 23.5979 155.422 23.7579 155.302 23.8459C155.182 23.9179 155.182 24.0059 155.302 24.1179C155.182 24.3019 155.182 24.4939 155.302 24.7019C155.422 24.7899 155.402 24.8779 155.262 24.9579C155.123 25.0379 155.103 25.1259 155.222 25.2139C155.442 25.3979 155.561 25.5419 155.561 25.6619V26.3819L155.222 26.4459C155.342 26.3419 155.362 26.2379 155.302 26.1179C155.182 26.0699 155.083 26.0459 155.003 26.0299C154.923 26.0219 154.824 25.9979 154.704 25.9819V26.0859H154.963C154.963 26.1579 154.943 26.2299 154.923 26.3099C154.903 26.3499 154.923 26.3979 154.943 26.4379C154.963 26.4459 154.963 26.4459 154.983 26.4539C154.983 26.4619 154.983 26.4619 154.983 26.4699C154.983 26.4779 155.003 26.4859 155.003 26.4939L154.963 26.5019C154.903 26.5739 154.903 26.6379 154.983 26.7099C155.003 26.6539 155.023 26.5899 155.063 26.5339C155.043 26.5179 155.023 26.5019 155.023 26.4939L155.242 26.4539C155.123 26.5579 155.123 26.6619 155.242 26.7819C155.362 26.9419 155.322 27.0459 155.163 27.0939C155.103 27.0699 155.063 27.0379 155.023 27.0139C155.023 27.0219 155.023 27.0379 155.003 27.0459C155.003 27.1339 154.923 27.2139 154.744 27.2859C154.864 27.3099 154.923 27.3339 154.963 27.3579C155.003 27.3819 155.063 27.4059 155.182 27.4299H155.003C154.943 27.5019 154.943 27.5659 155.003 27.6379C155.063 27.7099 155.063 27.7899 155.003 27.8779C154.943 27.9659 154.983 28.1099 155.083 28.2859C155.023 28.3579 155.003 28.4379 155.043 28.5259C155.063 28.5659 155.063 28.6059 155.063 28.6459L155.222 28.6859C155.342 28.7579 155.342 28.8139 155.262 28.8779C155.182 28.9339 155.143 28.9979 155.143 29.0619C155.143 29.0619 155.222 30.0219 155.063 30.1579C155.222 30.1579 155.342 30.1659 155.402 30.1899C155.342 30.1899 155.262 30.2139 155.143 30.2619C155.083 30.3339 155.083 30.4059 155.143 30.4859C155.202 30.5659 155.202 30.6539 155.143 30.7419C155.202 30.7899 155.222 30.8539 155.222 30.9499C155.163 30.9739 155.143 30.9979 155.143 31.0219L155.302 31.0939C155.182 31.1659 155.143 31.2379 155.182 31.3179C155.202 31.3979 155.222 31.4699 155.222 31.5419C155.103 31.7739 155.063 31.9499 155.063 32.0939H155.322C155.322 32.1659 155.282 32.2299 155.202 32.3019C155.202 32.3019 155.302 32.5099 155.242 32.5659C155.202 32.5739 155.182 32.5819 155.143 32.5899C155.163 32.5979 155.163 32.6059 155.182 32.6139C155.083 32.6699 155.043 32.7339 155.003 32.7899C154.983 32.8459 154.963 32.9099 154.963 32.9739C154.903 33.0219 154.903 33.0619 154.963 33.0939C155.023 33.1259 155.043 33.1659 155.043 33.2139C154.923 33.3259 154.883 33.4219 154.923 33.5019C154.963 33.5819 154.963 33.6779 154.963 33.7899C155.083 33.8619 155.103 33.9259 155.043 33.9979C154.983 34.0699 154.963 34.1339 154.963 34.2059C154.844 34.3179 154.824 34.3979 154.883 34.4459C155.003 34.5179 155.003 34.6059 154.883 34.7179H155.222C155.163 34.7179 155.103 34.7339 155.063 34.7499L154.744 34.7659V35.2539C154.684 35.3019 154.684 35.3499 154.744 35.4059C154.804 35.4619 154.804 35.5259 154.744 35.5979C154.684 35.6699 154.684 35.7339 154.704 35.8059C154.744 35.8779 154.724 35.9419 154.664 36.0139C154.604 36.0619 154.604 36.1179 154.624 36.1819C154.644 36.2539 154.664 36.3099 154.664 36.3499C154.724 36.3979 154.724 36.4459 154.664 36.5019C154.604 36.5579 154.604 36.6219 154.664 36.6939C154.724 36.8059 154.744 36.9259 154.744 37.0539C154.744 37.1819 154.744 37.3019 154.744 37.4139C154.585 37.5499 154.485 37.7019 154.485 37.8619C154.485 37.9099 154.445 37.9499 154.365 37.9979C154.286 38.0459 154.266 38.0859 154.325 38.1339C154.325 38.1819 154.286 38.2219 154.206 38.2699C154.126 38.3179 154.046 38.3579 153.987 38.4059C154.106 38.4939 154.126 38.5659 154.066 38.6139C153.947 38.7019 153.827 38.7899 153.708 38.8699C153.588 38.9499 153.428 39.0139 153.209 39.0539C152.93 39.1419 152.671 39.2379 152.412 39.3259C152.153 39.4139 151.894 39.4859 151.615 39.5339C151.455 39.5819 151.276 39.5819 151.116 39.5499C150.937 39.5179 150.778 39.5099 150.618 39.5339C150.439 39.5819 150.259 39.5899 150.06 39.5659C149.861 39.5419 149.681 39.5579 149.522 39.5979C149.303 39.6219 149.103 39.6139 148.924 39.5819C148.764 39.5499 148.565 39.5499 148.326 39.5979C148.147 39.6219 147.987 39.6139 147.828 39.5819C147.668 39.5499 147.489 39.5339 147.329 39.5339C147.21 39.5339 147.05 39.5099 146.831 39.4619C146.612 39.4619 146.472 39.4779 146.413 39.4939L146.672 39.5979C146.532 39.5979 146.373 39.5819 146.213 39.5739V39.6939C145.994 39.6459 145.775 39.6699 145.536 39.7659C145.416 39.7179 145.336 39.6939 145.276 39.6939C145.157 39.7179 145.057 39.7179 144.977 39.6939C144.898 39.6699 144.818 39.6779 144.758 39.7259C144.419 39.7019 144.14 39.7019 143.921 39.7259C144.041 39.7259 144.14 39.7339 144.26 39.7579C144.14 39.7819 144.061 39.7979 144.001 39.8059C143.941 39.8139 143.861 39.8379 143.742 39.8539C143.622 39.8299 143.483 39.8059 143.323 39.7819C143.164 39.7579 143.024 39.7499 142.905 39.7499V39.8779C142.845 39.8539 142.825 39.8299 142.825 39.8059C142.825 39.7819 142.765 39.7739 142.645 39.7739C142.307 39.7739 142.048 39.7659 141.888 39.7419C141.709 39.7419 141.589 39.7659 141.469 39.8139C141.35 39.8379 141.23 39.8459 141.091 39.8299C140.951 39.8219 140.832 39.8139 140.712 39.8139C140.493 39.8859 140.254 39.9099 140.034 39.9019C139.775 39.8779 139.556 39.8779 139.337 39.8779C139.118 39.8779 138.918 39.8939 138.739 39.9259C138.559 39.9579 138.4 39.9659 138.241 39.9419C138.021 39.9419 137.822 39.9499 137.643 39.9579C137.483 39.9659 137.304 39.9659 137.144 39.9419C136.865 39.9179 136.507 39.9099 136.048 39.9099C135.829 39.9099 135.63 39.9179 135.45 39.9419C135.291 39.9659 135.091 39.9659 134.852 39.9419C134.633 39.9659 134.434 39.9659 134.254 39.9419C134.075 39.9179 133.895 39.9099 133.656 39.9099H132.062C131.882 39.9339 131.743 39.9259 131.603 39.8939C131.464 39.8619 131.304 39.8299 131.145 39.8059C131.025 39.8299 130.926 39.8219 130.846 39.7899C130.766 39.7579 130.667 39.7579 130.547 39.8059C130.089 39.8939 129.77 39.9179 129.53 39.8779C129.411 39.8779 129.311 39.8859 129.192 39.9099C129.072 39.9339 128.972 39.9579 128.853 39.9819C128.315 39.9339 127.876 39.9099 127.597 39.9099C127.378 39.9339 127.099 39.9179 126.76 39.8779C126.601 39.9259 126.401 39.9419 126.202 39.9259C126.003 39.9179 125.823 39.9179 125.644 39.9419C125.425 39.9659 125.225 39.9579 125.046 39.9259C124.866 39.8939 124.687 39.8939 124.448 39.9419C124.049 39.9659 123.671 39.9659 123.272 39.9419H120.242C120.023 39.8939 119.764 39.8939 119.485 39.9419C119.206 39.8939 118.887 39.8859 118.548 39.9099C118.269 39.9259 118.01 39.9259 117.771 39.9179C117.552 39.9259 117.352 39.9259 117.213 39.9099H116.874C116.714 39.9339 116.555 39.9339 116.396 39.9259C116.356 39.9339 116.316 39.9339 116.276 39.9419C116.156 39.9179 115.997 39.9099 115.778 39.9099C115.618 39.9579 115.419 39.9739 115.22 39.9579C115.06 39.9499 114.901 39.9499 114.721 39.9419C114.622 39.9579 114.522 39.9499 114.382 39.9179C114.243 39.8859 114.123 39.8859 114.004 39.9339C113.884 39.9579 113.784 39.9579 113.665 39.9339C113.545 39.9099 113.446 39.9019 113.326 39.9019H111.891V39.7979C111.811 39.8299 111.712 39.8619 111.652 39.8939C111.592 39.9259 111.512 39.9339 111.393 39.9099C111.333 39.9339 111.193 39.9179 110.974 39.8779L110.655 39.9419C110.476 39.9179 110.316 39.8939 110.157 39.8699C109.997 39.8459 109.818 39.8619 109.659 39.9019C109.539 39.9499 109.419 39.9579 109.28 39.9339C109.14 39.9099 108.981 39.8859 108.822 39.8619V39.7899C108.542 39.8379 108.243 39.8459 107.945 39.8219C107.646 39.7979 107.347 39.8059 107.068 39.8539C106.848 39.8779 106.509 39.8619 106.051 39.8219C105.772 39.8459 105.493 39.8459 105.214 39.8379C104.935 39.8219 104.656 39.8219 104.377 39.8219C104.257 39.8219 104.197 39.7899 104.197 39.7179L104.038 39.8539C103.819 39.8059 103.619 39.7979 103.44 39.8219C103.34 39.8379 103.241 39.8379 103.121 39.8379C103.121 39.8299 103.101 39.8299 103.101 39.8219C103.081 39.7979 103.021 39.7739 102.982 39.7499C103.101 39.6619 103.141 39.5979 103.141 39.5819H102.882C102.882 39.5339 102.902 39.4859 102.922 39.4299C102.942 39.3739 102.962 39.3179 102.962 39.2779C102.902 39.2779 102.862 39.2859 102.842 39.2939C102.822 39.3019 102.762 39.3099 102.722 39.3099C102.722 39.3579 102.702 39.3899 102.683 39.4139C102.663 39.4379 102.643 39.4699 102.643 39.5179C102.742 39.6379 102.782 39.7419 102.802 39.8219C102.603 39.8059 102.423 39.7979 102.264 39.8059C102.105 39.8139 101.905 39.8139 101.666 39.7899C101.546 39.7899 101.447 39.7979 101.367 39.8219C101.287 39.8459 101.188 39.8459 101.068 39.8219C100.949 39.7979 100.869 39.7979 100.809 39.8219C100.749 39.8459 100.669 39.8459 100.55 39.8219C100.37 39.7979 100.211 39.7899 100.052 39.8059C99.8921 39.8139 99.7327 39.8139 99.633 39.7899C99.2942 39.7899 99.0749 39.7979 98.9553 39.8219C98.7361 39.8699 98.5168 39.8859 98.3175 39.8699C98.1182 39.8619 97.9388 39.8539 97.7594 39.8539C97.2611 39.8059 96.8825 39.7499 96.6632 39.6859C96.3842 39.6379 96.1051 39.5979 95.8659 39.5659C95.6268 39.5339 95.3477 39.5339 95.0687 39.5819C94.8893 39.6059 94.7697 39.6299 94.6501 39.6699C94.5305 39.7019 94.391 39.7339 94.2315 39.7579V39.6219C94.1717 39.6699 94.1518 39.7099 94.1518 39.7419C94.1518 39.7739 94.092 39.8139 93.9924 39.8619C93.8728 39.8619 93.813 39.8299 93.813 39.7579C93.7532 39.7819 93.7133 39.7899 93.6934 39.7899V39.9179C93.5738 39.9179 93.4741 39.9099 93.3546 39.8859C93.235 39.8619 93.1353 39.8379 93.0157 39.8139C92.7367 39.8619 92.4178 39.8779 92.0789 39.8619C91.7401 39.8539 91.4411 39.8539 91.1421 39.8779C90.9229 39.8539 90.6837 39.8459 90.4246 39.8619C90.1655 39.8779 89.9064 39.8699 89.6273 39.8459C89.5078 39.8219 89.3682 39.8219 89.2088 39.8299C89.0493 39.8459 88.8899 39.8459 88.7902 39.8459C88.571 39.8939 88.3716 39.8939 88.1923 39.8619C88.0129 39.8299 87.8534 39.8219 87.694 39.8459C87.5744 39.8459 87.4747 39.8539 87.395 39.8619C87.3153 39.8699 87.2156 39.8699 87.096 39.8459C86.9366 39.8219 86.7373 39.8219 86.5379 39.8299C86.3386 39.8459 86.1393 39.8459 85.9001 39.8459C85.6809 39.8219 85.4616 39.8299 85.2623 39.8619C85.063 39.8939 84.8836 39.8939 84.7042 39.8459C84.5846 39.8459 84.5049 39.8379 84.4451 39.8139C84.3853 39.7899 84.3056 39.7899 84.186 39.8139C84.0066 39.8619 83.8272 39.8619 83.5881 39.8139C83.3688 39.8859 83.1097 39.8939 82.8307 39.8459C82.7111 39.8219 82.5915 39.8219 82.452 39.8459C82.3124 39.8699 82.1928 39.8779 82.0732 39.8779H80.2196C80.1598 39.9019 80.1399 39.9259 80.1399 39.9499V39.8139C79.8608 39.8619 79.6416 39.8619 79.4622 39.8139C79.3426 39.7899 79.1433 39.8059 78.8643 39.8459C78.7048 39.8459 78.5254 39.8619 78.366 39.8779C78.2065 39.9019 78.0271 39.8859 77.8677 39.8459C77.5886 39.8459 77.3495 39.8379 77.1501 39.8299C76.9508 39.8219 76.7116 39.8379 76.4326 39.8779C76.313 39.8779 76.2134 39.8699 76.1336 39.8459C76.0539 39.8219 75.9542 39.8219 75.8346 39.8459C75.6752 39.8459 75.5157 39.8539 75.3762 39.8619C75.2367 39.8699 75.0772 39.8939 74.9178 39.9099C74.6388 39.8379 74.3198 39.8219 73.981 39.8379C73.7618 39.8379 73.5624 39.8059 73.3831 39.7339C73.2037 39.8059 73.0243 39.8299 72.7851 39.8219C72.5659 39.8139 72.3466 39.8139 72.1074 39.8379C71.9878 39.8619 71.8882 39.8619 71.7686 39.8379C71.649 39.8139 71.5494 39.8139 71.4298 39.8379C71.2105 39.8379 70.9913 39.8299 70.7919 39.8219C70.5926 39.8139 70.3933 39.8299 70.1541 39.8699C70.0345 39.8459 69.9349 39.8219 69.8153 39.7819C69.6957 39.7499 69.5961 39.7579 69.4765 39.7979C69.3569 39.8219 69.1974 39.8139 68.9782 39.7659L69.0579 39.7339C68.9981 39.6859 68.9782 39.6059 68.9782 39.4939C69.0978 39.5419 69.1775 39.5659 69.2373 39.5819C69.2971 39.5899 69.3768 39.6219 69.4964 39.6699V39.5099C69.616 39.5099 69.7156 39.4859 69.8352 39.4379H69.4964V39.3339C69.3768 39.3819 69.2771 39.3979 69.1576 39.3819C69.038 39.3659 68.9383 39.3739 68.8187 39.3979C68.6991 39.3979 68.6194 39.4059 68.5596 39.4139C68.5397 39.4219 68.4799 39.4059 68.44 39.4059V39.4139C68.4002 39.4299 68.3005 39.4379 68.1809 39.4459C68.1211 39.4699 68.0812 39.4779 68.0414 39.4859C68.0414 39.4859 68.0414 39.4939 68.0613 39.5019V39.5099C68.2008 39.5179 68.3404 39.5259 68.46 39.5499C68.6194 39.5819 68.739 39.6379 68.7988 39.7019C68.6792 39.7259 68.5995 39.7499 68.5397 39.7899C68.4799 39.8219 68.4002 39.8379 68.2806 39.8379H66.8455C66.7259 39.8379 66.6063 39.8219 66.4668 39.7899C66.3273 39.7579 66.2077 39.7659 66.0881 39.8059C65.9685 39.8299 65.8688 39.8379 65.7891 39.8219C65.7094 39.8139 65.6097 39.8139 65.4901 39.8379C65.2709 39.8619 65.0516 39.8699 64.8125 39.8539C64.5932 39.8459 64.3939 39.8459 64.2145 39.8699C63.7561 39.8219 63.4372 39.8139 63.198 39.8379C62.9788 39.8619 62.7794 39.8619 62.6 39.8379C62.4406 39.8139 62.2612 39.8139 62.1018 39.8379V39.9179C62.0619 39.8779 62.0021 39.8539 61.9423 39.8379C61.7629 39.8619 61.5437 39.8699 61.3244 39.8299C61.2646 39.8379 61.2248 39.8459 61.165 39.8459C60.9059 39.8859 60.6468 39.8859 60.4474 39.8459C60.4076 39.8619 60.3876 39.8699 60.3478 39.8939V39.8379C60.2681 39.8219 60.1684 39.8139 60.0887 39.8139C60.0687 39.8139 60.0488 39.8139 60.0289 39.8139C59.9292 39.8139 59.8296 39.8219 59.7299 39.8459L59.71 39.8379C59.5704 39.8459 59.411 39.8459 59.2515 39.8299C59.0323 39.8059 58.6935 39.8219 58.235 39.8619C58.0756 39.8379 57.8763 39.8299 57.6371 39.8459C57.3979 39.8619 57.1786 39.8539 56.9594 39.8299C56.8398 39.8059 56.7402 39.8059 56.6604 39.8139C56.5807 39.8299 56.481 39.8219 56.3615 39.7979C56.2419 39.7499 56.1223 39.7499 55.9827 39.7819C55.9628 39.8139 55.8432 39.8379 55.7236 39.8379H54.2886C54.169 39.8379 54.0892 39.8219 54.0294 39.7899C53.9697 39.7579 53.8899 39.7259 53.7703 39.7019C53.8301 39.6299 53.9298 39.5819 54.1092 39.5499C54.2686 39.5179 54.448 39.5019 54.6075 39.5019C54.5477 39.5019 54.4679 39.4779 54.3484 39.4299H54.6872C54.6274 39.4059 54.4879 39.3979 54.2686 39.3979C54.149 39.4219 54.0693 39.4299 54.0095 39.4139C53.9497 39.4059 53.87 39.3979 53.7504 39.3979C53.6308 39.3739 53.5312 39.3659 53.4116 39.3819C53.292 39.3979 53.1923 39.3739 53.0727 39.3339V39.4219H52.7339C52.8535 39.4699 52.9531 39.4939 53.0727 39.4939V39.6619C53.1923 39.6139 53.272 39.5899 53.3318 39.5739C53.3916 39.5659 53.4714 39.5339 53.591 39.4859C53.591 39.5979 53.5511 39.6779 53.5112 39.7259L53.591 39.7579C53.3717 39.8059 53.1923 39.8139 53.0927 39.7899C52.9731 39.7419 52.8734 39.7419 52.7538 39.7739C52.6342 39.8059 52.5346 39.8379 52.415 39.8619C52.1957 39.8139 51.9765 39.7979 51.7772 39.8139C51.5779 39.8299 51.3586 39.8299 51.1394 39.8299C51.0198 39.8059 50.9201 39.8059 50.8005 39.8299C50.6809 39.8539 50.5813 39.8539 50.4617 39.8299C50.2424 39.8059 50.0033 39.8059 49.784 39.8139C49.5648 39.8299 49.3654 39.7979 49.1861 39.7259C49.0266 39.7979 48.8273 39.8299 48.5881 39.8299C48.2493 39.8059 47.9304 39.8299 47.6513 39.9019C47.4919 39.8779 47.3324 39.8619 47.1929 39.8539C47.0534 39.8459 46.8939 39.8379 46.7345 39.8379C46.6149 39.8139 46.5152 39.8139 46.4355 39.8379C46.3558 39.8619 46.2561 39.8699 46.1365 39.8699C45.8575 39.8219 45.6183 39.8059 45.419 39.8219C45.2197 39.8379 44.9805 39.8379 44.7014 39.8379C44.542 39.8859 44.3626 39.8939 44.2032 39.8699C44.0238 39.8459 43.8643 39.8379 43.7049 39.8379C43.4258 39.7899 43.2265 39.7819 43.1069 39.8059C42.9475 39.8539 42.7083 39.8539 42.4292 39.8059V39.9339C42.4292 39.9099 42.3894 39.8859 42.3495 39.8619H40.4959C40.3763 39.8619 40.2567 39.8539 40.1172 39.8299C39.9777 39.8059 39.8581 39.8059 39.7385 39.8299C39.4594 39.8779 39.2003 39.8619 38.9811 39.7979C38.7618 39.8459 38.5625 39.8459 38.3831 39.7979C38.2635 39.7739 38.1838 39.7739 38.124 39.7979C38.0642 39.8219 37.9845 39.8299 37.8649 39.8299C37.7054 39.8779 37.5061 39.8779 37.3068 39.8459C37.1075 39.8139 36.8882 39.8059 36.669 39.8299C36.4498 39.8299 36.2305 39.8219 36.0312 39.8139C35.8319 39.8059 35.6525 39.8059 35.4731 39.8299C35.3535 39.8539 35.2539 39.8619 35.1741 39.8459C35.0944 39.8379 34.9947 39.8299 34.8752 39.8299C34.7157 39.8059 34.5363 39.8139 34.3769 39.8459C34.2174 39.8779 34.0181 39.8779 33.7789 39.8299C33.6593 39.8299 33.5198 39.8219 33.3604 39.8139C33.2009 39.8059 33.0414 39.8059 32.9418 39.8299C32.6627 39.8539 32.3837 39.8619 32.1445 39.8459C31.8854 39.8379 31.6462 39.8379 31.427 39.8619C31.1479 39.8379 30.829 39.8299 30.4902 39.8459C30.251 39.8619 29.9321 39.8459 29.6531 39.7979C29.5335 39.8219 29.4338 39.8459 29.3142 39.8699C29.1946 39.8939 29.095 39.9019 28.9754 39.9019C28.7561 39.8779 28.5369 39.8699 28.3376 39.8859C28.1383 39.8939 27.919 39.9019 27.6998 39.9019C27.5403 39.9019 27.3609 39.8939 27.2015 39.8859C27.042 39.8779 26.8427 39.8539 26.6035 39.8379L26.3444 39.7339C26.3444 39.8219 26.1451 39.8699 25.7465 39.8699C25.7465 39.8219 25.7265 39.7979 25.6667 39.7979C25.6667 39.8459 25.6269 39.8779 25.587 39.9019C25.4674 39.8539 25.3478 39.8379 25.2083 39.8539C25.0688 39.8619 24.9093 39.8619 24.7499 39.8379C24.6303 39.8139 24.5306 39.8219 24.411 39.8539C24.2915 39.8859 24.1918 39.9019 24.0722 39.9019C23.5141 39.9019 23.1155 39.8779 22.8962 39.8299C22.7368 39.7819 22.4976 39.7819 22.2186 39.8299C21.7601 39.7819 21.2818 39.7819 20.7835 39.8299C20.5642 39.8779 20.3649 39.8779 20.1656 39.8219C19.9663 39.7659 19.747 39.7579 19.5278 39.8059C19.0694 39.8939 18.7106 39.9419 18.4316 39.9419H16.6576C16.4982 39.9179 16.3188 39.9179 16.1594 39.9419C15.98 39.9659 15.8205 39.9739 15.6411 39.9739C15.3621 39.9499 15.0432 39.9499 14.7043 39.9739C14.3854 39.9979 14.0665 39.9819 13.7875 39.9419C13.6679 39.9179 13.5682 39.9179 13.4487 39.9419C13.3291 39.9659 13.2294 39.9739 13.1098 39.9739H11.595C11.4754 39.9499 11.3558 39.9499 11.2163 39.9739C11.0768 39.9979 10.9173 39.9979 10.7579 39.9739C10.5785 39.9499 10.419 39.9419 10.2397 39.9579C10.0802 39.9659 9.90082 39.9659 9.74137 39.9419C9.62178 39.9179 9.48226 39.9099 9.32281 39.9259C9.16335 39.9419 9.0039 39.9419 8.90424 39.9419C8.78465 39.9659 8.66506 39.9659 8.52554 39.9419C8.38602 39.9179 8.22657 39.9179 8.06711 39.9419C7.76814 39.9659 7.46917 39.9739 7.17019 39.9739C6.87122 39.9739 6.57224 39.9739 6.2932 39.9739C5.95436 39.9019 5.57566 39.8699 5.17703 39.8699C5.05744 39.8699 4.95778 39.8539 4.83819 39.8219C4.73853 39.7819 4.61894 39.7819 4.51928 39.8059C4.39969 39.8059 4.30004 39.7899 4.18045 39.7579C4.06086 39.7179 3.94127 39.6859 3.84161 39.6619C3.62236 39.7099 3.44298 39.7179 3.34332 39.6939C3.10414 39.6539 2.88489 39.6059 2.70551 39.5659C2.50619 39.5179 2.34674 39.4459 2.22715 39.3579C2.0079 39.2459 1.78865 39.1339 1.54947 39.0299C1.33022 38.9259 1.17077 38.8219 1.05118 38.7099C0.931591 38.6379 0.931591 38.5659 1.01132 38.5019C1.09104 38.4299 1.11098 38.3659 1.05118 38.2939C0.931591 38.2299 0.91166 38.1499 0.971455 38.0699C1.03125 37.9899 0.991386 37.9179 0.891728 37.8539C0.831933 37.7579 0.851865 37.6779 0.931591 37.6059C1.01132 37.5339 1.01132 37.4539 0.891728 37.3659C0.831933 37.3019 0.851865 37.2299 0.931591 37.1659C1.01132 37.0939 1.05118 37.0299 1.05118 36.9579C1.05118 36.9099 1.11098 36.8459 1.21063 36.7499C1.21063 36.6619 1.17077 36.5979 1.13091 36.5819L0.891728 36.6859C0.891728 36.6139 0.91166 36.5419 0.971455 36.4619C1.01132 36.4219 1.01132 36.3819 1.01132 36.3419L0.812001 36.2619C0.812001 36.2139 0.79207 36.1819 0.732275 36.1579C0.851865 36.1579 0.951523 36.1739 1.05118 36.1819C1.05118 36.0299 1.07111 35.9019 1.11098 35.8059C1.09104 35.7819 1.09104 35.7659 1.07111 35.7419C1.05118 35.7339 1.05118 35.7259 1.05118 35.7099C1.03125 35.7099 1.01132 35.7099 1.01132 35.7019C0.991386 35.6939 0.931591 35.6939 0.891728 35.6939C0.931591 35.6699 0.971455 35.6539 0.991386 35.6299C0.971455 35.5659 0.951523 35.5019 0.991386 35.4379C1.05118 35.3259 1.05118 35.2059 1.03125 35.0779C1.01132 34.9499 1.01132 34.8299 1.07111 34.7179C1.07111 34.6699 1.09104 34.6379 1.11098 34.6139C1.13091 34.5979 1.09104 34.5739 1.09104 34.5579H1.07111C1.07111 34.5499 1.07111 34.5419 1.07111 34.5339C1.07111 34.5259 1.07111 34.5179 1.05118 34.5099C0.91166 34.3659 0.931591 34.2139 1.05118 34.0539C1.03125 34.0299 1.01132 34.0059 0.991386 33.9819C0.971455 33.9739 0.991386 33.9659 0.971455 33.9579C0.931591 33.9339 0.91166 33.9099 0.91166 33.8939C0.971455 33.8539 0.991386 33.8059 1.03125 33.7659C1.05118 33.7339 1.03125 33.6939 1.01132 33.6699C0.871796 33.5819 0.851865 33.4859 0.91166 33.3819C0.971455 33.2779 0.991386 33.1739 0.991386 33.0539C0.931591 32.9819 0.951523 32.9099 1.03125 32.8299C1.11098 32.7499 0.772138 32.5419 0.772138 32.5019C0.772138 32.4619 0.772138 32.4299 0.772138 32.3819C0.712343 32.3579 0.572822 32.3499 0.353574 32.3499C0.353574 32.3259 0.333642 32.3019 0.313711 32.2779C0.293779 32.2619 0.273848 32.2379 0.273848 32.2139C0.393437 32.1259 0.473164 32.0619 0.532959 32.0459C0.652548 32.1339 0.692412 32.2059 0.692412 32.2539C0.812002 32.2299 0.891728 32.2059 0.951523 32.1819C1.01132 32.1579 1.21063 31.9419 1.21063 31.9419C1.03125 31.9179 0.91166 31.8539 0.79207 31.7339C0.572822 31.8699 0.333642 31.9819 0.114394 32.0779C0.114394 31.9179 0.154258 31.8059 0.194121 31.7339C0.194121 31.6219 0.214053 31.5259 0.273848 31.4619C0.214053 31.3499 0.174189 31.2299 0.154258 31.1179C0.134326 31.0059 0.174189 30.8859 0.273848 30.7739C0.273848 30.7259 0.233984 30.6779 0.154258 30.6219C0.0745312 30.5659 0.0944628 30.5099 0.194121 30.4699C0.313711 30.3579 0.313711 30.2619 0.194121 30.1979C0.0944628 30.1179 0.034668 30.0379 0.034668 29.9499C0.034668 29.8619 0.0545996 29.7659 0.114394 29.6779C0.0545996 29.6299 0.034668 29.5499 0.034668 29.4299C0.0944629 29.4059 0.154258 29.3899 0.214053 29.3819C0.273848 29.3739 0.333642 29.3419 0.393437 29.2939H0.034668C0.214053 29.2219 0.393437 29.1819 0.632617 29.1579V29.0539H0.79207V29.1579C0.851865 29.1579 0.891728 29.1499 0.91166 29.1419C0.951523 29.1339 0.991386 29.1259 1.03125 29.1259L1.11098 29.0539C0.991386 29.0059 0.951523 28.9739 0.951523 28.9499C1.01132 28.9259 1.09104 28.9179 1.21063 28.9179V28.8459C1.15084 28.8459 1.11098 28.8539 1.09104 28.8619C1.07111 28.8699 1.03125 28.8779 0.971455 28.8779C0.851865 28.8299 0.79207 28.7739 0.79207 28.7099C0.971455 28.7099 1.15084 28.7339 1.39002 28.7819C1.60927 28.7579 1.05118 28.6219 1.09104 28.5899C1.15084 28.5419 1.15084 28.5019 1.09104 28.4699C1.03125 28.4379 1.01132 28.3979 1.01132 28.3499C1.01132 28.3019 1.03125 28.2619 1.09104 28.2139C1.15084 28.1659 1.21063 28.1259 1.2505 28.0779H1.09104C1.15084 27.9899 1.13091 27.8939 1.05118 27.8059C0.971455 27.7179 0.971454 27.6219 1.09104 27.5339C1.09104 27.4619 1.11098 27.3899 1.13091 27.3099C1.15084 27.2299 1.11098 27.1579 1.01132 27.0859C1.01132 27.0379 1.03125 26.9979 1.05118 26.9659C1.07111 26.9339 1.09104 26.8939 1.09104 26.8459C1.09104 26.7579 1.11098 26.6859 1.17077 26.6379C1.13091 26.6059 1.11098 26.5899 1.09104 26.5659C1.15084 26.5659 1.1907 26.5579 1.2505 26.5339C1.1907 26.5099 1.17077 26.4939 1.17077 26.4859C1.17077 26.4779 1.15084 26.4619 1.09104 26.4379L1.01132 26.4539C1.03125 26.4139 1.07111 26.3739 1.17077 26.3339C1.01132 26.2619 0.971454 26.1499 1.09104 25.9899C1.15084 25.8779 1.15084 25.7659 1.09104 25.6619C1.03125 25.5579 1.05118 25.4539 1.17077 25.3339C1.23057 25.2859 1.23057 25.2459 1.17077 25.1979C1.11098 25.1499 1.09104 25.1099 1.09104 25.0619C1.03125 24.9739 1.01132 24.8859 1.05118 24.8059C1.07111 24.7259 1.07111 24.6379 1.01132 24.5499C0.891728 24.3179 0.951523 24.1419 1.17077 23.9979C1.11098 23.9979 1.05118 23.9899 1.01132 23.9659C1.01132 23.9419 1.03125 23.9259 1.05118 23.9179C1.07111 23.9019 1.09104 23.8859 1.09104 23.8699C0.931591 23.7819 0.871796 23.6859 0.971455 23.5819C1.05118 23.4779 1.07111 23.3739 1.01132 23.2539C1.01132 23.1819 1.03125 23.1259 1.09104 23.0619C1.15084 23.0059 1.21063 22.9419 1.2505 22.8779C1.23057 22.8539 1.1907 22.8299 1.17077 22.8139C1.15084 22.7899 1.09104 22.7579 1.05118 22.7099C1.11098 22.6619 1.17077 22.6059 1.23057 22.5419C1.29036 22.4699 1.31029 22.4139 1.31029 22.3739H1.05118C1.11098 22.3499 1.17077 22.3419 1.23057 22.3419C1.29036 22.3419 1.31029 22.3179 1.31029 22.2699C1.31029 22.1339 1.33022 22.0299 1.39002 21.9579C1.39002 21.8859 1.33022 21.8299 1.21063 21.7899C1.15084 21.7419 1.13091 21.6939 1.17077 21.6379C1.1907 21.5819 1.21063 21.5259 1.21063 21.4859C1.03125 21.3979 0.971455 21.3019 0.991386 21.2139C1.03125 21.1259 1.03125 21.0299 1.03125 20.9419C1.03125 20.8539 0.991386 20.7739 0.91166 20.7019C0.831933 20.6299 0.812001 20.5659 0.871796 20.4939C0.871796 20.4059 0.851865 20.3259 0.831933 20.2539C0.812002 20.1819 0.812001 20.1179 0.871796 20.0459C0.931591 19.9339 0.951523 19.7819 0.951523 19.5979C0.951523 19.5099 0.931591 19.4299 0.871796 19.3579C0.812001 19.2859 0.812001 19.2139 0.871796 19.1179C0.812001 19.0299 0.812001 18.9499 0.871796 18.8779C0.931591 18.8059 0.951523 18.7339 0.951523 18.6379V17.9899C0.891728 17.9179 0.91166 17.8619 0.991386 17.7979C1.07111 17.7419 1.15084 17.6779 1.21063 17.6059C1.15084 17.5579 1.17077 17.5179 1.2505 17.4859C1.33022 17.4539 1.33022 17.4139 1.21063 17.3659C0.991386 17.1819 0.931591 17.0459 1.03125 16.9579C1.03125 16.9099 1.01132 16.8699 0.951523 16.8219C0.891728 16.7739 0.831933 16.7339 0.79207 16.6859C0.91166 16.4619 0.951523 16.2859 0.951523 16.1739C0.891728 16.0859 0.931591 15.9659 1.03125 15.8299C0.951523 15.7499 0.91166 15.6699 0.931591 15.5899C0.951523 15.5099 0.951523 15.4379 0.891728 15.3659C0.831933 15.2779 0.851865 15.1979 0.931591 15.1259C1.01132 15.0539 1.01132 14.9739 0.891728 14.8859C0.831933 14.7259 0.831933 14.5659 0.891728 14.4059V13.1739C1.01132 13.0859 1.01132 12.9819 0.891728 12.8619C1.01132 12.7499 1.03125 12.6219 0.971455 12.4859C0.931591 12.3979 0.971455 12.3259 0.971455 12.2539C0.991386 12.2459 1.01132 12.2379 1.03125 12.2299C1.09104 12.2139 1.13091 12.1979 1.1907 12.1739C1.42988 12.2139 1.5694 12.2299 1.6292 12.2299L1.60927 12.1259C1.72886 12.1259 1.84845 12.1259 1.98797 12.1339C2.12749 12.1419 2.24708 12.1419 2.36667 12.1419C2.36667 12.1179 2.34674 12.1019 2.30687 12.0939C2.26701 12.0859 2.26701 12.0699 2.24708 12.0459C2.12749 12.0459 2.04776 12.0459 1.98797 12.0379C1.92817 12.0299 1.84845 12.0219 1.72886 12.0299C1.40995 12.0779 1.15084 12.1099 0.931591 12.1179C0.991386 12.0299 1.01132 11.9339 1.01132 11.8459C1.01132 11.7579 0.951523 11.6619 0.851865 11.5739C0.91166 11.5259 1.05118 11.1259 1.05118 11.1259H0.91166C0.851865 11.0779 0.79207 11.0379 0.752207 10.9899C0.692412 10.9419 0.67248 10.9019 0.67248 10.8539C0.67248 10.8059 0.652548 10.7499 0.632617 10.6859C0.612685 10.6139 0.652548 10.5579 0.752207 10.5179C0.871796 10.4459 0.871796 10.3739 0.752207 10.2939C0.632617 10.2139 0.612685 10.1419 0.67248 10.0699C0.79207 9.99794 0.79207 9.92594 0.712343 9.84594C0.632617 9.76594 0.612685 9.69394 0.67248 9.62194C0.612685 9.50994 0.632617 9.39794 0.712343 9.29394C0.79207 9.18994 0.812002 9.08594 0.752207 8.96594C0.632617 8.91794 0.592754 8.86994 0.632617 8.81394C0.67248 8.75794 0.652548 8.69394 0.592754 8.62994C0.532959 8.58194 0.55289 8.54194 0.632617 8.49394C0.712343 8.44594 0.752207 8.40594 0.752207 8.35794C0.752207 8.17394 0.772138 8.03794 0.831933 7.94994C0.831933 7.87794 0.891728 7.83794 1.05118 7.82994C1.1907 7.82194 1.29036 7.78994 1.35016 7.74194C1.23057 7.74194 1.13091 7.73394 1.01132 7.70994C1.13091 7.66194 1.1907 7.62994 1.1907 7.60594C1.2505 7.62994 1.27043 7.64594 1.27043 7.65394C1.27043 7.66194 1.29036 7.68594 1.35016 7.70194C1.44981 7.70194 1.44981 7.65394 1.42988 7.59794C1.74879 7.54994 2.02783 7.51794 2.22715 7.50994L2.12749 7.42994C2.18728 7.42994 2.22715 7.42194 2.24708 7.41394C2.26701 7.39794 2.30687 7.39794 2.36667 7.38994C2.36667 7.36594 2.32681 7.34194 2.26701 7.32594C2.20722 7.34994 2.16735 7.36594 2.10756 7.38194C2.04776 7.39794 2.0079 7.41394 1.9481 7.43794C1.70892 7.39794 1.5694 7.38194 1.50961 7.38194L1.52954 7.48594C1.46975 7.48594 1.39002 7.48594 1.33022 7.47794C1.23057 7.34994 1.09104 7.21394 1.17077 7.21394C1.15084 7.18194 1.15084 7.14994 1.13091 7.11794V6.50194C1.13091 6.42994 1.17077 6.37394 1.2505 6.31794C1.33022 6.26194 1.33022 6.19794 1.21063 6.12594C1.09104 6.01394 1.09104 5.89394 1.17077 5.76594C1.2505 5.63794 1.21063 5.51794 1.05118 5.40594C1.05118 5.38194 1.11098 5.34994 1.23057 5.30194C1.05118 5.11794 1.05118 4.94994 1.23057 4.78994C1.29036 4.74194 1.31029 4.70994 1.27043 4.68594C1.2505 4.66194 1.23057 4.62994 1.23057 4.58194C1.17077 4.46994 1.15084 4.34994 1.1907 4.22194C1.1907 4.18994 1.17077 4.16594 1.17077 4.13394H0.971455C0.971455 3.97394 0.931591 3.86194 0.891728 3.78994C0.951523 3.71794 0.971455 3.66194 0.971455 3.60594C0.971455 3.54994 1.03125 3.48594 1.13091 3.42194C1.13091 3.32594 1.1907 3.22994 1.27043 3.13394C1.15084 3.14194 1.03125 3.15794 0.871796 3.15794C0.931591 3.13394 0.951523 3.10194 0.951523 3.05394L1.17077 2.96594C1.01132 2.92594 0.871796 2.88594 0.79207 2.83794C0.91166 2.78994 1.01132 2.76594 1.13091 2.76594C1.2505 2.76594 1.35016 2.74194 1.46975 2.69394H1.15084L0.891728 2.58994C1.01132 2.40594 1.05118 2.26994 1.05118 2.18194L0.891728 2.14994C0.951523 2.12594 0.991386 2.11794 1.01132 2.11794C1.03125 2.11794 1.07111 2.10994 1.13091 2.08594C1.07111 1.99794 1.07111 1.91794 1.13091 1.84594C1.1907 1.77394 1.27043 1.69394 1.39002 1.60594C1.39002 1.46994 1.58934 1.31794 1.98797 1.15794C1.98797 1.06994 2.04776 1.00594 2.14742 0.989941C2.30687 0.94194 2.48626 0.885941 2.64571 0.821941C2.80516 0.749943 2.98455 0.693943 3.144 0.653942C3.26359 0.605942 3.36325 0.581944 3.48284 0.581944C3.60243 0.581944 3.70209 0.557941 3.82168 0.509941C4.02099 0.421944 4.20038 0.389942 4.43956 0.389942C4.65881 0.389942 4.85812 0.36594 5.03751 0.31794C5.19696 0.269939 5.37634 0.26194 5.5358 0.285938C5.65539 0.30994 5.75505 0.31794 5.83477 0.301941C5.9145 0.293941 6.01416 0.285938 6.13375 0.285938H7.38944C7.60869 0.26194 7.82794 0.237942 8.02725 0.21394C8.22657 0.189941 8.46575 0.189941 8.74479 0.21394C8.90424 0.21394 9.08363 0.205944 9.24308 0.181942C9.42247 0.157944 9.58192 0.157944 9.74137 0.181942C9.86096 0.205944 9.96062 0.21394 10.0403 0.197941C10.1201 0.189941 10.2197 0.181942 10.3393 0.181942C10.6184 0.157944 10.9173 0.165939 11.2163 0.197941C11.5153 0.229939 11.8143 0.245941 12.0933 0.245941C12.2129 0.245941 12.3325 0.237942 12.472 0.21394C12.6115 0.189941 12.7311 0.189941 12.8507 0.21394C12.9703 0.237942 13.0899 0.245941 13.2294 0.229939C13.3689 0.221939 13.4885 0.237942 13.6081 0.277943C13.7676 0.229942 13.9469 0.21394 14.1064 0.229939C14.2659 0.237942 14.4452 0.237942 14.6047 0.21394C14.7243 0.189941 14.8439 0.181942 14.9834 0.181942C15.1229 0.181942 15.2824 0.173943 15.4418 0.14994C15.6212 0.125942 15.8006 0.141941 15.9999 0.181942C16.1992 0.229942 16.3985 0.229942 16.6377 0.181942C16.857 0.181942 17.0762 0.173943 17.2755 0.165943C17.4748 0.157944 17.6742 0.157944 17.9133 0.181942C18.1326 0.181942 18.3518 0.173943 18.5512 0.14994C18.7505 0.125942 18.9299 0.125942 19.1092 0.14994C19.3285 0.125942 19.5278 0.125942 19.7072 0.14994C19.8666 0.173943 20.046 0.197941 20.2055 0.221943C20.4845 0.109943 20.8433 0.0939407 21.3017 0.189941V0.15794C21.5808 0.15794 21.8399 0.14994 22.0591 0.125938C22.2784 0.10194 22.5375 0.10194 22.8165 0.125938C23.0956 0.14994 23.4942 0.15794 23.9925 0.15794C24.0523 0.15794 24.1519 0.125942 24.3313 0.0539436H25.6867C25.8063 0.0299416 25.9259 0.0219421 26.0654 0.037941C26.2049 0.0459404 26.3245 0.0459404 26.4441 0.0219421C26.5637 -0.00205994 26.6633 -0.00205994 26.743 0.0219421C26.8228 0.0459404 26.9224 0.0539436 27.042 0.0539436C27.2613 0.0059433 27.4606 -0.00205994 27.64 0.0219421C27.7994 0.0459404 27.9987 0.0539436 28.2379 0.0539436C28.3974 0.0779419 28.517 0.125942 28.5768 0.189941H28.8359C28.7761 0.141941 28.7163 0.117939 28.6764 0.10194C28.6166 0.0939407 28.5568 0.0779419 28.517 0.0539436C28.796 0.0539436 28.9953 0.0459404 29.1149 0.0219421C29.3342 -0.00205994 29.6132 0.0139427 29.952 0.0539436C30.1713 0.0059433 30.3905 -0.0100594 30.5899 0.00593948C30.7892 0.0219421 30.9885 0.0219421 31.2277 0.0219421C31.3871 0.0219421 31.5466 0.037941 31.6861 0.0539436C31.8256 0.0779419 31.9452 0.10194 32.0648 0.125938C32.2242 0.125938 32.4036 0.117943 32.5631 0.0939407C32.7225 0.0699425 32.9019 0.0699425 33.0614 0.0939407C33.6195 0.0459404 34.038 0.037941 34.3171 0.0619392H34.6559C34.8154 0.037941 34.9947 0.0299416 35.1542 0.0459404C35.3137 0.0539398 35.493 0.0619392 35.6525 0.0619392C35.6525 0.0859413 35.6724 0.101944 35.6924 0.109943C35.7123 0.125942 35.7322 0.141941 35.7322 0.15794C35.7322 0.133942 35.7521 0.117943 35.7721 0.109943C35.792 0.101944 35.8119 0.0859413 35.8119 0.0619392C36.2704 0.0619392 36.5693 0.0539398 36.7487 0.0299416C36.8683 0.00593948 36.9879 0.0139389 37.1274 0.0459404C37.267 0.0779419 37.3865 0.0779419 37.5061 0.0299416C37.6257 0.00593948 37.7254 0.00593948 37.845 0.0299416C37.9646 0.0539398 38.0642 0.0619392 38.1838 0.0619392H39.6189V0.14994C39.7385 0.125942 39.8182 0.10194 39.878 0.0619392C39.9378 0.0299416 40.0175 0.0219421 40.1371 0.0459404C40.1969 0.0219421 40.3364 0.037941 40.5557 0.0779419L40.8945 0.00593948C41.054 0.0299416 41.2333 0.0539398 41.3928 0.0779419C41.5522 0.10194 41.7316 0.0859413 41.8911 0.0459404C42.0107 -0.00205994 42.1303 -0.0100594 42.2698 0.0139389C42.4093 0.037941 42.5688 0.0619392 42.7282 0.0859413V0.14994C43.0073 0.10194 43.3062 0.0939407 43.6052 0.117939C43.9241 0.141941 44.2032 0.133942 44.4822 0.0859413C44.7014 0.0619392 45.0403 0.0779419 45.4987 0.117939C45.7778 0.0939407 46.0568 0.0939407 46.3358 0.10194C46.6149 0.117939 46.8939 0.117939 47.173 0.117939C47.2926 0.117939 47.3324 0.14994 47.3324 0.221943L47.4919 0.0859413C47.7111 0.133942 47.9104 0.141941 48.0898 0.117939C48.2493 0.0939407 48.4486 0.0939407 48.6878 0.117939C48.907 0.141941 49.1063 0.14994 49.2857 0.133942C49.4452 0.125942 49.6445 0.125942 49.8837 0.14994C50.0033 0.14994 50.1029 0.141941 50.1826 0.117939C50.2624 0.0939407 50.362 0.0939407 50.4816 0.117939C50.6012 0.141941 50.6809 0.141941 50.7407 0.117939C50.8005 0.0939407 50.8803 0.0939407 50.9998 0.117939C51.1593 0.141941 51.3387 0.14994 51.4981 0.133942C51.6576 0.125942 51.7971 0.125942 51.9167 0.14994C52.2555 0.14994 52.4748 0.141941 52.5944 0.117939C52.8136 0.0699425 53.0329 0.0539398 53.2322 0.0699387C53.4315 0.0779381 53.6109 0.0859413 53.7903 0.0859413C54.2886 0.133942 54.6673 0.189941 54.8865 0.253941C55.1656 0.301941 55.4446 0.341942 55.6838 0.37394C55.923 0.405941 56.202 0.405941 56.481 0.357941C56.6405 0.333939 56.78 0.30994 56.8996 0.269939C57.0192 0.237938 57.1587 0.205944 57.3182 0.181942V0.31794C57.378 0.269939 57.3979 0.229939 57.3979 0.197941C57.3979 0.165939 57.4577 0.125942 57.5574 0.0779419C57.6769 0.0779419 57.7168 0.109943 57.7168 0.181942C57.8364 0.133942 57.9759 0.117943 58.1354 0.133942C58.3148 0.14994 58.4543 0.165943 58.5539 0.181942C58.5539 0.229942 58.4941 0.269939 58.3745 0.31794C58.5539 0.293941 58.7134 0.285938 58.8728 0.285938C59.0323 0.285938 59.1917 0.277943 59.2914 0.253941C59.4509 0.253941 59.6502 0.277939 59.8894 0.325939V0.189941C59.9491 0.21394 60.0289 0.221943 60.1485 0.221943V0.14994C60.2681 0.197941 60.3478 0.221943 60.4076 0.221943V0.0859413H60.567V0.293941L60.6468 0.325939C60.7663 0.301941 60.866 0.269943 60.9856 0.221943C61.2646 0.293941 61.4042 0.405941 61.4042 0.565941C61.4042 0.613941 61.4241 0.645939 61.4839 0.669941C61.6035 0.669941 61.6633 0.645939 61.6633 0.597939C61.6035 0.549938 61.5835 0.501942 61.5835 0.445942C61.5835 0.389942 61.5636 0.333942 61.5038 0.293941L61.8227 0.181942C61.9423 0.229942 61.9822 0.269939 61.9822 0.301941C61.9822 0.333939 61.9822 0.373943 61.9822 0.42194H62.0021C62.0619 0.381943 62.1416 0.349941 62.2413 0.30994C62.2413 0.285942 62.2214 0.269939 62.2014 0.26194C62.1815 0.253941 62.1616 0.237942 62.1616 0.21394L62.4207 0.109943C62.5403 0.109943 62.62 0.10194 62.6798 0.0779419C62.6798 0.245941 62.5602 0.365944 62.3609 0.453941C62.3808 0.453941 62.3808 0.453941 62.4007 0.453941C62.4007 0.477943 62.4207 0.501938 62.4406 0.52594C62.4605 0.549938 62.4805 0.57394 62.4805 0.597939C62.4007 0.661938 62.3409 0.701942 62.2811 0.73394C62.3011 0.757942 62.3011 0.78194 62.321 0.797939H62.0619C62.0619 0.813938 62.1815 0.83794 62.3409 0.869938C62.4406 0.821941 62.5403 0.773941 62.6399 0.725941C62.6399 0.773941 62.6399 0.805943 62.62 0.84594L63.0186 0.693943L62.6598 0.557941C62.7794 0.557941 62.8592 0.549938 62.8791 0.541939C62.899 0.533939 62.9787 0.52594 63.0983 0.52594V0.597939C63.2179 0.597939 63.2977 0.589943 63.3575 0.565941V0.533939L62.9987 0.461941C62.9987 0.41394 62.9788 0.381939 62.9588 0.357941C62.9389 0.333939 62.919 0.301941 62.919 0.253941C63.2179 0.277943 63.477 0.26194 63.7162 0.221943C63.9554 0.173943 64.2145 0.165939 64.5135 0.189941C64.8125 0.21394 65.1114 0.221943 65.4303 0.20594C65.7493 0.197941 66.0682 0.197941 66.3472 0.221943C66.4668 0.221943 66.5465 0.229942 66.6063 0.237942C66.6661 0.245941 66.7458 0.245941 66.8654 0.221943C67.284 0.14994 67.7225 0.14994 68.1809 0.221943C68.3005 0.173943 68.3802 0.14994 68.44 0.14994C68.739 0.221943 69.038 0.237938 69.3569 0.197941C69.6758 0.165939 69.9947 0.165939 70.2737 0.21394C70.4531 0.26194 70.6126 0.26194 70.7521 0.229939C70.8916 0.197941 71.0511 0.181942 71.2304 0.181942H72.825C73.3033 0.229942 73.702 0.21394 74.0607 0.14994C74.0607 0.221943 74.1006 0.26194 74.1405 0.285938C74.1405 0.26194 74.2003 0.229942 74.3198 0.181942C74.4992 0.157944 74.6986 0.157944 74.8979 0.181942C75.0972 0.205944 75.3164 0.205944 75.5556 0.181942C75.6752 0.205944 75.8546 0.21394 76.0938 0.21394C76.1536 0.189941 76.2134 0.181942 76.2731 0.181942L76.4525 0.253941C76.6319 0.205944 76.8312 0.189941 77.0305 0.20594C77.2299 0.21394 77.4292 0.221943 77.6086 0.221943C78.2065 0.173943 78.6649 0.14994 79.0237 0.14994V0.253941C79.2031 0.253941 79.3825 0.237942 79.5619 0.20594C79.7413 0.173943 79.9206 0.15794 80.1 0.15794C80.3392 0.15794 80.5584 0.165939 80.7578 0.173939C80.9571 0.189941 81.1963 0.165939 81.4155 0.125938C81.5949 0.173939 81.7743 0.181942 81.9935 0.15794C82.1928 0.133942 82.3922 0.10994 82.5715 0.0859413C82.8107 0.0859413 83.03 0.0779381 83.2293 0.0699387C83.4286 0.0619392 83.6279 0.0779419 83.8073 0.117939C84.0465 0.117939 84.2259 0.10994 84.3455 0.0859413C84.5846 0.133942 84.8238 0.15794 85.0431 0.15794C85.2822 0.15794 85.5214 0.14994 85.7407 0.125938C86.0396 0.10194 86.3586 0.10194 86.7173 0.125938C87.0761 0.14994 87.395 0.141941 87.694 0.0939407C87.9929 0.141941 88.2521 0.141941 88.4912 0.0939407H91.7202C92.1387 0.0699425 92.5374 0.0699425 92.9559 0.0939407C93.1951 0.141941 93.3944 0.141941 93.5738 0.109943C93.7532 0.0779419 93.9525 0.0699425 94.1917 0.0939407C94.3711 0.117943 94.5504 0.125942 94.7697 0.109943C94.969 0.101944 95.1683 0.117939 95.3477 0.15794C95.7065 0.10994 96.0055 0.10194 96.2247 0.125938C96.5237 0.125938 96.9622 0.101944 97.5402 0.0539436C97.6598 0.0779419 97.7794 0.10194 97.899 0.125938V0.197941C98.0584 0.21394 98.2179 0.237942 98.3375 0.285938C98.3973 0.237942 98.4571 0.21394 98.4969 0.197941C98.5567 0.181938 98.6165 0.157944 98.6763 0.109943V0.181942C98.8557 0.205944 99.0151 0.205944 99.1746 0.181942C99.334 0.157944 99.5334 0.157944 99.7725 0.181942C99.9918 0.205944 100.331 0.189941 100.789 0.14994C100.949 0.173943 101.148 0.181942 101.387 0.165943C101.606 0.157944 101.845 0.157944 102.065 0.181942C102.184 0.205944 102.284 0.20594 102.364 0.197941C102.443 0.181938 102.543 0.189941 102.663 0.21394C102.782 0.26194 102.902 0.26194 103.041 0.229939C103.181 0.197941 103.3 0.181942 103.42 0.181942H104.855C104.975 0.181942 105.054 0.197941 105.114 0.229939C105.174 0.26194 105.254 0.293941 105.373 0.31794C105.314 0.389942 105.214 0.437939 105.034 0.46994C104.875 0.501938 104.696 0.517941 104.536 0.517941C104.596 0.517941 104.676 0.541943 104.795 0.589939H104.456C104.516 0.613941 104.656 0.621941 104.875 0.621941C104.995 0.597942 105.074 0.589943 105.134 0.605942C105.194 0.613941 105.274 0.621941 105.393 0.621941C105.513 0.645943 105.613 0.653942 105.732 0.637943C105.852 0.629944 105.951 0.645939 106.071 0.68594V0.581944H106.41C106.29 0.533943 106.191 0.509941 106.071 0.509941V0.341938C105.951 0.389938 105.872 0.41394 105.812 0.429939C105.752 0.437939 105.672 0.46994 105.553 0.517941C105.553 0.405941 105.593 0.325943 105.632 0.277943L105.553 0.245941C105.772 0.197941 105.951 0.189941 106.051 0.21394C106.171 0.26194 106.27 0.26194 106.39 0.229939C106.509 0.197941 106.609 0.165939 106.729 0.141941C106.948 0.189941 107.167 0.20594 107.366 0.189941C107.566 0.173943 107.785 0.173939 108.004 0.173939C108.124 0.197941 108.224 0.197941 108.343 0.173939C108.463 0.14994 108.562 0.14994 108.682 0.173939C108.901 0.197941 109.14 0.197941 109.36 0.189941C109.579 0.173943 109.778 0.20594 109.958 0.277943C110.137 0.20594 110.316 0.173939 110.556 0.173939C110.894 0.197941 111.213 0.173939 111.492 0.10194C111.652 0.125942 111.811 0.141941 111.951 0.14994C112.09 0.15794 112.25 0.165943 112.409 0.165943C112.529 0.189941 112.628 0.189941 112.708 0.165943C112.788 0.141941 112.888 0.133942 113.007 0.133942C113.286 0.181942 113.525 0.197941 113.725 0.181942C113.924 0.165943 114.163 0.165943 114.442 0.165943C114.622 0.117943 114.781 0.10994 114.941 0.133942C115.12 0.15794 115.279 0.165943 115.439 0.165943C115.718 0.213943 115.917 0.221939 116.037 0.197941C116.196 0.14994 116.435 0.14994 116.714 0.197941V0.0619392C116.714 0.0859413 116.734 0.10994 116.794 0.133942H118.648C118.767 0.133942 118.887 0.141941 119.026 0.165943C119.166 0.189941 119.286 0.189941 119.405 0.165943C119.684 0.117943 119.943 0.133938 120.163 0.197941C120.382 0.14994 120.581 0.14994 120.761 0.197941C120.88 0.221939 120.96 0.221939 121.02 0.197941C121.079 0.173939 121.159 0.165943 121.279 0.165943C121.438 0.117943 121.638 0.117943 121.837 0.14994C122.036 0.181942 122.255 0.189941 122.475 0.165943C122.694 0.165943 122.913 0.173943 123.112 0.181942C123.312 0.189941 123.491 0.189941 123.671 0.165943C123.79 0.141941 123.89 0.133942 123.97 0.14994C124.049 0.15794 124.149 0.165943 124.269 0.165943C124.428 0.189941 124.607 0.181942 124.767 0.14994C124.926 0.117943 125.126 0.117943 125.365 0.165943C125.484 0.165943 125.624 0.173943 125.783 0.181942C125.943 0.189941 126.102 0.189941 126.202 0.165943C126.481 0.141941 126.76 0.133942 126.999 0.14994C127.258 0.15794 127.497 0.15794 127.717 0.133942C127.996 0.15794 128.315 0.165943 128.653 0.14994C128.992 0.141941 129.311 0.15794 129.59 0.197941C129.71 0.173939 129.809 0.14994 129.929 0.125938C130.049 0.10194 130.148 0.0939407 130.268 0.0939407C130.487 0.117943 130.706 0.125942 130.906 0.109943C131.105 0.101944 131.324 0.0939407 131.544 0.0939407C131.703 0.0939407 131.882 0.101944 132.042 0.109943C132.201 0.117943 132.401 0.141941 132.64 0.15794L132.899 0.26194C132.899 0.173943 133.098 0.125938 133.497 0.125938C133.497 0.173939 133.517 0.197941 133.577 0.197941C133.577 0.14994 133.616 0.117943 133.656 0.0939407C133.776 0.141941 133.895 0.15794 134.035 0.141941C134.175 0.133942 134.334 0.133942 134.493 0.15794C134.613 0.181942 134.713 0.173939 134.832 0.141941C134.952 0.10994 135.052 0.0939407 135.171 0.0939407C135.729 0.0939407 136.128 0.117943 136.347 0.165943C136.507 0.213943 136.746 0.213943 137.025 0.165943C137.483 0.213943 137.962 0.213943 138.46 0.165943C138.679 0.117943 138.898 0.125942 139.098 0.181942C139.297 0.237942 139.516 0.245941 139.735 0.197941C140.194 0.10994 140.553 0.0619392 140.832 0.0619392H142.606C142.785 0.0859413 142.944 0.0859413 143.104 0.0619392C143.263 0.037941 143.443 0.0299416 143.602 0.0299416C143.881 0.0539398 144.2 0.0539398 144.539 0.0299416C144.878 0.00593948 145.197 0.0139427 145.476 0.0619392C145.595 0.0859413 145.695 0.0859413 145.815 0.0619392C145.934 0.037941 146.034 0.0299416 146.153 0.0299416H147.529V0.10194C147.668 0.117939 147.808 0.133942 147.947 0.133942C148.226 0.10994 148.465 0.10994 148.665 0.133942C148.864 0.15794 149.083 0.181942 149.303 0.20594H150.558C150.678 0.20594 150.778 0.213943 150.857 0.221943C150.937 0.237942 151.037 0.229942 151.156 0.20594C151.336 0.181942 151.495 0.197941 151.655 0.237942C151.814 0.285942 152.013 0.30994 152.253 0.30994C152.472 0.30994 152.671 0.341942 152.85 0.41394C152.97 0.461941 153.07 0.485939 153.189 0.485939C153.309 0.485939 153.409 0.509941 153.528 0.557941C153.688 0.605942 153.867 0.661938 154.026 0.725941C154.186 0.797939 154.365 0.853943 154.525 0.89394C154.644 0.917942 154.704 0.973942 154.704 1.06194C155.103 1.22194 155.302 1.37394 155.302 1.50994C155.422 1.59794 155.501 1.67794 155.561 1.74994C155.621 1.82194 155.621 1.90194 155.561 1.98994C155.621 2.01394 155.661 2.02194 155.681 2.02194C155.721 2.02194 155.76 2.02994 155.8 2.05394L155.641 2.08594C155.641 2.17394 155.701 2.31794 155.8 2.49394L155.661 2.54994C155.701 2.59794 155.701 2.63794 155.721 2.68594ZM1.2505 27.7739C1.13091 27.7499 1.13091 27.7579 1.2505 27.8059C1.37009 27.8059 1.37009 27.7899 1.2505 27.7739ZM1.39002 22.7739C1.39002 22.8059 1.35016 22.8379 1.33022 22.8699H1.40995C1.40995 22.8379 1.40995 22.8059 1.39002 22.7739ZM1.2505 18.9659L1.50961 18.7579H1.2505V18.9659ZM1.29036 18.4459C1.27043 18.4699 1.2505 18.5019 1.2505 18.5499C1.31029 18.5979 1.37009 18.6219 1.42988 18.6379C1.48968 18.6539 1.54947 18.6699 1.58933 18.6859C1.52954 18.6379 1.52954 18.5899 1.54947 18.5339C1.58933 18.4779 1.58933 18.4139 1.58933 18.3419H1.33022C1.33022 18.3899 1.33022 18.4299 1.29036 18.4459ZM1.33022 17.0299C1.33022 17.1099 1.39002 17.1259 1.48968 17.0779C1.52954 17.0699 1.52954 17.0619 1.54947 17.0539C1.5694 17.0699 1.60927 17.0779 1.66906 17.0779C1.72886 17.0539 1.74879 17.0059 1.74879 16.9419C1.64913 16.9419 1.5694 16.9659 1.54947 17.0059C1.52954 16.9979 1.52954 16.9819 1.50961 16.9739C1.39002 16.9259 1.33022 16.9499 1.33022 17.0299ZM1.66906 15.1579C1.60927 15.1579 1.5694 15.1739 1.54947 15.2059C1.52954 15.2379 1.52954 15.2699 1.58933 15.2939C1.70892 15.3179 1.76872 15.3099 1.76872 15.2619C1.76872 15.2139 1.72886 15.1819 1.66906 15.1579ZM8.42588 4.40594L8.44582 4.50994C8.28636 4.51794 8.08705 4.51794 7.88773 4.50994C7.68841 4.50194 7.50903 4.52594 7.34958 4.57394C7.13033 4.55794 6.87122 4.54194 6.63204 4.54194C6.37293 4.53394 6.17361 4.56594 6.01416 4.63794C6.13375 4.70194 6.39286 4.70994 6.77156 4.65394C7.0506 4.59794 7.30971 4.59794 7.56882 4.63794C7.82793 4.67794 8.08705 4.68594 8.36609 4.65394C8.46575 4.60594 8.52554 4.56594 8.56541 4.52594C8.58534 4.49394 8.6252 4.45394 8.66506 4.40594H8.42588ZM9.0039 39.6939C8.94411 39.7419 8.98397 39.7419 9.08363 39.6939C9.08363 39.6539 9.04376 39.6539 9.0039 39.6939ZM14.9236 16.9019C15.0432 16.9419 15.103 16.9419 15.083 16.8939C15.083 16.8539 15.0233 16.8539 14.9236 16.9019ZM20.2653 3.99794C20.2254 4.04594 20.2453 4.04594 20.345 3.99794C20.345 3.94994 20.3051 3.94994 20.2653 3.99794ZM21.4811 4.20594C21.4412 4.25394 21.4612 4.25394 21.5608 4.20594C21.5608 4.16594 21.521 4.16594 21.4811 4.20594ZM22.8763 3.90194C22.7767 3.92594 22.5773 3.91794 22.2784 3.87794C22.3382 3.94194 22.4378 3.98194 22.5973 3.98994C22.7368 3.99794 22.8763 3.99794 22.976 3.99794C22.956 3.95794 22.9361 3.92594 22.8763 3.90194ZM30.4304 27.1019C30.4703 27.0699 30.5301 27.0379 30.6496 27.0139H30.4902C30.4902 26.9899 30.4902 26.9659 30.5101 26.9419C30.5301 26.9179 30.55 26.8939 30.55 26.8699C30.4902 26.8459 30.4703 26.8299 30.4503 26.8059C30.4503 26.7819 30.3905 26.7579 30.2709 26.7419L30.1115 26.8139L30.3706 26.8059C30.4304 26.8699 30.4703 26.9499 30.4503 27.0299C30.4304 27.0539 30.4304 27.0779 30.4304 27.1019ZM30.6297 25.7419C30.6297 25.6939 30.5699 25.6779 30.4503 25.6779L30.3706 25.7499C30.251 25.7099 30.2112 25.6699 30.2709 25.6459C30.251 25.5339 30.2709 25.4539 30.3108 25.4059H30.2311C30.1912 25.4779 30.1514 25.5499 30.1314 25.6299C30.1115 25.7099 30.1713 25.7739 30.2909 25.8139C30.2311 25.8379 30.1514 25.8539 30.0517 25.8539L30.3108 25.9499C30.2709 25.9979 30.2311 26.0459 30.251 26.0859C30.3706 26.1259 30.4105 26.1819 30.3706 26.2539C30.3307 26.3259 30.3507 26.3819 30.4703 26.4219C30.4503 26.3099 30.5301 26.2139 30.6895 26.1419L30.4304 26.1499L30.3905 25.9099C30.4902 25.8219 30.5699 25.7659 30.6297 25.7419ZM30.5101 27.2539C30.4503 27.2139 30.4105 27.1819 30.3905 27.1499C30.3706 27.1899 30.3507 27.2299 30.3307 27.2619C30.3307 27.3099 30.3706 27.3499 30.4304 27.3979C30.4902 27.4379 30.55 27.4859 30.6098 27.5339L30.3507 27.5419C30.3706 27.6699 30.4503 27.7339 30.6098 27.7419C30.5301 27.7499 30.4902 27.7739 30.5301 27.8139C30.5699 27.8619 30.55 27.9019 30.5101 27.9499C30.6895 27.9659 30.7493 27.9499 30.7094 27.8939C30.6696 27.8379 30.6496 27.7899 30.6496 27.7419C30.6696 27.7419 30.7094 27.7419 30.7294 27.7339C30.7294 27.5259 30.6496 27.3659 30.5101 27.2539ZM30.5301 28.4939C30.55 28.5659 30.4703 28.6219 30.3108 28.6699L30.6496 28.6619C30.6496 28.6699 30.6297 28.6699 30.6297 28.6779L30.849 28.6699C30.9287 28.6299 30.9287 28.6059 30.8888 28.5819C30.829 28.5579 30.7892 28.5259 30.7892 28.4779L30.5301 28.4939ZM31.4668 28.3979C31.3473 28.3579 31.2476 28.3259 31.1679 28.3179C31.0881 28.3099 30.9885 28.2939 30.8689 28.2779L30.8888 28.3819L31.1479 28.3739C31.1679 28.4379 31.1679 28.5179 31.1479 28.5979C31.1479 28.6219 31.1479 28.6459 31.1479 28.6699C31.2277 28.6779 31.3074 28.6779 31.3871 28.6939C31.427 28.6939 31.4469 28.7019 31.4668 28.7019C31.5266 28.6059 31.5466 28.5019 31.4668 28.3979ZM34.1377 39.5579C34.0779 39.6059 34.1178 39.6059 34.2174 39.5579C34.2174 39.5179 34.1975 39.5179 34.1377 39.5579ZM35.3137 39.7979C35.2539 39.8459 35.2937 39.8459 35.3934 39.7979C35.4133 39.7579 35.3734 39.7579 35.3137 39.7979ZM36.1707 39.4939C36.2305 39.5659 36.3302 39.6059 36.4697 39.6139C36.6092 39.6299 36.7288 39.6299 36.8484 39.6299C36.8484 39.5819 36.8085 39.5499 36.7687 39.5259C36.6491 39.5499 36.4498 39.5339 36.1707 39.4939ZM37.845 0.725941C37.845 0.813938 37.9247 0.829941 38.1041 0.757938C38.1041 0.669941 38.0243 0.661938 37.845 0.725941ZM38.1041 0.31794V0.42194C38.2635 0.46994 38.4429 0.46994 38.6024 0.42194L38.1041 0.31794ZM38.1838 0.797939C38.1838 0.84594 38.2037 0.861942 38.2635 0.84594C38.3233 0.83794 38.3433 0.813938 38.3433 0.797939C38.3433 0.749939 38.3233 0.73394 38.2635 0.749943C38.2037 0.757942 38.1838 0.773941 38.1838 0.797939ZM38.7818 0.31794C38.9013 0.36594 38.9811 0.405941 39.0409 0.453941C39.1605 0.405941 39.2003 0.36594 39.2003 0.31794H38.7818ZM38.6821 3.51794L38.702 3.62194L38.1041 3.63794C37.8649 3.59794 37.7254 3.56594 37.6656 3.54194C37.546 3.54194 37.5061 3.56594 37.5061 3.61394L37.6855 3.64594C37.5859 3.69394 37.5061 3.70994 37.4463 3.68594C37.1673 3.69394 36.968 3.68594 36.8484 3.66994V3.70194C37.0278 3.71794 37.2072 3.73394 37.4065 3.74194C37.6058 3.74994 37.7652 3.72594 37.8649 3.67794C37.9247 3.70194 37.9646 3.73394 37.9646 3.78194L38.2037 3.66994C38.3233 3.69394 38.423 3.70194 38.5426 3.69394C38.6422 3.64594 38.7818 3.62994 38.9611 3.64594C39.1405 3.66194 39.28 3.65394 39.3797 3.60594C39.0807 3.60594 38.8615 3.58194 38.6821 3.51794ZM40.1172 0.485939C39.9976 0.509941 39.8979 0.517941 39.7783 0.517941C39.7783 0.541943 39.7983 0.557941 39.8182 0.565941C39.8381 0.581944 39.8581 0.597939 39.8581 0.613941H40.1172V0.485939ZM42.8478 3.79794C42.8478 3.74994 42.8079 3.74994 42.7681 3.79794C42.7282 3.84594 42.7481 3.84594 42.8478 3.79794ZM40.7948 3.53394L40.8148 3.59794C40.755 3.59794 40.6952 3.59794 40.6354 3.58194C40.5756 3.57394 40.5158 3.56594 40.456 3.56594C40.3962 3.58994 40.3564 3.60594 40.2966 3.60594C40.2368 3.60594 40.1969 3.62994 40.1371 3.67794L40.3165 3.74194L40.2966 3.63794C40.456 3.61394 40.6354 3.59794 40.8347 3.60594C40.8945 3.60594 40.9344 3.61394 40.9942 3.61394C40.9144 3.61394 40.8546 3.58194 40.7948 3.53394ZM42.9475 3.50194C42.8079 3.51794 42.6884 3.52594 42.5887 3.52594C42.5887 3.51794 42.5887 3.50194 42.5688 3.49394C42.0705 3.50994 41.6718 3.54194 41.3928 3.58994C41.2931 3.61394 41.2134 3.62994 41.1337 3.63794C41.2333 3.64594 41.3131 3.65394 41.4127 3.66194C41.5323 3.66194 41.632 3.64594 41.7516 3.62194C41.8512 3.59794 41.9708 3.57394 42.0705 3.54194L42.0904 3.64594C42.4093 3.63794 42.5688 3.60594 42.5887 3.54194C42.6086 3.57394 42.6684 3.58994 42.7681 3.57394C42.8677 3.55794 42.9873 3.56594 43.1069 3.58194C43.1269 3.50994 43.0671 3.48594 42.9475 3.50194ZM44.4224 3.58194C44.5819 3.57394 44.7413 3.60594 44.8609 3.67794L44.841 3.54194C44.9606 3.56594 45.0801 3.57394 45.1798 3.56594C45.2994 3.56594 45.3991 3.57394 45.5186 3.58994L45.4987 3.48594L45.6781 3.54994C45.7379 3.52594 45.8575 3.48594 46.0767 3.43794C45.9571 3.43794 45.8575 3.44594 45.7778 3.46194C45.698 3.47794 45.5984 3.48594 45.4788 3.48594C45.419 3.46194 45.3791 3.44594 45.3791 3.43794C45.3791 3.42994 45.3393 3.41394 45.2795 3.38994C45.2197 3.38994 45.0801 3.41394 44.8609 3.46994C44.7413 3.42994 44.6616 3.42194 44.6018 3.44594C44.542 3.46994 44.4623 3.48594 44.3626 3.48594L44.4224 3.58194ZM45.8176 3.19794C45.5386 3.25394 45.2795 3.25394 45.0204 3.21394C44.7612 3.17394 44.5021 3.16594 44.2231 3.19794C44.1234 3.24594 44.0636 3.28594 44.0238 3.32594C44.0038 3.35794 43.964 3.39794 43.9241 3.44594L44.1832 3.43794L44.1633 3.33394C44.3227 3.32594 44.5221 3.32594 44.7214 3.33394C44.9207 3.34194 45.1001 3.31794 45.2595 3.26994C45.4788 3.28594 45.7379 3.30194 45.9771 3.30194C46.2362 3.30994 46.4355 3.27794 46.595 3.19794C46.4554 3.14994 46.1963 3.14194 45.8176 3.19794ZM46.6348 39.4939C46.575 39.5179 46.5152 39.5339 46.4754 39.5419C46.4156 39.5499 46.3558 39.5739 46.3159 39.5899L45.8176 39.4859C45.7578 39.5099 45.698 39.5259 45.6582 39.5339C45.5984 39.5419 45.5386 39.5659 45.4788 39.5819C45.5984 39.6059 45.698 39.6139 45.8176 39.6139C45.9372 39.6139 46.0369 39.6379 46.1565 39.6859L46.6547 39.5819V39.4939H46.6348ZM47.9702 39.6299C47.9702 39.6059 47.9104 39.5499 47.8108 39.4619C47.6912 39.5099 47.5915 39.5419 47.4719 39.5659C47.6912 39.6059 47.8706 39.6299 47.9702 39.6299ZM47.8108 3.33394C47.8307 3.30994 47.8905 3.27794 48.0101 3.22994C47.6713 3.28594 47.4919 3.30994 47.4321 3.30994L47.4122 3.24594C47.3125 3.26994 47.1929 3.30994 47.0932 3.35794L47.3524 3.34994L47.3723 3.48594C47.5915 3.43794 47.751 3.45394 47.8905 3.54194C47.9503 3.51794 47.9902 3.50194 48.0101 3.50194C48.03 3.50194 48.0699 3.48594 48.1297 3.46194C48.0101 3.43794 47.9304 3.42994 47.8706 3.42994C47.8108 3.42994 47.7311 3.42194 47.6115 3.40594C47.7311 3.38194 47.7908 3.35794 47.8108 3.33394ZM51.5181 39.3899V39.4939C51.3586 39.4939 51.1593 39.4859 50.96 39.4779C50.7607 39.4699 50.5813 39.4859 50.4019 39.5259C50.1826 39.5019 49.9435 39.4859 49.6844 39.4779C49.4252 39.4699 49.2259 39.4939 49.0465 39.5659C49.1661 39.6299 49.4053 39.6459 49.8039 39.5979C50.083 39.5499 50.362 39.5499 50.6012 39.5979C50.8603 39.6459 51.1194 39.6539 51.3985 39.6299C51.5181 39.5819 51.5779 39.5419 51.6177 39.5099C51.6377 39.4779 51.6775 39.4379 51.7373 39.3899H51.5181ZM53.9697 39.1819C54.2487 39.1819 54.448 39.1499 54.5676 39.0779C54.5078 39.1019 54.4082 39.1099 54.2288 39.1099V39.0379H53.9697L54.0494 39.1099C53.9896 39.1179 53.9697 39.1419 53.9697 39.1819ZM51.9366 39.3899C51.9366 39.4779 51.9566 39.5499 52.0164 39.5979C52.1359 39.5739 52.1957 39.5579 52.2356 39.5499C52.2555 39.5419 52.3353 39.5179 52.4548 39.5019C52.5146 39.4539 52.4748 39.4299 52.3353 39.4299C52.1758 39.4219 52.0562 39.4139 51.9366 39.3899ZM52.5346 38.8059C52.4748 38.7819 52.4349 38.7579 52.415 38.7339C52.3751 38.7099 52.3153 38.6859 52.1957 38.6619V38.8379C52.3153 38.8379 52.415 38.8299 52.5346 38.8059ZM52.415 36.7979C52.415 36.7499 52.415 36.7019 52.4349 36.6459C52.4549 36.5899 52.4548 36.5339 52.4548 36.4939C52.3951 36.4939 52.3552 36.5019 52.3353 36.5179C52.3153 36.5339 52.2755 36.5339 52.2157 36.5419C52.2157 36.5899 52.2157 36.6219 52.1957 36.6459C52.1758 36.6699 52.1559 36.7019 52.1758 36.7499C52.3153 36.8859 52.3751 36.9979 52.3951 37.0859L52.5545 37.0459C52.5545 37.0699 52.5744 37.0859 52.5944 37.0939C52.6342 37.1019 52.6342 37.1179 52.6542 37.1419C52.714 37.1419 52.7538 37.1259 52.8136 37.1019C52.7538 37.0779 52.714 37.0619 52.6741 37.0379C52.6342 37.0139 52.5944 36.9979 52.5346 36.9739C52.6143 36.8699 52.6741 36.8139 52.6542 36.7899L52.415 36.7979ZM53.4514 0.349941V0.21394C53.3318 0.237942 53.2322 0.26194 53.1126 0.301941C52.993 0.333939 52.8933 0.36594 52.7738 0.389942C53.0528 0.389942 53.3717 0.41394 53.7105 0.461941C53.7105 0.437943 53.6906 0.42194 53.6707 0.41394C53.6308 0.405941 53.6308 0.381943 53.6308 0.36594C53.7504 0.317944 53.7903 0.285942 53.7903 0.26194C53.7305 0.253941 53.6308 0.285942 53.4514 0.349941ZM53.591 39.0619C53.5112 39.0299 53.4714 38.9899 53.4714 38.9419C53.4714 38.8699 53.3318 38.8139 53.0528 38.7739C52.9332 38.8619 52.8734 38.9259 52.8734 38.9419C52.9332 38.9659 53.0727 38.9739 53.292 38.9739C53.292 38.9979 53.272 39.0139 53.2521 39.0219C53.2322 39.0379 53.2123 39.0539 53.2123 39.0699C53.3318 39.0939 53.4315 39.1179 53.5511 39.1419C53.6707 39.1659 53.7703 39.1739 53.8899 39.1739C53.7703 39.1339 53.6707 39.0939 53.591 39.0619ZM54.3085 0.453941C54.3085 0.405941 54.2886 0.381943 54.2686 0.36594C54.2288 0.357941 54.2288 0.333942 54.2288 0.31794C54.169 0.31794 54.1291 0.30994 54.1092 0.301941C54.0693 0.293941 54.0294 0.285938 53.9896 0.285938C54.1092 0.42194 54.169 0.517941 54.169 0.557941C54.2686 0.533939 54.3882 0.501942 54.4879 0.453941C54.4081 0.453941 54.3683 0.453941 54.3085 0.453941ZM54.4679 0.461941C54.5277 0.52594 54.6274 0.57394 54.8068 0.597939C54.8068 0.57394 54.8267 0.557941 54.8466 0.549942C54.8666 0.541943 54.8865 0.517941 54.8865 0.501942C54.8466 0.46994 54.6872 0.461941 54.4679 0.461941ZM55.0659 39.3899C55.0659 39.4139 55.0858 39.4219 55.1456 39.4219L55.6439 39.3179L55.4845 39.2459C55.4845 39.2699 55.4247 39.2779 55.3051 39.2779L55.1456 39.2459C55.1456 39.2699 55.1257 39.2939 55.1058 39.3179C55.0858 39.3419 55.0659 39.3659 55.0659 39.3899ZM55.2253 0.52594C55.1656 0.549938 55.1456 0.58194 55.1456 0.62994L55.4845 0.701939C55.4845 0.653942 55.5044 0.62994 55.5243 0.613941C55.5443 0.605942 55.5642 0.589943 55.5642 0.565941C55.4047 0.557941 55.2851 0.549938 55.2253 0.52594ZM55.8233 25.1979C55.604 25.2379 55.4645 25.3099 55.4446 25.4139C55.4247 25.5259 55.4845 25.5899 55.6439 25.6219C55.8831 25.5819 56.0625 25.5019 56.202 25.3739C56.3415 25.2459 56.2219 25.1899 55.8233 25.1979ZM58.9526 39.7819C58.8928 39.8139 58.9326 39.8219 59.0323 39.7979C59.0323 39.7579 58.9924 39.7499 58.9526 39.7819ZM60.5471 2.62194C60.5471 2.64594 60.587 2.66194 60.6268 2.66994C60.6069 2.67794 60.587 2.67794 60.567 2.69394C60.4674 2.74194 60.5072 2.76594 60.7065 2.75794C60.9059 2.74994 60.9457 2.72594 60.8261 2.68594C60.7863 2.67794 60.7663 2.67794 60.7464 2.66994C60.8461 2.65394 60.9059 2.62994 60.9059 2.58194C60.7265 2.58194 60.6069 2.59794 60.5471 2.62194ZM61.4042 20.2299C61.2248 20.1979 61.0852 20.2059 60.9856 20.2459C60.9657 20.2139 60.9856 20.1819 60.9059 20.1499C60.7265 19.9659 60.5072 19.9819 60.268 20.2059C60.0289 20.4299 60.1485 20.5099 60.6069 20.4379C60.7265 20.4219 60.7663 20.3899 60.8261 20.3739C60.7863 20.5099 60.9059 20.6059 61.2248 20.6619C61.4241 20.4699 61.4839 20.3259 61.4042 20.2299ZM62.2811 0.885941C62.2014 0.877941 62.0818 0.853943 61.9622 0.83794C61.9622 0.757942 61.9423 0.67794 61.9224 0.597939C61.8825 0.605938 61.8227 0.621941 61.7829 0.62994C61.7231 0.653942 61.6433 0.67794 61.5237 0.701939V0.869938C61.7031 0.89394 61.8227 0.957943 61.9423 1.07794C61.9622 1.06994 61.9822 1.06194 61.9822 1.05394C61.9822 1.02194 62.0021 0.99794 62.022 0.973942H62.1217C62.2014 0.94194 62.2612 0.909939 62.2811 0.885941C62.3011 0.885941 62.3011 0.885941 62.2811 0.885941ZM65.0118 2.47794C64.8922 2.47794 64.8723 2.50194 64.9321 2.54994C64.9919 2.57394 65.0516 2.57394 65.1513 2.55794C65.231 2.54194 65.2709 2.52594 65.2709 2.50194C65.2111 2.48594 65.1314 2.47794 65.0118 2.47794ZM69.1775 39.1499C69.0579 39.1739 68.9981 39.1979 68.9582 39.2219C68.9383 39.2459 68.8984 39.2699 68.8387 39.2939C68.9582 39.3179 69.0579 39.3259 69.1775 39.3259V39.1499ZM85.5414 37.0619C85.4816 37.0379 85.4218 37.0379 85.3221 37.0539C85.2424 37.0699 85.2025 37.0859 85.2025 37.1099C85.2623 37.1339 85.342 37.1419 85.4616 37.1419C85.5812 37.1339 85.6012 37.1099 85.5414 37.0619ZM89.9263 36.9899C89.9263 36.9659 89.8865 36.9499 89.8466 36.9419C89.8665 36.9339 89.8865 36.9339 89.9064 36.9179C90.006 36.8699 89.9662 36.8459 89.7669 36.8539C89.5675 36.8619 89.5277 36.8859 89.6473 36.9259C89.7071 36.9419 89.727 36.9419 89.7469 36.9499C89.6473 36.9659 89.5875 36.9899 89.5875 37.0379C89.7669 37.0299 89.8665 37.0139 89.9263 36.9899ZM89.8865 19.1739C89.7669 19.1899 89.727 19.2219 89.6672 19.2379C89.7071 19.1019 89.5875 19.0059 89.2686 18.9499C89.0693 19.1419 89.0095 19.2859 89.1091 19.3739C89.2885 19.4059 89.428 19.3979 89.5277 19.3579C89.5476 19.3899 89.5277 19.4219 89.6074 19.4539C89.7868 19.6379 90.006 19.6219 90.2452 19.3979C90.4445 19.1819 90.3449 19.1019 89.8865 19.1739ZM94.8295 13.9899C94.5903 14.0299 94.4109 14.1099 94.2714 14.2379C94.1319 14.3659 94.2515 14.4219 94.6501 14.4139C94.8694 14.3739 95.0089 14.3019 95.0288 14.1979C95.0487 14.0859 94.989 14.0219 94.8295 13.9899ZM96.0453 39.2539C96.0453 39.3019 96.0254 39.3259 96.0055 39.3419C95.9855 39.3499 95.9656 39.3659 95.9656 39.3899C96.1251 39.3899 96.2446 39.3979 96.3044 39.4219C96.3642 39.3979 96.3842 39.3659 96.3842 39.3179L96.0453 39.2539ZM97.4007 39.3899C97.301 39.4139 97.1814 39.4459 97.0818 39.4939C97.0818 39.4939 97.0818 39.4939 97.0618 39.4939C97.002 39.4299 96.9024 39.3819 96.723 39.3579C96.723 39.3819 96.7031 39.3979 96.6831 39.4059C96.6632 39.4139 96.6433 39.4379 96.6433 39.4539C96.6831 39.4699 96.8426 39.4779 97.0618 39.4859C97.0618 39.4859 97.0618 39.4859 97.0818 39.4859C97.1416 39.4859 97.1814 39.4859 97.2412 39.4859C97.2412 39.5339 97.2612 39.5579 97.2811 39.5739C97.3209 39.5819 97.321 39.6059 97.321 39.6219C97.3807 39.6219 97.4206 39.6299 97.4405 39.6379C97.4804 39.6459 97.5203 39.6539 97.5601 39.6539C97.4605 39.5339 97.4007 39.4379 97.4007 39.3899ZM98.1182 2.54194L97.9588 2.58194C97.9588 2.55794 97.9388 2.54194 97.9189 2.53394C97.899 2.52594 97.879 2.50994 97.879 2.48594C97.8192 2.48594 97.7794 2.50194 97.7196 2.52594C97.7794 2.54994 97.8192 2.56594 97.8591 2.58994C97.899 2.61394 97.9388 2.62994 97.9986 2.65394C97.899 2.74994 97.8591 2.80594 97.8591 2.82994L98.1182 2.82194C98.1182 2.86994 98.1182 2.91794 98.0983 2.97394C98.0784 3.02994 98.0783 3.08594 98.0783 3.12594C98.1381 3.12594 98.178 3.11794 98.1979 3.10194C98.2179 3.08594 98.2577 3.08594 98.3175 3.07794C98.3175 3.02994 98.3175 2.99794 98.3375 2.97394C98.3574 2.94994 98.3773 2.91794 98.3574 2.86994C98.1979 2.74994 98.1381 2.63794 98.1182 2.54194ZM97.8192 39.4939C97.8192 39.5179 97.8392 39.5339 97.8591 39.5419C97.899 39.5499 97.899 39.5739 97.899 39.5899C97.7794 39.6379 97.7196 39.6699 97.7196 39.6939C97.7794 39.6939 97.879 39.6619 98.0584 39.5899V39.7339C98.178 39.7099 98.2777 39.6859 98.3973 39.6459C98.5168 39.6139 98.6165 39.5819 98.7361 39.5579C98.477 39.5659 98.1581 39.5419 97.8192 39.4939ZM103.141 36.2699L103.121 36.1339C102.902 36.1819 102.742 36.1659 102.603 36.0779C102.543 36.1019 102.503 36.1179 102.483 36.1179C102.463 36.1179 102.423 36.1339 102.364 36.1579C102.483 36.1819 102.563 36.1899 102.623 36.1899C102.683 36.1899 102.762 36.1979 102.882 36.2139C102.782 36.2379 102.702 36.2619 102.683 36.2859C102.663 36.3099 102.603 36.3419 102.483 36.3899C102.822 36.3339 103.001 36.3099 103.061 36.3099L103.081 36.3739C103.181 36.3499 103.3 36.3099 103.4 36.2619L103.141 36.2699ZM105.054 0.30994C105.114 0.277943 105.074 0.269943 104.975 0.293941C104.975 0.341942 104.995 0.349941 105.054 0.30994ZM106.051 36.0299C105.892 36.0379 105.732 36.0059 105.613 35.9339L105.632 36.0699C105.513 36.0459 105.393 36.0379 105.294 36.0459C105.174 36.0459 105.074 36.0379 104.955 36.0219L104.975 36.1259L104.795 36.0619C104.736 36.0859 104.616 36.1259 104.397 36.1739C104.516 36.1739 104.616 36.1659 104.696 36.1499C104.775 36.1339 104.875 36.1259 104.995 36.1259C105.054 36.1499 105.094 36.1659 105.094 36.1739C105.094 36.1819 105.134 36.1979 105.194 36.2219C105.254 36.2219 105.393 36.1979 105.613 36.1419C105.732 36.1819 105.812 36.1899 105.872 36.1659C105.931 36.1419 106.011 36.1259 106.111 36.1259L106.051 36.0299ZM106.33 36.1739L106.35 36.2779C106.191 36.2779 105.991 36.2859 105.792 36.2779C105.593 36.2699 105.413 36.2939 105.254 36.3419C105.034 36.3259 104.775 36.3099 104.536 36.3099C104.277 36.3019 104.078 36.3339 103.918 36.4139C104.038 36.4779 104.297 36.4859 104.676 36.4299C104.955 36.3739 105.214 36.3739 105.473 36.4139C105.732 36.4539 105.991 36.4619 106.27 36.4299C106.37 36.3819 106.43 36.3419 106.47 36.3019C106.49 36.2699 106.529 36.2299 106.569 36.1819L106.33 36.1739ZM113.426 39.6379V39.5339C113.266 39.4859 113.087 39.4859 112.927 39.5339L113.426 39.6379ZM113.466 39.2539V39.1819C113.446 39.1819 113.446 39.1899 113.446 39.1899C113.426 39.2219 113.446 39.2379 113.466 39.2539ZM113.346 39.1579C113.346 39.1099 113.326 39.0939 113.266 39.1099C113.206 39.1179 113.187 39.1419 113.187 39.1579C113.187 39.2059 113.206 39.2219 113.266 39.2059C113.326 39.1899 113.346 39.1739 113.346 39.1579ZM112.768 39.6379C112.648 39.5899 112.569 39.5499 112.509 39.5019C112.389 39.5499 112.349 39.5899 112.349 39.6379H112.768ZM111.413 39.4619C111.532 39.4379 111.632 39.4299 111.751 39.4299C111.751 39.4059 111.732 39.3899 111.712 39.3819C111.692 39.3659 111.672 39.3499 111.672 39.3339H111.413V39.4619ZM109.698 36.0779L109.679 36.0059C109.738 36.0059 109.798 36.0059 109.858 36.0219C109.918 36.0299 109.978 36.0379 110.037 36.0379C110.097 36.0139 110.137 35.9979 110.197 35.9979C110.257 35.9979 110.296 35.9739 110.356 35.9259L110.177 35.8619L110.197 35.9659C110.017 35.9899 109.838 36.0059 109.639 35.9979C109.579 35.9979 109.539 35.9899 109.479 35.9899C109.559 35.9979 109.639 36.0299 109.698 36.0779ZM108.622 39.5979C108.622 39.5499 108.582 39.5499 108.542 39.5979C108.483 39.6459 108.523 39.6459 108.622 39.5979ZM107.626 35.8219C107.626 35.8699 107.665 35.8699 107.705 35.8219C107.765 35.7739 107.745 35.7739 107.626 35.8219ZM108.861 0.669941L108.363 0.773941L108.523 0.84594C108.523 0.821941 108.582 0.813938 108.702 0.813938L108.861 0.84594C108.861 0.821941 108.881 0.797939 108.901 0.773941C108.941 0.749939 108.941 0.725941 108.941 0.701939C108.941 0.68594 108.901 0.669941 108.861 0.669941ZM109.081 35.9579C108.961 35.9579 108.861 35.9739 108.742 35.9979C108.642 36.0219 108.523 36.0459 108.423 36.0779L108.403 35.9739C108.084 35.9819 107.925 36.0139 107.905 36.0779C107.885 36.0459 107.825 36.0299 107.725 36.0459C107.626 36.0619 107.506 36.0539 107.386 36.0379C107.347 36.1099 107.386 36.1339 107.526 36.1179C107.665 36.1019 107.785 36.0939 107.885 36.0939C107.885 36.1019 107.885 36.1179 107.905 36.1259C108.403 36.1099 108.802 36.0779 109.081 36.0299C109.18 36.0059 109.26 35.9899 109.34 35.9819C109.26 35.9739 109.18 35.9659 109.081 35.9579ZM110.037 0.909943C109.758 0.909943 109.559 0.94194 109.439 1.01394C109.499 0.989941 109.599 0.981941 109.778 0.981941V1.05394H110.037L109.958 0.981941C109.997 0.981941 110.037 0.957943 110.037 0.909943ZM110.755 1.06194C110.775 1.04594 110.795 1.02994 110.795 1.01394C110.675 0.989941 110.575 0.965939 110.456 0.94194C110.336 0.917938 110.237 0.909943 110.117 0.909943C110.237 0.957943 110.336 0.99794 110.416 1.02994C110.496 1.06194 110.536 1.10194 110.536 1.14994C110.536 1.22194 110.675 1.27794 110.954 1.31794C111.074 1.22994 111.134 1.16594 111.134 1.14994C111.074 1.12594 110.934 1.11794 110.715 1.11794C110.715 1.09394 110.715 1.07794 110.755 1.06194ZM111.114 36.0139C111.393 36.0059 111.632 36.0379 111.811 36.1019L111.791 35.9979L112.389 35.9819C112.628 36.0219 112.768 36.0539 112.828 36.0779C112.947 36.0779 112.987 36.0539 112.987 36.0059L112.808 35.9739C112.907 35.9259 112.987 35.9099 113.047 35.9339C113.326 35.9259 113.525 35.9339 113.645 35.9499V35.9179C113.466 35.9019 113.286 35.8859 113.087 35.8779C112.888 35.8699 112.728 35.8939 112.628 35.9419C112.569 35.9179 112.529 35.8859 112.529 35.8379L112.29 35.9499C112.17 35.9259 112.07 35.9179 111.951 35.9259C111.851 35.9739 111.712 35.9899 111.532 35.9659C111.373 35.9499 111.233 35.9659 111.114 36.0139ZM111.592 1.35794C111.632 1.38194 111.692 1.40594 111.811 1.42994V1.26194C111.692 1.26194 111.592 1.26994 111.472 1.29394C111.532 1.30994 111.572 1.33394 111.592 1.35794ZM111.971 0.501942C111.851 0.52594 111.791 0.541943 111.751 0.549942C111.732 0.557941 111.652 0.58194 111.532 0.597939C111.472 0.645939 111.512 0.669941 111.652 0.669941C111.791 0.669941 111.911 0.67794 112.03 0.701939C112.05 0.613941 112.03 0.549942 111.971 0.501942ZM114.163 0.501942C113.884 0.549942 113.605 0.549942 113.366 0.501942C113.107 0.453941 112.848 0.445938 112.569 0.46994C112.449 0.517941 112.389 0.557941 112.349 0.589939C112.329 0.621941 112.29 0.661942 112.23 0.709942H112.489V0.605942C112.668 0.605942 112.848 0.613941 113.047 0.621941C113.246 0.62994 113.426 0.613941 113.605 0.57394C113.824 0.597942 114.064 0.613941 114.323 0.621941C114.582 0.62994 114.781 0.605942 114.96 0.533939C114.821 0.461941 114.562 0.453941 114.163 0.501942ZM116.017 0.461941C116.017 0.485943 116.077 0.541939 116.196 0.62994C116.316 0.58194 116.415 0.549938 116.535 0.52594C116.316 0.485939 116.136 0.461941 116.017 0.461941ZM118.209 0.461941C118.09 0.461941 117.99 0.437943 117.87 0.389942L117.372 0.493942V0.597939C117.432 0.57394 117.492 0.557941 117.552 0.549942C117.611 0.541943 117.671 0.517941 117.711 0.501942L118.209 0.605942C118.269 0.58194 118.329 0.565941 118.369 0.557941C118.429 0.549942 118.488 0.525944 118.548 0.509941C118.448 0.477943 118.329 0.461941 118.209 0.461941ZM120.103 12.0779C120.083 11.9499 120.003 11.8859 119.844 11.8779C119.923 11.8699 119.963 11.8459 119.923 11.8059C119.884 11.7579 119.903 11.7179 119.943 11.6699C119.764 11.6539 119.704 11.6699 119.744 11.7259C119.784 11.7819 119.804 11.8299 119.804 11.8779C119.784 11.8779 119.744 11.8779 119.724 11.8859C119.744 12.0939 119.824 12.2539 119.963 12.3579C120.023 12.3979 120.063 12.4299 120.083 12.4619C120.103 12.4219 120.123 12.3819 120.143 12.3499C120.143 12.3019 120.103 12.2619 120.043 12.2139C119.983 12.1739 119.923 12.1259 119.864 12.0779H120.103ZM119.365 10.9419C119.286 10.9419 119.206 10.9339 119.126 10.9179C119.086 10.9179 119.066 10.9099 119.046 10.9099C118.967 11.0059 118.967 11.1099 119.026 11.2139C119.146 11.2539 119.246 11.2859 119.325 11.2939C119.405 11.3019 119.505 11.3179 119.624 11.3339L119.605 11.2299L119.345 11.2379C119.325 11.1739 119.325 11.0939 119.345 11.0139C119.365 10.9899 119.365 10.9659 119.365 10.9419ZM119.844 10.9499C119.844 10.9419 119.864 10.9419 119.864 10.9339L119.644 10.9419C119.565 10.9819 119.565 11.0059 119.605 11.0299C119.664 11.0539 119.704 11.0859 119.704 11.1339L119.963 11.1259C119.943 11.0539 120.023 10.9979 120.183 10.9499H119.844ZM120.123 12.7979C120.063 12.7339 120.023 12.6539 120.043 12.5739C120.043 12.5499 120.063 12.5259 120.063 12.5099C120.023 12.5419 119.963 12.5739 119.844 12.5979L120.003 12.5899C120.003 12.6139 120.003 12.6379 119.983 12.6619C119.963 12.6859 119.943 12.7099 119.943 12.7339C120.003 12.7579 120.023 12.7739 120.043 12.7979C120.043 12.8219 120.103 12.8459 120.222 12.8619L120.382 12.7899L120.123 12.7979ZM120.163 13.6619C120.202 13.6139 120.242 13.5659 120.222 13.5259C120.103 13.4859 120.063 13.4299 120.103 13.3579C120.143 13.2859 120.123 13.2299 120.003 13.1899C120.023 13.3019 119.943 13.3979 119.784 13.4699L120.043 13.4619L120.083 13.7019C119.983 13.7979 119.903 13.8539 119.864 13.8779C119.864 13.9259 119.923 13.9419 120.043 13.9419L120.123 13.8699C120.242 13.9099 120.282 13.9499 120.222 13.9739C120.242 14.0859 120.222 14.1659 120.183 14.2139H120.262C120.302 14.1419 120.342 14.0699 120.362 13.9899C120.382 13.9099 120.322 13.8459 120.202 13.8059C120.262 13.7819 120.342 13.7659 120.442 13.7659L120.163 13.6619ZM125.385 39.5899C125.265 39.5899 125.185 39.5979 125.126 39.6219C125.126 39.6459 125.165 39.6619 125.245 39.6699C125.325 39.6779 125.405 39.6779 125.464 39.6539C125.524 39.6139 125.504 39.5899 125.385 39.5899ZM127.537 0.485939C127.398 0.46994 127.278 0.46994 127.159 0.46994C127.159 0.517941 127.198 0.549942 127.238 0.57394C127.358 0.549942 127.557 0.557941 127.836 0.605942C127.776 0.533943 127.677 0.493938 127.537 0.485939ZM127.896 35.6219C127.757 35.6139 127.617 35.6139 127.517 35.6139C127.517 35.6619 127.557 35.6939 127.617 35.7179C127.717 35.6939 127.916 35.7019 128.215 35.7419C128.135 35.6619 128.036 35.6299 127.896 35.6219ZM128.594 0.293941C128.594 0.341942 128.634 0.341942 128.673 0.293941C128.733 0.245941 128.713 0.245941 128.594 0.293941ZM128.913 35.4059C128.913 35.4539 128.952 35.4539 128.992 35.4059C129.052 35.3579 129.032 35.3579 128.913 35.4059ZM129.77 0.533939C129.77 0.58194 129.809 0.58194 129.849 0.533939C129.929 0.485943 129.889 0.485943 129.77 0.533939ZM129.849 39.6939C129.829 39.6779 129.809 39.6779 129.79 39.6699C129.829 39.6619 129.849 39.6459 129.849 39.6219C129.79 39.5979 129.69 39.5899 129.511 39.5899C129.511 39.6379 129.57 39.6619 129.67 39.6699C129.65 39.6779 129.63 39.6779 129.59 39.6859C129.471 39.7339 129.53 39.7579 129.71 39.7579C129.929 39.7579 129.969 39.7419 129.849 39.6939ZM130.128 35.6219C130.128 35.6699 130.168 35.6699 130.208 35.6219C130.268 35.5659 130.248 35.5659 130.128 35.6219ZM133.437 39.6779C133.298 39.6619 133.138 39.6619 132.979 39.6619V39.7579C133.098 39.7579 133.178 39.7659 133.238 39.7739C133.298 39.7819 133.377 39.7899 133.497 39.7899C133.616 39.7659 133.676 39.7419 133.716 39.7179C133.756 39.6939 133.796 39.6699 133.836 39.6459C133.716 39.6779 133.577 39.6859 133.437 39.6779ZM133.995 39.6939V39.7979H134.493L133.995 39.6939ZM135.41 22.7179C135.41 22.7659 135.47 22.7579 135.57 22.7099C135.45 22.6699 135.39 22.6699 135.41 22.7179ZM143.423 0.197941C143.144 0.245941 142.865 0.245941 142.626 0.197941C142.366 0.14994 142.107 0.141941 141.828 0.165943C141.709 0.213943 141.649 0.253941 141.609 0.285938C141.589 0.31794 141.549 0.357941 141.489 0.405941H141.749V0.301941C141.908 0.301941 142.107 0.30994 142.307 0.31794C142.506 0.325939 142.685 0.30994 142.865 0.269939C143.084 0.293941 143.323 0.30994 143.582 0.31794C143.682 0.31794 143.742 0.317944 143.821 0.30994V0.181942C143.702 0.181942 143.582 0.181938 143.423 0.197941ZM143.702 34.9579C143.423 35.0139 143.164 35.0139 142.905 34.9739C142.645 34.9339 142.386 34.9259 142.107 34.9579C142.008 35.0059 141.948 35.0459 141.908 35.0859C141.888 35.1179 141.848 35.1579 141.808 35.2059L142.067 35.1979L142.048 35.0939C142.207 35.0859 142.406 35.0859 142.606 35.0939C142.805 35.1019 142.984 35.0779 143.144 35.0299C143.363 35.0459 143.622 35.0619 143.861 35.0619C144.12 35.0699 144.32 35.0379 144.479 34.9579C144.36 34.9099 144.1 34.9019 143.702 34.9579ZM149.602 27.3259C149.542 27.3499 149.502 27.3659 149.442 27.3819C149.382 27.3979 149.342 27.4139 149.283 27.4379C149.044 27.3979 148.904 27.3819 148.844 27.3819L148.864 27.4859C148.745 27.4859 148.625 27.4859 148.485 27.4779C148.346 27.4699 148.226 27.4699 148.107 27.4699C148.107 27.4939 148.127 27.5099 148.147 27.5179C148.186 27.5259 148.186 27.5419 148.206 27.5659C148.326 27.5659 148.406 27.5659 148.466 27.5739C148.525 27.5819 148.605 27.5899 148.725 27.5819C149.063 27.5259 149.342 27.5019 149.562 27.4939L149.462 27.4299C149.522 27.4299 149.562 27.4219 149.582 27.4139C149.602 27.3979 149.641 27.3979 149.701 27.3899C149.701 27.3659 149.661 27.3499 149.602 27.3259ZM149.661 32.1019C149.622 32.0939 149.622 32.0779 149.602 32.0539C149.482 32.0539 149.402 32.0539 149.342 32.0459C149.283 32.0379 149.203 32.0299 149.083 32.0379C148.745 32.0939 148.466 32.1179 148.246 32.1259L148.346 32.1899C148.286 32.1899 148.246 32.1979 148.226 32.2059C148.206 32.2219 148.167 32.2219 148.107 32.2299C148.107 32.2539 148.147 32.2779 148.206 32.2939C148.266 32.2699 148.306 32.2539 148.366 32.2379C148.426 32.2219 148.465 32.2059 148.525 32.1819C148.764 32.2219 148.904 32.2379 148.964 32.2379L148.944 32.1339C149.063 32.1339 149.183 32.1339 149.323 32.1419C149.462 32.1499 149.582 32.1499 149.701 32.1499C149.701 32.1339 149.681 32.1179 149.661 32.1019ZM152.233 32.6539C152.173 32.6619 152.133 32.6699 152.073 32.6699C152.053 32.6699 152.053 32.6779 152.033 32.6779C151.973 32.6939 151.914 32.7179 151.854 32.7659H152.272C152.292 32.7339 152.272 32.6939 152.233 32.6539ZM154.505 20.3419C154.545 20.2859 154.545 20.2299 154.545 20.1899C154.425 20.1899 154.345 20.2059 154.286 20.2219C154.345 20.2699 154.325 20.3499 154.206 20.4619C154.385 20.4379 154.465 20.3979 154.505 20.3419ZM154.385 21.2859C154.505 21.3099 154.505 21.2939 154.385 21.2539C154.266 21.2539 154.266 21.2619 154.385 21.2859ZM154.226 34.5019C154.226 34.4939 154.246 34.4859 154.246 34.4779C154.206 34.4779 154.146 34.4859 154.066 34.5019H154.226ZM154.046 36.3179C154.166 36.3419 154.166 36.3259 154.046 36.2859C153.947 36.2859 153.947 36.2939 154.046 36.3179ZM153.648 33.0379H153.907C153.907 33.1099 153.887 33.1819 153.867 33.2619C153.847 33.3419 153.887 33.4139 153.987 33.4859C153.927 33.5739 153.887 33.6779 153.867 33.7739C153.847 33.8779 153.907 33.9659 154.086 34.0299C154.246 33.9819 154.286 33.8779 154.166 33.7179C154.046 33.6059 154.046 33.4939 154.166 33.3899C154.286 33.2859 154.305 33.1819 154.246 33.0619C154.126 33.0139 154.026 32.9899 153.947 32.9739C153.867 32.9659 153.767 32.9499 153.648 32.9259V33.0379ZM153.648 32.8699C153.867 32.8699 154.046 32.8619 154.146 32.8379C154.086 32.7899 154.046 32.7659 154.026 32.7499C154.007 32.7419 154.007 32.7339 153.987 32.7259C153.907 32.7259 153.827 32.7259 153.727 32.7339C153.708 32.7819 153.688 32.8299 153.648 32.8699ZM154.266 14.1819C154.266 14.1819 154.286 14.1819 154.286 14.1899C154.286 14.1819 154.266 14.1819 154.266 14.1819ZM154.305 14.2299C154.266 14.2139 154.226 14.1899 154.186 14.1579C154.126 14.1499 154.066 14.1339 153.987 14.1259H153.947V14.2219H154.206C154.206 14.2699 154.186 14.3179 154.186 14.3659C154.305 14.3499 154.405 14.3339 154.485 14.3339C154.425 14.2939 154.365 14.2539 154.305 14.2299ZM154.465 14.5819C154.505 14.5499 154.505 14.5179 154.525 14.4939C154.485 14.5019 154.445 14.5099 154.405 14.5099C154.305 14.4939 154.246 14.4779 154.166 14.4619C154.146 14.5419 154.186 14.6059 154.286 14.6779C154.226 14.7659 154.186 14.8699 154.166 14.9659C154.146 15.0699 154.206 15.1579 154.385 15.2219C154.545 15.1739 154.585 15.0699 154.465 14.9099C154.345 14.7979 154.345 14.6859 154.465 14.5819ZM154.126 15.7339C154.246 15.7819 154.325 15.8219 154.385 15.8699C154.505 15.7819 154.545 15.7099 154.545 15.6619C154.485 15.6619 154.345 15.6859 154.126 15.7339ZM154.465 16.2139H154.206C154.266 16.2379 154.305 16.2619 154.325 16.2859C154.345 16.3099 154.405 16.3339 154.445 16.3579L154.186 16.5659C154.246 16.5899 154.286 16.6139 154.305 16.6379C154.325 16.6619 154.385 16.6859 154.425 16.7099C154.485 16.6619 154.505 16.6219 154.505 16.5739C154.505 16.5259 154.565 16.4859 154.684 16.4379L154.465 16.2139ZM154.963 20.7739C154.844 20.7739 154.844 20.7819 154.963 20.8059C155.083 20.8299 155.083 20.8139 154.963 20.7739Z" fill="#F2F0ED"/>
</svg>
