<svg width="234" height="125" viewBox="0 0 234 125" fill="none" xmlns="http://www.w3.org/2000/svg">
<path d="M78.8312 2.54011C78.281 2.58811 77.796 2.181 77.748 1.6308C77.7 1.08061 78.1071 0.595678 78.6573 0.547679L78.8312 2.54011ZM167.296 14.1082L166.766 14.9559L167.296 14.1082ZM18.2897 88.7083L17.703 89.5181L18.2897 88.7083ZM26.8046 115.407L27.2581 114.516L26.8046 115.407ZM65.1207 22.7461L65.3626 23.7164L65.1207 22.7461ZM13.1811 91.8494L13.8091 91.0711L13.1811 91.8494ZM78.6573 0.547679C89.2359 -0.37519 106.672 -0.214919 123.853 1.6689C140.985 3.54734 158.079 7.16011 167.827 13.2605L166.766 14.9559C157.441 9.12028 140.761 5.53476 123.635 3.65698C106.559 1.78457 89.2555 1.6307 78.8312 2.54011L78.6573 0.547679ZM167.827 13.2605C173.766 16.9772 179.053 19.8534 183.733 22.5416C188.393 25.2184 192.457 27.7126 195.835 30.6269C199.23 33.5556 201.934 36.9102 203.892 41.3086C205.844 45.695 207.031 51.0721 207.462 58.0212L205.466 58.1448C205.045 51.3518 203.891 46.226 202.065 42.1217C200.243 38.0294 197.733 34.9056 194.529 32.1412C191.308 29.3623 187.39 26.9486 182.737 24.2758C178.103 21.6143 172.747 18.6993 166.766 14.9559L167.827 13.2605ZM207.462 58.0212C207.912 65.2889 204.46 71.4516 198.864 76.5749C193.28 81.6868 185.489 85.8394 177.027 89.1488C160.096 95.7699 140.197 99.1235 129.051 99.9142L128.909 97.9193C139.902 97.1394 159.595 93.8183 176.298 87.2862C184.653 84.019 192.188 79.9754 197.513 75.0997C202.827 70.2355 205.867 64.6192 205.466 58.1448L207.462 58.0212ZM129.051 99.9142C117.995 100.699 96.2304 102.47 74.2467 101.88C63.2542 101.584 52.1789 100.698 42.34 98.7942C32.5193 96.894 23.8371 93.9629 17.703 89.5181L18.8765 87.8985C24.6631 92.0916 33.0102 94.9518 42.72 96.8306C52.4115 98.7059 63.3678 99.5866 74.3004 99.8802C96.1671 100.468 117.827 98.7054 128.909 97.9193L129.051 99.9142ZM17.703 89.5181C10.3812 84.2126 6.90858 74.4105 7.38329 64.3604C7.85905 54.2874 12.3003 43.7606 21.0787 36.8791L22.3126 38.4531C14.0616 44.9212 9.83388 54.8678 9.38106 64.4547C8.92717 74.0644 12.2663 83.1087 18.8765 87.8985L17.703 89.5181ZM21.0787 36.8791C29.53 30.2541 37.7309 22.8959 48.4841 17.3423C59.2833 11.765 72.6472 8.00089 91.5371 8.39683L91.4952 10.3964C72.9212 10.0071 59.8895 13.7029 49.4018 19.1193C38.8681 24.5595 30.8907 31.7287 22.3126 38.4531L21.0787 36.8791ZM91.5371 8.39683C110.305 8.79022 141.021 10.9529 167.599 16.2687C180.882 18.9253 193.189 22.3805 202.466 26.8258C211.674 31.238 218.221 36.7828 219.372 43.7861L217.398 44.1104C216.42 38.1568 210.728 33.0023 201.602 28.6294C192.546 24.2897 180.426 20.8737 167.207 18.2298C140.781 12.9445 110.191 10.7883 91.4952 10.3964L91.5371 8.39683ZM219.372 43.7861C220.492 50.6009 218.29 57.4868 213.632 64.1875C208.977 70.8832 201.824 77.4649 192.883 83.7357C174.998 96.2797 149.777 107.704 122.471 116.361L121.867 114.454C149.056 105.835 174.071 94.4864 191.735 82.0983C200.568 75.903 207.518 69.4787 211.99 63.0459C216.458 56.6179 218.407 50.2524 217.398 44.1104L219.372 43.7861ZM122.471 116.361C67.6971 133.725 34.0113 120.196 26.3511 116.299L27.2581 114.516C34.5096 118.206 67.6532 131.641 121.867 114.454L122.471 116.361ZM26.3511 116.299C1.2563 103.53 -2.40465 83.4148 1.1559 71.9218L3.06633 72.5137C-0.184891 83.0081 2.96593 102.156 27.2581 114.516L26.3511 116.299ZM1.1559 71.9218C4.65677 60.6215 14.9751 49.501 27.1125 40.5421C39.2751 31.5648 53.4421 24.627 64.8788 21.7758L65.3626 23.7164C54.2289 26.492 40.297 33.2964 28.3003 42.1513C16.2785 51.0247 6.37721 61.8266 3.06633 72.5137L1.1559 71.9218ZM64.8788 21.7758C76.7264 18.8222 84.4858 16.3925 92.9329 14.846C101.432 13.29 110.66 12.6156 125.608 13.1087L125.542 15.1077C110.689 14.6177 101.611 15.2904 93.2931 16.8133C84.9236 18.3456 77.3563 20.7264 65.3626 23.7164L64.8788 21.7758ZM125.608 13.1087C140.6 13.6034 166.809 17.545 189.624 23.9185C201.03 27.105 211.642 30.914 219.597 35.2323C223.573 37.3911 226.925 39.698 229.383 42.1484C231.839 44.5961 233.465 47.2496 233.85 50.096L231.869 50.3647C231.562 48.1069 230.248 45.8341 227.971 43.5649C225.698 41.2984 222.525 39.0979 218.642 36.99C210.878 32.7749 200.429 29.0138 189.086 25.8448C166.4 19.5072 140.35 15.5962 125.542 15.1077L125.608 13.1087ZM233.85 50.096C234.759 56.7968 231.782 68.3129 218.263 79.0856C204.75 89.853 180.694 99.9023 139.292 103.839L139.103 101.848C180.294 97.9312 203.921 87.9563 217.016 77.5215C230.105 67.0921 232.663 56.2281 231.869 50.3647L233.85 50.096ZM139.292 103.839C97.9639 107.768 69.785 107.774 50.2059 105.406C30.6244 103.038 19.5636 98.2849 12.5531 92.6276L13.8091 91.0711C20.422 96.4076 31.0734 101.078 50.4461 103.421C69.8213 105.764 97.8391 105.771 139.103 101.848L139.292 103.839ZM12.5531 92.6276C8.93362 89.7068 6.63657 84.8913 5.86349 79.1835C5.08873 73.4631 5.82939 66.7652 8.37064 59.9454C13.4602 46.2868 25.7798 32.1078 47.7512 24.1615L48.4314 26.0423C26.978 33.8013 15.1169 47.5687 10.2448 60.6438C7.80511 67.1909 7.11967 73.5567 7.84541 78.9151C8.57286 84.2861 10.7029 88.5646 13.8091 91.0711L12.5531 92.6276ZM47.7512 24.1615C58.7235 20.1932 76.4352 16.7964 96.4055 15.0628C116.389 13.3281 138.709 13.2523 158.915 15.9637C179.087 18.6705 197.301 24.1741 208.935 33.715C214.771 38.5014 218.972 44.3219 220.902 51.3218C222.832 58.3193 222.468 66.4042 219.332 75.6791L217.438 75.0385C220.475 66.0561 220.776 58.3865 218.974 51.8536C217.173 45.323 213.245 39.8369 207.666 35.2615C196.47 26.0788 178.709 20.6378 158.649 17.9459C138.623 15.2586 116.454 15.33 96.5785 17.0553C76.6894 18.7818 59.1716 22.1579 48.4314 26.0423L47.7512 24.1615Z" fill="#F39720"/>
</svg>
