<svg width="614" height="2" viewBox="0 0 614 2" fill="none" xmlns="http://www.w3.org/2000/svg">
<path d="M612.901 0.134327C613.137 0.134727 613.294 0.135527 613.529 0.136727C613.372 0.137527 613.215 0.138328 613.058 0.139528C613.137 0.145129 613.215 0.14993 613.058 0.153131V0.159932C613.294 0.163532 613.372 0.166733 613.215 0.170334C613.137 0.173535 613.058 0.176735 613.058 0.180336C613.137 0.181936 613.137 0.183137 613.215 0.184737C613.137 0.185537 613.137 0.187137 613.058 0.188338C613.058 0.194739 613.215 0.19994 613.372 0.202741C613.608 0.205141 613.529 0.207541 613.215 0.210342C612.901 0.213143 612.901 0.215943 613.372 0.217943C613.608 0.220344 613.608 0.222344 613.372 0.224745C613.137 0.227145 613.058 0.229146 613.058 0.231546V0.260752H612.038C612.274 0.263152 612.509 0.264753 612.901 0.265953C613.215 0.267153 613.294 0.268754 613.058 0.271154C613.294 0.272354 613.137 0.275155 612.745 0.279556L613.372 0.286357C613.137 0.289958 612.901 0.293159 612.745 0.296759C612.509 0.30036 612.666 0.303561 613.058 0.307161C613.529 0.309562 613.608 0.311962 613.372 0.314763C613.137 0.317564 612.901 0.320764 612.745 0.324365H612.038C612.509 0.329966 612.588 0.335967 612.352 0.342368C612.117 0.34877 612.195 0.354771 612.666 0.360372C612.823 0.363573 612.823 0.367574 612.666 0.372775L612.352 0.383977C612.431 0.385977 612.431 0.387977 612.509 0.389978L613.137 0.391578C613.137 0.389178 613.215 0.387977 613.294 0.387177L613.451 0.415983C612.98 0.423985 612.98 0.431986 613.294 0.439988C613.372 0.441588 613.372 0.442788 613.372 0.444389C613.294 0.443589 613.137 0.443189 612.901 0.443189L611.881 0.45239C611.881 0.456391 611.803 0.459592 611.568 0.461592C612.274 0.461592 612.901 0.460392 613.451 0.458792C613.451 0.460792 613.451 0.462793 613.372 0.464793H614C613.843 0.467193 613.765 0.469194 613.608 0.471594C613.451 0.471194 613.372 0.470794 613.137 0.470794C613.215 0.474395 613.215 0.477595 613.215 0.481196C613.137 0.483997 612.98 0.486397 612.98 0.489198C612.98 0.489998 613.058 0.490398 613.058 0.491198C612.98 0.493599 612.98 0.495999 612.823 0.4984C612.352 0.506401 612.274 0.515603 612.509 0.525605C612.745 0.535607 612.823 0.546409 612.666 0.557211L611.724 0.564813C611.489 0.567613 611.254 0.570014 610.94 0.572014C610.861 0.572815 610.783 0.573615 610.783 0.574815C610.94 0.577215 610.94 0.579216 610.783 0.580816C610.312 0.583217 610.312 0.585217 610.626 0.587618C610.94 0.590018 611.254 0.592018 611.489 0.594419C611.018 0.59882 610.861 0.603221 611.018 0.607221C611.097 0.610022 611.097 0.612823 611.097 0.616023C611.332 0.618024 611.489 0.619624 611.646 0.622024H611.018C611.018 0.622424 610.94 0.622825 610.94 0.623225C611.097 0.623225 611.254 0.624025 611.411 0.624025C611.724 0.624025 612.117 0.625225 612.588 0.627625C612.588 0.630026 612.274 0.631226 611.568 0.631226C612.038 0.633627 612.195 0.636427 612.038 0.639628C611.96 0.643229 611.724 0.646029 611.568 0.64803C611.332 0.64803 611.097 0.647629 610.861 0.647229C610.861 0.647629 610.861 0.647629 610.861 0.64803C610.94 0.65083 610.783 0.653231 610.547 0.655631C610.547 0.658432 610.626 0.661232 610.861 0.663233C610.861 0.664033 610.783 0.664833 610.783 0.665633C610.94 0.667634 611.018 0.669634 611.018 0.671634C611.018 0.672834 611.018 0.674035 611.018 0.675235H611.568C611.332 0.676435 611.254 0.678035 611.254 0.680436H612.038C611.646 0.682436 611.489 0.683637 611.411 0.684837C611.411 0.685237 611.411 0.685237 611.489 0.685637H612.666V0.687638H611.724C611.803 0.688038 611.803 0.688838 611.881 0.689238C611.646 0.692839 611.489 0.695639 611.411 0.69884C611.332 0.70204 611.254 0.704841 611.254 0.708042C611.254 0.708442 611.254 0.708442 611.254 0.708842L611.803 0.711642C611.646 0.712442 611.411 0.713243 611.254 0.714043V0.714443C611.489 0.716043 611.568 0.718043 611.568 0.720444C611.097 0.726045 610.94 0.730846 611.097 0.734847C611.254 0.738848 611.254 0.743649 611.254 0.74925C611.724 0.75285 611.803 0.756051 611.568 0.759652C611.332 0.763252 611.254 0.766453 611.254 0.770054C610.783 0.775655 610.704 0.779656 610.94 0.782056C611.411 0.785657 611.411 0.790058 610.94 0.795659H612.274C612.038 0.795659 611.803 0.796459 611.568 0.797259V0.834867C611.568 0.837267 611.489 0.839668 611.254 0.842468C611.018 0.845269 611.018 0.848069 611.254 0.85007C611.724 0.855671 611.568 0.860872 610.94 0.865673C611.411 0.870074 611.411 0.874075 610.94 0.877675C610.704 0.880076 610.704 0.881676 610.94 0.882877C611.175 0.884077 611.254 0.885677 611.254 0.888077C611.724 0.891678 611.724 0.895279 611.411 0.89928C611.097 0.90328 611.018 0.907681 611.254 0.912082C611.254 0.916483 611.175 0.920884 611.097 0.924885C611.018 0.928886 611.018 0.932486 611.254 0.936087C611.489 0.938488 611.568 0.940488 611.411 0.942088C611.332 0.943689 611.254 0.945689 611.254 0.948089C611.018 0.95169 611.097 0.954891 611.411 0.958492C611.724 0.962092 611.724 0.966093 611.254 0.970494C611.254 0.972895 611.175 0.975695 611.097 0.978896C611.018 0.982496 611.018 0.985297 611.254 0.987297C611.489 0.992899 611.568 0.9985 611.411 1.0037C611.332 1.0089 611.332 1.0137 611.568 1.0181C611.332 1.0237 611.254 1.03011 611.411 1.03691C611.489 1.04371 611.332 1.05011 610.94 1.05571C611.175 1.05811 611.411 1.06011 611.568 1.06251C611.803 1.06491 611.881 1.06691 611.881 1.06931C611.646 1.07371 611.568 1.07812 611.724 1.08212C611.803 1.08612 611.881 1.09052 611.881 1.09492C611.881 1.09852 611.803 1.10172 611.724 1.10532C611.646 1.10892 611.411 1.11292 611.254 1.11732L610.234 1.12252C611.097 1.12252 611.568 1.12653 611.568 1.13453C611.097 1.13453 610.94 1.13493 610.94 1.13613C611.411 1.13613 611.724 1.13693 611.96 1.13773C611.489 1.14013 611.332 1.14253 611.489 1.14533C611.568 1.14813 611.568 1.15133 611.332 1.15493C611.097 1.15733 611.175 1.15933 611.489 1.16173C611.803 1.16413 611.96 1.16613 611.96 1.16853C611.96 1.18014 611.724 1.18814 611.254 1.19254C610.783 1.19614 610.783 1.20054 611.254 1.20614C610.783 1.21534 610.783 1.22494 611.254 1.23535C611.724 1.23975 611.646 1.24415 611.097 1.24815C610.547 1.25215 610.469 1.25655 610.94 1.26095C611.803 1.27015 612.274 1.27736 612.274 1.28336V1.31936L610.94 1.32256C611.411 1.31736 611.489 1.31216 611.254 1.30616C610.783 1.30376 610.391 1.30256 610.077 1.30176C609.763 1.30136 609.37 1.30016 608.9 1.29936V1.30456H609.92C609.92 1.30816 609.841 1.31176 609.763 1.31576C609.684 1.31776 609.763 1.32016 609.841 1.32216C609.92 1.32256 609.92 1.32256 609.998 1.32296C609.998 1.32336 609.998 1.32336 609.998 1.32376C609.998 1.32416 610.077 1.32456 610.077 1.32496L609.92 1.32536C609.684 1.32897 609.684 1.33217 609.998 1.33577C610.077 1.33297 610.155 1.32977 610.312 1.32697C610.234 1.32617 610.155 1.32536 610.155 1.32496L611.018 1.32296C610.548 1.32817 610.548 1.33337 611.018 1.33937C611.489 1.34737 611.332 1.35257 610.704 1.35497C610.469 1.35377 610.312 1.35217 610.155 1.35097C610.155 1.35137 610.155 1.35217 610.077 1.35257C610.077 1.35697 609.763 1.36097 609.057 1.36457C609.527 1.36577 609.763 1.36697 609.92 1.36817C610.077 1.36937 610.312 1.37057 610.783 1.37177H610.077C609.841 1.37538 609.841 1.37858 610.077 1.38218C610.312 1.38578 610.312 1.38978 610.077 1.39418C609.841 1.39858 609.998 1.40578 610.391 1.41458C610.155 1.41818 610.077 1.42218 610.234 1.42659C610.312 1.42859 610.312 1.43059 610.312 1.43259L610.94 1.43459C611.411 1.43819 611.411 1.44099 611.097 1.44419C610.783 1.44699 610.626 1.45019 610.626 1.45339C610.626 1.45339 610.94 1.5014 610.312 1.5082C610.94 1.5082 611.411 1.5086 611.646 1.5098C611.411 1.5098 611.097 1.511 610.626 1.5134C610.391 1.517 610.391 1.5206 610.626 1.5246C610.861 1.52861 610.861 1.53301 610.626 1.53741C610.861 1.53981 610.94 1.54301 610.94 1.54781C610.704 1.54901 610.626 1.55021 610.626 1.55141L611.254 1.55501C610.783 1.55861 610.626 1.56221 610.783 1.56621C610.861 1.57021 610.94 1.57381 610.94 1.57742C610.469 1.58902 610.312 1.59782 610.312 1.60502H611.332C611.332 1.60862 611.175 1.61182 610.861 1.61542C610.861 1.61542 611.254 1.62583 611.018 1.62863C610.861 1.62903 610.783 1.62943 610.626 1.62983C610.704 1.63023 610.704 1.63063 610.783 1.63103C610.391 1.63383 610.234 1.63703 610.077 1.63983C609.998 1.64263 609.92 1.64583 609.92 1.64903C609.684 1.65143 609.684 1.65343 609.92 1.65503C610.155 1.65663 610.234 1.65863 610.234 1.66103C609.763 1.66663 609.606 1.67143 609.763 1.67544C609.92 1.67944 609.92 1.68424 609.92 1.68984C610.391 1.69344 610.469 1.69664 610.234 1.70024C609.998 1.70384 609.92 1.70704 609.92 1.71064C609.449 1.71624 609.37 1.72024 609.606 1.72264C610.077 1.72625 610.077 1.73065 609.606 1.73625H610.94C610.704 1.73625 610.469 1.73705 610.312 1.73785L609.057 1.73865V1.76305C608.821 1.76545 608.821 1.76785 609.057 1.77065C609.292 1.77345 609.292 1.77666 609.057 1.78026C608.821 1.78386 608.821 1.78706 608.9 1.79066C609.057 1.79426 608.978 1.79746 608.743 1.80106C608.507 1.80346 608.507 1.80626 608.586 1.80946C608.664 1.81306 608.743 1.81586 608.743 1.81786C608.978 1.82026 608.978 1.82266 608.743 1.82547C608.507 1.82827 608.507 1.83147 608.743 1.83507C608.978 1.84067 609.057 1.84667 609.057 1.85307C609.057 1.85947 609.057 1.86547 609.057 1.87107C608.429 1.87788 608.037 1.88548 608.037 1.89348C608.037 1.89588 607.88 1.89788 607.566 1.90028C607.252 1.90268 607.173 1.90468 607.409 1.90708C607.409 1.90948 607.252 1.91148 606.938 1.91388C606.624 1.91628 606.31 1.91828 606.075 1.92068C606.546 1.92509 606.624 1.92869 606.389 1.93109C605.918 1.93549 605.447 1.93989 604.976 1.94389C604.506 1.94789 603.878 1.95109 603.015 1.95309C601.916 1.95749 600.896 1.96229 599.876 1.96669C598.856 1.97109 597.836 1.97469 596.737 1.9771C596.11 1.9795 595.404 1.9795 594.776 1.9779C594.07 1.9763 593.442 1.9759 592.814 1.9771C592.108 1.9795 591.402 1.9799 590.617 1.9787C589.832 1.9775 589.126 1.9783 588.498 1.9803C587.635 1.9815 586.851 1.9811 586.144 1.9795C585.517 1.9779 584.732 1.9779 583.79 1.9803C583.084 1.9815 582.456 1.9811 581.829 1.9795C581.201 1.9779 580.495 1.9771 579.867 1.9771C579.396 1.9771 578.769 1.9759 577.905 1.97349C577.042 1.97349 576.493 1.97429 576.258 1.9751L577.278 1.9803C576.728 1.9803 576.101 1.9795 575.473 1.9791V1.9851C574.61 1.9827 573.747 1.9839 572.805 1.9887C572.334 1.9863 572.021 1.9851 571.785 1.9851C571.314 1.9863 570.922 1.9863 570.608 1.9851C570.294 1.9839 569.98 1.9843 569.745 1.9867C568.411 1.9855 567.312 1.9855 566.449 1.9867C566.92 1.9867 567.312 1.9871 567.783 1.9883C567.312 1.9895 566.999 1.9903 566.763 1.9907C566.528 1.9911 566.214 1.9923 565.743 1.9931C565.272 1.9919 564.723 1.9907 564.095 1.9895C563.468 1.9883 562.918 1.9879 562.448 1.9879V1.9943C562.212 1.9931 562.134 1.9919 562.134 1.9907C562.134 1.9895 561.898 1.9891 561.427 1.9891C560.094 1.9891 559.073 1.9887 558.446 1.9875C557.74 1.9875 557.269 1.9887 556.798 1.9911C556.327 1.9923 555.856 1.9927 555.307 1.9919C554.758 1.9915 554.287 1.9911 553.816 1.9911C552.953 1.9947 552.011 1.9959 551.148 1.9955C550.128 1.9943 549.265 1.9943 548.402 1.9943C547.539 1.9943 546.754 1.9951 546.048 1.9967C545.342 1.9983 544.714 1.9987 544.086 1.9975C543.223 1.9975 542.439 1.9979 541.732 1.9983C541.105 1.9987 540.398 1.9987 539.771 1.9975C538.672 1.9963 537.26 1.9959 535.455 1.9959C534.592 1.9959 533.807 1.9963 533.101 1.9975C532.473 1.9987 531.689 1.9987 530.747 1.9975C529.884 1.9987 529.099 1.9987 528.393 1.9975C527.687 1.9963 526.981 1.9959 526.039 1.9959H519.762C519.056 1.9971 518.506 1.9967 517.957 1.9951C517.408 1.9935 516.78 1.9919 516.152 1.9907C515.682 1.9919 515.289 1.9915 514.975 1.9899C514.661 1.9883 514.269 1.9883 513.798 1.9907C511.994 1.9951 510.738 1.9963 509.797 1.9943C509.326 1.9943 508.933 1.9947 508.463 1.9959C507.992 1.9971 507.599 1.9983 507.129 1.9995C505.01 1.9971 503.284 1.9959 502.185 1.9959C501.322 1.9971 500.224 1.9963 498.89 1.9943C498.262 1.9967 497.477 1.9975 496.693 1.9967C495.908 1.9963 495.202 1.9963 494.496 1.9975C493.632 1.9987 492.848 1.9983 492.142 1.9967C491.435 1.9951 490.729 1.9951 489.788 1.9975C488.218 1.9987 486.727 1.9987 485.158 1.9975H473.231C472.368 1.9951 471.348 1.9951 470.249 1.9975C469.151 1.9951 467.895 1.9947 466.562 1.9959C465.463 1.9967 464.443 1.9967 463.501 1.9963C462.638 1.9967 461.854 1.9967 461.304 1.9959H459.97C459.343 1.9971 458.715 1.9971 458.087 1.9967C457.93 1.9971 457.773 1.9971 457.616 1.9975C457.146 1.9963 456.518 1.9959 455.655 1.9959C455.027 1.9983 454.242 1.9991 453.458 1.9983C452.83 1.9979 452.202 1.9979 451.496 1.9975C451.104 1.9983 450.711 1.9979 450.162 1.9963C449.613 1.9947 449.142 1.9947 448.671 1.9971C448.2 1.9983 447.808 1.9983 447.337 1.9971C446.866 1.9959 446.474 1.9955 446.003 1.9955H440.354V1.9903C440.04 1.9919 439.648 1.9935 439.412 1.9951C439.177 1.9967 438.863 1.9971 438.392 1.9959C438.157 1.9971 437.607 1.9963 436.744 1.9943L435.489 1.9975C434.783 1.9963 434.155 1.9951 433.527 1.9939C432.899 1.9927 432.193 1.9935 431.565 1.9955C431.095 1.9979 430.624 1.9983 430.075 1.9971C429.525 1.9959 428.898 1.9947 428.27 1.9935V1.9899C427.171 1.9923 425.994 1.9927 424.817 1.9915C423.64 1.9903 422.463 1.9907 421.365 1.9931C420.502 1.9943 419.168 1.9935 417.363 1.9915C416.265 1.9927 415.166 1.9927 414.068 1.9923C412.969 1.9915 411.87 1.9915 410.772 1.9915C410.301 1.9915 410.066 1.9899 410.066 1.9863L409.438 1.9931C408.575 1.9907 407.79 1.9903 407.084 1.9915C406.692 1.9923 406.299 1.9923 405.829 1.9923C405.829 1.9919 405.75 1.9919 405.75 1.9915C405.672 1.9903 405.436 1.9891 405.279 1.9879C405.75 1.9835 405.907 1.9803 405.907 1.9795H404.887C404.887 1.9771 404.965 1.97469 405.044 1.97189C405.122 1.96909 405.201 1.96629 405.201 1.96429C404.965 1.96429 404.808 1.96469 404.73 1.96509C404.652 1.96549 404.416 1.96589 404.259 1.96589C404.259 1.96829 404.181 1.96989 404.102 1.97109C404.024 1.97229 403.945 1.97389 403.945 1.9763C404.338 1.9823 404.495 1.9875 404.573 1.9915C403.788 1.9907 403.082 1.9903 402.454 1.9907C401.827 1.9911 401.042 1.9911 400.1 1.9899C399.63 1.9899 399.237 1.9903 398.923 1.9915C398.61 1.9927 398.217 1.9927 397.746 1.9915C397.276 1.9903 396.962 1.9903 396.726 1.9915C396.491 1.9927 396.177 1.9927 395.706 1.9915C395 1.9903 394.372 1.9899 393.745 1.9907C393.117 1.9911 392.489 1.9911 392.097 1.9899C390.763 1.9899 389.9 1.9903 389.429 1.9915C388.566 1.9939 387.703 1.9947 386.918 1.9939C386.133 1.9935 385.427 1.9931 384.721 1.9931C382.759 1.9907 381.268 1.9879 380.405 1.9847C379.307 1.9823 378.208 1.9803 377.267 1.9787C376.325 1.9771 375.227 1.9771 374.128 1.9795C373.422 1.9807 372.951 1.9819 372.48 1.9839C372.009 1.9855 371.46 1.9871 370.832 1.9883V1.9815C370.597 1.9839 370.519 1.9859 370.519 1.9875C370.519 1.9891 370.283 1.9911 369.891 1.9935C369.42 1.9935 369.185 1.9919 369.185 1.9883C368.949 1.9895 368.792 1.9899 368.714 1.9899V1.9963C368.243 1.9963 367.851 1.9959 367.38 1.9947C366.909 1.9935 366.517 1.9923 366.046 1.9911C364.947 1.9935 363.692 1.9943 362.358 1.9935C361.024 1.9931 359.847 1.9931 358.67 1.9943C357.807 1.9931 356.865 1.9927 355.845 1.9935C354.825 1.9943 353.805 1.9939 352.707 1.9927C352.236 1.9915 351.687 1.9915 351.059 1.9919C350.431 1.9927 349.803 1.9927 349.411 1.9927C348.548 1.9951 347.763 1.9951 347.057 1.9935C346.351 1.9919 345.723 1.9915 345.095 1.9927C344.625 1.9927 344.232 1.9931 343.918 1.9935C343.605 1.9939 343.212 1.9939 342.741 1.9927C342.114 1.9915 341.329 1.9915 340.544 1.9919C339.76 1.9927 338.975 1.9927 338.034 1.9927C337.17 1.9915 336.307 1.9919 335.523 1.9935C334.738 1.9951 334.032 1.9951 333.326 1.9927C332.855 1.9927 332.541 1.9923 332.305 1.9911C332.07 1.9899 331.756 1.9899 331.285 1.9911C330.579 1.9935 329.873 1.9935 328.931 1.9911C328.068 1.9947 327.048 1.9951 325.95 1.9927C325.479 1.9915 325.008 1.9915 324.459 1.9927C323.909 1.9939 323.439 1.9943 322.968 1.9943H315.671C315.435 1.9955 315.357 1.9967 315.357 1.9979V1.9911C314.258 1.9935 313.395 1.9935 312.689 1.9911C312.218 1.9899 311.433 1.9907 310.335 1.9927C309.707 1.9927 309.001 1.9935 308.373 1.9943C307.745 1.9955 307.039 1.9947 306.411 1.9927C305.313 1.9927 304.371 1.9923 303.587 1.9919C302.802 1.9915 301.86 1.9923 300.762 1.9943C300.291 1.9943 299.899 1.9939 299.585 1.9927C299.271 1.9915 298.879 1.9915 298.408 1.9927C297.78 1.9927 297.152 1.9931 296.603 1.9935C296.054 1.9939 295.426 1.9951 294.798 1.9959C293.7 1.9923 292.444 1.9915 291.111 1.9923C290.247 1.9923 289.463 1.9907 288.757 1.9871C288.05 1.9907 287.344 1.9919 286.403 1.9915C285.539 1.9911 284.676 1.9911 283.735 1.9923C283.264 1.9935 282.872 1.9935 282.401 1.9923C281.93 1.9911 281.538 1.9911 281.067 1.9923C280.204 1.9923 279.341 1.9919 278.556 1.9915C277.771 1.9911 276.987 1.9919 276.045 1.9939C275.574 1.9927 275.182 1.9915 274.711 1.9895C274.24 1.9879 273.848 1.9883 273.377 1.9903C272.906 1.9915 272.279 1.9911 271.415 1.9887L271.729 1.9871C271.494 1.9847 271.415 1.9807 271.415 1.9751C271.886 1.9775 272.2 1.9787 272.436 1.9795C272.671 1.9799 272.985 1.9815 273.456 1.9839V1.9759C273.926 1.9759 274.319 1.97469 274.79 1.97229H273.456V1.96709C272.985 1.96949 272.592 1.97029 272.122 1.96949C271.651 1.96869 271.259 1.96909 270.788 1.97029C270.317 1.97029 270.003 1.97069 269.768 1.97109C269.689 1.97149 269.454 1.97069 269.297 1.97069V1.97109C269.14 1.97189 268.748 1.97229 268.277 1.97269C268.041 1.97389 267.884 1.97429 267.728 1.97469C267.728 1.97469 267.728 1.9751 267.806 1.9755V1.9759C268.355 1.9763 268.905 1.9767 269.375 1.9779C270.003 1.9795 270.474 1.9823 270.709 1.9855C270.238 1.9867 269.925 1.9879 269.689 1.9899C269.454 1.9915 269.14 1.9923 268.669 1.9923H263.02C262.549 1.9923 262.078 1.9915 261.529 1.9899C260.979 1.9883 260.509 1.9887 260.038 1.9907C259.567 1.9919 259.175 1.9923 258.861 1.9915C258.547 1.9911 258.155 1.9911 257.684 1.9923C256.821 1.9935 255.958 1.9939 255.016 1.9931C254.153 1.9927 253.368 1.9927 252.662 1.9939C250.857 1.9915 249.602 1.9911 248.66 1.9923C247.797 1.9935 247.012 1.9935 246.306 1.9923C245.678 1.9911 244.972 1.9911 244.345 1.9923V1.9963C244.188 1.9943 243.952 1.9931 243.717 1.9923C243.011 1.9935 242.147 1.9939 241.284 1.9919C241.049 1.9923 240.892 1.9927 240.657 1.9927C239.637 1.9947 238.616 1.9947 237.832 1.9927C237.675 1.9935 237.596 1.9939 237.439 1.9951V1.9923C237.126 1.9915 236.733 1.9911 236.419 1.9911C236.341 1.9911 236.262 1.9911 236.184 1.9911C235.792 1.9911 235.399 1.9915 235.007 1.9927L234.929 1.9923C234.379 1.9927 233.752 1.9927 233.124 1.9919C232.261 1.9907 230.927 1.9915 229.122 1.9935C228.494 1.9923 227.71 1.9919 226.768 1.9927C225.826 1.9935 224.963 1.9931 224.1 1.9919C223.629 1.9907 223.237 1.9907 222.923 1.9911C222.609 1.9919 222.217 1.9915 221.746 1.9903C221.275 1.9879 220.805 1.9879 220.255 1.9895C220.177 1.9911 219.706 1.9923 219.235 1.9923H213.586C213.115 1.9923 212.801 1.9915 212.566 1.9899C212.33 1.9883 212.016 1.9867 211.546 1.9855C211.781 1.9819 212.173 1.9795 212.879 1.9779C213.507 1.9763 214.213 1.9755 214.841 1.9755C214.606 1.9755 214.292 1.97429 213.821 1.97189H215.155C214.92 1.97069 214.37 1.97029 213.507 1.97029C213.036 1.97149 212.723 1.97189 212.487 1.97109C212.252 1.97069 211.938 1.97029 211.467 1.97029C210.996 1.96909 210.604 1.96869 210.133 1.96949C209.662 1.97029 209.27 1.96909 208.799 1.96709V1.97149H207.465C207.936 1.97389 208.328 1.9751 208.799 1.9751V1.9835C209.27 1.9811 209.584 1.9799 209.819 1.9791C210.055 1.9787 210.369 1.9771 210.839 1.97469C210.839 1.9803 210.682 1.9843 210.525 1.9867L210.839 1.9883C209.976 1.9907 209.27 1.9911 208.878 1.9899C208.407 1.9875 208.015 1.9875 207.544 1.9891C207.073 1.9907 206.681 1.9923 206.21 1.9935C205.347 1.9911 204.484 1.9903 203.699 1.9911C202.914 1.9919 202.051 1.9919 201.188 1.9919C200.717 1.9907 200.325 1.9907 199.854 1.9919C199.383 1.9931 198.991 1.9931 198.52 1.9919C197.657 1.9907 196.715 1.9907 195.852 1.9911C194.989 1.9919 194.204 1.9903 193.498 1.9867C192.871 1.9903 192.086 1.9919 191.144 1.9919C189.81 1.9907 188.555 1.9919 187.456 1.9955C186.829 1.9943 186.201 1.9935 185.652 1.9931C185.102 1.9927 184.475 1.9923 183.847 1.9923C183.376 1.9911 182.984 1.9911 182.67 1.9923C182.356 1.9935 181.964 1.9939 181.493 1.9939C180.394 1.9915 179.453 1.9907 178.668 1.9915C177.883 1.9923 176.942 1.9923 175.843 1.9923C175.216 1.9947 174.509 1.9951 173.882 1.9939C173.175 1.9927 172.548 1.9923 171.92 1.9923C170.821 1.9899 170.037 1.9895 169.566 1.9907C168.938 1.9931 167.997 1.9931 166.898 1.9907V1.9971C166.898 1.9959 166.741 1.9947 166.584 1.9935H159.287C158.816 1.9935 158.345 1.9931 157.796 1.9919C157.247 1.9907 156.776 1.9907 156.305 1.9919C155.207 1.9943 154.187 1.9935 153.323 1.9903C152.46 1.9927 151.676 1.9927 150.969 1.9903C150.499 1.9891 150.185 1.9891 149.949 1.9903C149.714 1.9915 149.4 1.9919 148.929 1.9919C148.302 1.9943 147.517 1.9943 146.732 1.9927C145.948 1.9911 145.084 1.9907 144.221 1.9919C143.358 1.9919 142.495 1.9915 141.71 1.9911C140.926 1.9907 140.22 1.9907 139.513 1.9919C139.043 1.9931 138.65 1.9935 138.336 1.9927C138.022 1.9923 137.63 1.9919 137.159 1.9919C136.532 1.9907 135.825 1.9911 135.198 1.9927C134.57 1.9943 133.785 1.9943 132.844 1.9919C132.373 1.9919 131.824 1.9915 131.196 1.9911C130.568 1.9907 129.94 1.9907 129.548 1.9919C128.45 1.9931 127.351 1.9935 126.409 1.9927C125.389 1.9923 124.448 1.9923 123.585 1.9935C122.486 1.9923 121.231 1.9919 119.897 1.9927C118.955 1.9935 117.7 1.9927 116.601 1.9903C116.13 1.9915 115.738 1.9927 115.267 1.9939C114.796 1.9951 114.404 1.9955 113.933 1.9955C113.07 1.9943 112.207 1.9939 111.422 1.9947C110.638 1.9951 109.775 1.9955 108.911 1.9955C108.284 1.9955 107.578 1.9951 106.95 1.9947C106.322 1.9943 105.537 1.9931 104.596 1.9923L103.576 1.9871C103.576 1.9915 102.791 1.9939 101.222 1.9939C101.222 1.9915 101.143 1.9903 100.908 1.9903C100.908 1.9927 100.751 1.9943 100.594 1.9955C100.123 1.9931 99.6524 1.9923 99.1031 1.9931C98.5539 1.9935 97.9261 1.9935 97.2984 1.9923C96.8276 1.9911 96.4353 1.9915 95.9645 1.9931C95.4937 1.9947 95.1013 1.9955 94.6306 1.9955C92.4335 1.9955 90.8642 1.9943 90.001 1.9919C89.3733 1.9895 88.4317 1.9895 87.3332 1.9919C85.5284 1.9895 83.6452 1.9895 81.6836 1.9919C80.8204 1.9943 80.0358 1.9943 79.2511 1.9915C78.4665 1.9887 77.6033 1.9883 76.7402 1.9907C74.9355 1.9951 73.5231 1.9975 72.4245 1.9975H65.441C64.8133 1.9963 64.1071 1.9963 63.4794 1.9975C62.7732 1.9987 62.1454 1.9991 61.4392 1.9991C60.3407 1.9979 59.0852 1.9979 57.7513 1.9991C56.4958 2.0003 55.2404 1.9995 54.1419 1.9975C53.6711 1.9963 53.2787 1.9963 52.8079 1.9975C52.3371 1.9987 51.9448 1.9991 51.474 1.9991H45.5105C45.0397 1.9979 44.5689 1.9979 44.0197 1.9991C43.4704 2.0003 42.8427 2.0003 42.215 1.9991C41.5088 1.9979 40.881 1.9975 40.1748 1.9983C39.5471 1.9987 38.8409 1.9987 38.2132 1.9975C37.7424 1.9963 37.1931 1.9959 36.5654 1.9967C35.9376 1.9975 35.3099 1.9975 34.9176 1.9975C34.4468 1.9987 33.976 1.9987 33.4267 1.9975C32.8774 1.9963 32.2497 1.9963 31.622 1.9975C30.445 1.9987 29.268 1.9991 28.091 1.9991C26.914 1.9991 25.737 1.9991 24.6385 1.9991C23.3045 1.9955 21.8137 1.9939 20.2443 1.9939C19.7735 1.9939 19.3812 1.9931 18.9104 1.9915C18.5181 1.9895 18.0473 1.9895 17.655 1.9907C17.1842 1.9907 16.7918 1.9899 16.321 1.9883C15.8502 1.9863 15.3794 1.9847 14.9871 1.9835C14.124 1.9859 13.4178 1.9863 13.0254 1.9851C12.0838 1.9831 11.2207 1.9807 10.5145 1.9787C9.72984 1.9763 9.10211 1.97269 8.63131 1.96829C7.76818 1.96269 6.90505 1.95709 5.96345 1.95189C5.10032 1.94669 4.47259 1.94149 4.00179 1.93589C3.53099 1.93229 3.53099 1.92869 3.84486 1.92549C4.15872 1.92188 4.23719 1.91868 4.00179 1.91508C3.53099 1.91188 3.45252 1.90788 3.68792 1.90388C3.92332 1.89988 3.76639 1.89628 3.37406 1.89308C3.13866 1.88828 3.21712 1.88428 3.53099 1.88068C3.84486 1.87708 3.84486 1.87307 3.37406 1.86867C3.13866 1.86547 3.21712 1.86187 3.53099 1.85867C3.84486 1.85507 4.00179 1.85187 4.00179 1.84827C4.00179 1.84587 4.23719 1.84267 4.62952 1.83787C4.62952 1.83347 4.47259 1.83027 4.31566 1.82947L3.37406 1.83467C3.37406 1.83107 3.45252 1.82747 3.68792 1.82346C3.84486 1.82146 3.84486 1.81946 3.84486 1.81746L3.06019 1.81346C3.06019 1.81106 2.98173 1.80946 2.74633 1.80826C3.21712 1.80826 3.60946 1.80906 4.00179 1.80946C4.00179 1.80186 4.08026 1.79546 4.23719 1.79066C4.15872 1.78946 4.15872 1.78866 4.08026 1.78746C4.00179 1.78706 4.00179 1.78666 4.00179 1.78586C3.92332 1.78586 3.84486 1.78586 3.84486 1.78546C3.76639 1.78506 3.53099 1.78506 3.37406 1.78506C3.53099 1.78386 3.68792 1.78306 3.76639 1.78186C3.68792 1.77866 3.60946 1.77546 3.76639 1.77225C4.00179 1.76665 4.00179 1.76065 3.92332 1.75425C3.84486 1.74785 3.84486 1.74185 4.08026 1.73625C4.08026 1.73385 4.15872 1.73225 4.23719 1.73105C4.31566 1.73025 4.15872 1.72905 4.15872 1.72825H4.08026C4.08026 1.72785 4.08026 1.72745 4.08026 1.72705C4.08026 1.72665 4.08026 1.72625 4.00179 1.72585C3.45252 1.71864 3.53099 1.71104 4.00179 1.70304C3.92332 1.70184 3.84486 1.70064 3.76639 1.69944C3.68792 1.69904 3.76639 1.69864 3.68792 1.69824C3.53099 1.69704 3.45252 1.69584 3.45252 1.69504C3.68792 1.69304 3.76639 1.69064 3.92332 1.68864C4.00179 1.68704 3.92332 1.68504 3.84486 1.68384C3.29559 1.67944 3.21712 1.67463 3.45252 1.66943C3.68792 1.66423 3.76639 1.65903 3.76639 1.65303C3.53099 1.64943 3.60946 1.64583 3.92332 1.64183C4.23719 1.63783 2.90326 1.62743 2.90326 1.62543C2.90326 1.62342 2.90326 1.62182 2.90326 1.61942C2.66786 1.61822 2.11859 1.61782 1.25546 1.61782C1.25546 1.61662 1.177 1.61542 1.09853 1.61422C1.02006 1.61342 0.941597 1.61222 0.941597 1.61102C1.4124 1.60662 1.72626 1.60342 1.96166 1.60262C2.43246 1.60702 2.58939 1.61062 2.58939 1.61302C3.06019 1.61182 3.37406 1.61062 3.60946 1.60942C3.84486 1.60822 4.62952 1.59742 4.62952 1.59742C3.92332 1.59622 3.45252 1.59302 2.98173 1.58702C2.11859 1.59382 1.177 1.59942 0.313866 1.60422C0.313866 1.59622 0.470799 1.59062 0.627732 1.58702C0.627732 1.58142 0.706198 1.57662 0.941597 1.57341C0.706198 1.56781 0.549265 1.56181 0.470799 1.55621C0.392332 1.55061 0.549265 1.54461 0.941597 1.53901C0.941597 1.53661 0.784665 1.53421 0.470799 1.53141C0.156933 1.52861 0.235399 1.52581 0.627732 1.5238C1.09853 1.5182 1.09853 1.5134 0.627732 1.5102C0.235399 1.5062 0 1.5022 0 1.4978C0 1.4934 0.0784665 1.4886 0.313866 1.4842C0.0784665 1.4818 0 1.4778 0 1.47179C0.235399 1.47059 0.470799 1.46979 0.706198 1.46939C0.941597 1.46899 1.177 1.46739 1.4124 1.46499H0C0.706198 1.46139 1.4124 1.45939 2.35399 1.45819V1.45299H2.98173V1.45819C3.21712 1.45819 3.37406 1.45779 3.45252 1.45739C3.60946 1.45699 3.76639 1.45659 3.92332 1.45659L4.23719 1.45299C3.76639 1.45059 3.60946 1.44899 3.60946 1.44779C3.84486 1.44659 4.15872 1.44619 4.62952 1.44619V1.44259C4.39412 1.44259 4.23719 1.44299 4.15872 1.44339C4.08026 1.44379 3.92332 1.44419 3.68792 1.44419C3.21712 1.44179 2.98173 1.43899 2.98173 1.43579C3.68792 1.43579 4.39412 1.43699 5.33572 1.43939C6.19885 1.43819 4.00179 1.43139 4.15872 1.42979C4.39412 1.42739 4.39412 1.42539 4.15872 1.42378C3.92332 1.42218 3.84486 1.42018 3.84486 1.41778C3.84486 1.41538 3.92332 1.41338 4.15872 1.41098C4.39412 1.40858 4.62952 1.40658 4.78645 1.40418H4.15872C4.39412 1.39978 4.31565 1.39498 4.00179 1.39058C3.68792 1.38618 3.68792 1.38138 4.15872 1.37698C4.15872 1.37337 4.23719 1.36977 4.31566 1.36577C4.39412 1.36177 4.23719 1.35817 3.84486 1.35457C3.84486 1.35217 3.92332 1.35017 4.00179 1.34857C4.08026 1.34697 4.15872 1.34497 4.15872 1.34257C4.15872 1.33817 4.23719 1.33457 4.47259 1.33217C4.31565 1.33057 4.23719 1.32977 4.15872 1.32857C4.39412 1.32857 4.55105 1.32817 4.78645 1.32697C4.55105 1.32577 4.47259 1.32496 4.47259 1.32456C4.47259 1.32416 4.39412 1.32336 4.15872 1.32216L3.84486 1.32296C3.92332 1.32096 4.08026 1.31896 4.47259 1.31696C3.84486 1.31336 3.68792 1.30776 4.15872 1.29976C4.39412 1.29416 4.39412 1.28856 4.15872 1.28336C3.92332 1.27816 4.00179 1.27295 4.47259 1.26695C4.70799 1.26455 4.70799 1.26255 4.47259 1.26015C4.23719 1.25775 4.15872 1.25575 4.15872 1.25335C3.92332 1.24895 3.84486 1.24455 4.00179 1.24055C4.08026 1.23655 4.08026 1.23215 3.84486 1.22775C3.37406 1.21614 3.60946 1.20734 4.47259 1.20014C4.23719 1.20014 4.00179 1.19974 3.84486 1.19854C3.84486 1.19734 3.92332 1.19654 4.00179 1.19614C4.08026 1.19534 4.15872 1.19454 4.15872 1.19374C3.53099 1.18934 3.29559 1.18454 3.68792 1.17934C4.00179 1.17413 4.08026 1.16893 3.84486 1.16293C3.84486 1.15933 3.92332 1.15653 4.15872 1.15333C4.39412 1.15053 4.62952 1.14733 4.78645 1.14413C4.70799 1.14293 4.55105 1.14173 4.47259 1.14093C4.39412 1.13973 4.15872 1.13813 4.00179 1.13573C4.23719 1.13333 4.47259 1.13053 4.70799 1.12733C4.94339 1.12372 5.02185 1.12092 5.02185 1.11892H4.00179C4.23719 1.11772 4.47259 1.11732 4.70799 1.11732C4.94339 1.11732 5.02185 1.11612 5.02185 1.11372C5.02185 1.10692 5.10032 1.10172 5.33572 1.09812C5.33572 1.09452 5.10032 1.09172 4.62952 1.08972C4.39412 1.08732 4.31565 1.08492 4.47259 1.08212C4.55105 1.07932 4.62952 1.07652 4.62952 1.07451C3.92332 1.07011 3.68792 1.06531 3.76639 1.06091C3.92332 1.05651 3.92332 1.05171 3.92332 1.04731C3.92332 1.04291 3.76639 1.03891 3.45252 1.03531C3.13866 1.03171 3.06019 1.02851 3.29559 1.0249C3.29559 1.0205 3.21712 1.0165 3.13866 1.0129C3.06019 1.0093 3.06019 1.0061 3.29559 1.0025C3.53099 0.996899 3.60946 0.989298 3.60946 0.980096C3.60946 0.975695 3.53099 0.971694 3.29559 0.968094C3.06019 0.964493 3.06019 0.960892 3.29559 0.956091C3.06019 0.95169 3.06019 0.947689 3.29559 0.944089C3.53099 0.940488 3.60946 0.936887 3.60946 0.932086V0.89968C3.37406 0.896079 3.45252 0.893279 3.76639 0.890078C4.08026 0.887277 4.39412 0.884077 4.62952 0.880476C4.39412 0.878075 4.47259 0.876075 4.78645 0.874475C5.10032 0.872874 5.10032 0.870874 4.62952 0.868474C3.76639 0.859272 3.53099 0.85247 3.92332 0.848069C3.92332 0.845669 3.84486 0.843669 3.60946 0.841268C3.37406 0.838868 3.13866 0.836867 2.98173 0.834467C3.45252 0.823265 3.60946 0.814463 3.60946 0.808862C3.37406 0.804461 3.53099 0.79846 3.92332 0.791658C3.60946 0.787657 3.45252 0.783657 3.53099 0.779656C3.60946 0.775655 3.60946 0.772054 3.37406 0.768454C3.13866 0.764053 3.21712 0.760052 3.53099 0.756451C3.84486 0.75285 3.84486 0.74885 3.37406 0.744449C3.13866 0.736447 3.13866 0.728446 3.37406 0.720444V0.658832C3.84486 0.654431 3.84486 0.64923 3.37406 0.643229C3.84486 0.637627 3.92332 0.631226 3.68792 0.624425C3.53099 0.620024 3.68792 0.616423 3.68792 0.612823C3.76639 0.612422 3.84486 0.612022 3.92332 0.611622C4.15872 0.610822 4.31566 0.610022 4.55105 0.608822C5.49265 0.610822 6.04192 0.611622 6.27732 0.611622L6.19885 0.606421C6.66965 0.606421 7.14045 0.606421 7.68971 0.606821C8.23898 0.607221 8.70978 0.607221 9.18058 0.607221C9.18058 0.606021 9.10211 0.605221 8.94518 0.604821C8.78824 0.604421 8.78824 0.603621 8.70978 0.60242C8.23898 0.60242 7.92511 0.60242 7.68971 0.60202C7.45431 0.60162 7.14045 0.60122 6.66965 0.60162C5.41419 0.604021 4.39412 0.605621 3.53099 0.606021C3.76639 0.60162 3.84486 0.596819 3.84486 0.592418C3.84486 0.588018 3.60946 0.583217 3.21712 0.578816C3.45252 0.576415 4.00179 0.556411 4.00179 0.556411H3.45252C3.21712 0.554011 2.98173 0.55201 2.82479 0.54961C2.58939 0.547209 2.51093 0.545209 2.51093 0.542809C2.51093 0.540408 2.43246 0.537607 2.35399 0.534407C2.27553 0.530806 2.43246 0.528006 2.82479 0.526005C3.29559 0.522404 3.29559 0.518804 2.82479 0.514803C2.35399 0.510802 2.27553 0.507201 2.51093 0.503601C2.98173 0.5 2.98173 0.496399 2.66786 0.492398C2.35399 0.488398 2.27553 0.484797 2.51093 0.481196C2.27553 0.475595 2.35399 0.469994 2.66786 0.464793C2.98173 0.459592 3.06019 0.454391 2.82479 0.44839C2.35399 0.445989 2.19706 0.443589 2.35399 0.440788C2.51093 0.437987 2.43246 0.434787 2.19706 0.431586C1.96166 0.429186 2.04013 0.427185 2.35399 0.424785C2.66786 0.422384 2.82479 0.420384 2.82479 0.417984C2.82479 0.408782 2.90326 0.40198 3.13866 0.397579C3.13866 0.393979 3.37406 0.391978 4.00179 0.391578C4.55105 0.391178 4.94339 0.389578 5.17879 0.387177C4.70799 0.387177 4.31566 0.386777 3.84486 0.385577C4.31566 0.383177 4.55105 0.381576 4.55105 0.380376C4.78645 0.381576 4.86492 0.382376 4.86492 0.382776C4.86492 0.383177 4.94339 0.384377 5.17879 0.385177C5.57112 0.385177 5.57112 0.382776 5.49265 0.379976C6.74811 0.377575 7.84665 0.375975 8.63131 0.375575L8.23898 0.371574C8.47438 0.371574 8.63131 0.371174 8.70978 0.370774C8.78824 0.369974 8.94518 0.369974 9.18058 0.369574C9.18058 0.368374 9.02364 0.367173 8.78824 0.366373C8.55284 0.367573 8.39591 0.368374 8.16051 0.369174C7.92511 0.369974 7.76818 0.370774 7.53278 0.371974C6.59118 0.369974 6.04192 0.369174 5.80652 0.369174L5.88498 0.374375C5.64958 0.374375 5.33572 0.374375 5.10032 0.373975C4.70799 0.367573 4.15872 0.360772 4.47259 0.360772C4.39412 0.359172 4.39412 0.357571 4.31566 0.355971V0.325165C4.31566 0.321564 4.47259 0.318764 4.78645 0.315963C5.10032 0.313163 5.10032 0.309962 4.62952 0.306361C4.15872 0.30076 4.15872 0.294759 4.47259 0.288358C4.78645 0.281956 4.62952 0.275955 4.00179 0.270354C4.00179 0.269154 4.23719 0.267553 4.70799 0.265153C4.00179 0.255951 4.00179 0.247549 4.70799 0.239548C4.94339 0.237147 5.02185 0.235547 4.86492 0.234347C4.78645 0.233147 4.70799 0.231546 4.70799 0.229146C4.47259 0.223545 4.39412 0.217543 4.55105 0.211142C4.55105 0.209542 4.47259 0.208342 4.47259 0.206741H3.68792C3.68792 0.19874 3.53099 0.193138 3.37406 0.189538C3.60946 0.185937 3.68792 0.183137 3.68792 0.180336C3.68792 0.177535 3.92332 0.174335 4.31566 0.171134C4.31566 0.166333 4.55105 0.161532 4.86492 0.156731C4.39412 0.157131 3.92332 0.157931 3.29559 0.157931C3.53099 0.156731 3.60946 0.155131 3.60946 0.152731L4.47259 0.14833C3.84486 0.146329 3.29559 0.144329 2.98173 0.141928C3.45252 0.139528 3.84486 0.138328 4.31566 0.138328C4.78645 0.138328 5.17879 0.137127 5.64958 0.134727H4.39412L3.37406 0.129526C3.84486 0.120324 4.00179 0.113523 4.00179 0.109122L3.37406 0.107521C3.60946 0.106321 3.76639 0.105921 3.84486 0.105921C3.92332 0.105921 4.08026 0.105521 4.31566 0.104321C4.08026 0.0999199 4.08026 0.095919 4.31566 0.0923183C4.55105 0.0887176 4.86492 0.0847168 5.33572 0.0803159C5.33572 0.0735146 6.12038 0.065913 7.68971 0.0579114C7.68971 0.0535105 7.92511 0.0503099 8.31744 0.0495098C8.94518 0.0471092 9.65137 0.0443088 10.2791 0.0411081C10.9068 0.0375074 11.613 0.034707 12.2408 0.0327065C12.7116 0.030306 13.1039 0.0291058 13.5747 0.0291058C14.0455 0.0291058 14.4378 0.0279056 14.9086 0.0255051C15.6933 0.0211042 16.3995 0.0195038 17.3411 0.0195038C18.2042 0.0195038 18.9889 0.0183036 19.6951 0.0159031C20.3228 0.0135026 21.029 0.0131025 21.6567 0.0143027C22.1275 0.0155029 22.5199 0.015903 22.8337 0.0151029C23.1476 0.0147028 23.5399 0.0143027 24.0107 0.0143027H28.9541C29.8173 0.0131025 30.6804 0.0119022 31.4651 0.010702C32.2497 0.00950181 33.1913 0.00950181 34.2898 0.010702C34.9176 0.010702 35.6238 0.0103019 36.2515 0.00910175C36.9577 0.00790155 37.5854 0.00790155 38.2132 0.00910175C38.684 0.0103019 39.0763 0.0107019 39.3902 0.00990176C39.704 0.0095017 40.0964 0.00910175 40.5672 0.00910175C41.6657 0.00790155 42.8427 0.0083015 44.0197 0.00990176C45.1967 0.011502 46.3737 0.0123024 47.4722 0.0123024C47.943 0.0123024 48.4138 0.0119022 48.9631 0.010702C49.5123 0.00950181 49.9831 0.00950181 50.4539 0.010702C50.9247 0.0119022 51.3955 0.0123023 51.9448 0.0115021C52.4941 0.0111021 52.9649 0.0119022 53.4357 0.0139027C54.0634 0.0115021 54.7696 0.010702 55.3973 0.0115021C56.025 0.0119022 56.7312 0.0119022 57.359 0.010702C57.8298 0.00950181 58.3006 0.00910175 58.8498 0.00910175C59.3991 0.00910175 60.0268 0.00870168 60.6546 0.00750148C61.3608 0.00630128 62.067 0.0071013 62.8516 0.00910175C63.6363 0.0115023 64.421 0.0115023 65.3626 0.00910175C66.2257 0.00910175 67.0888 0.00870168 67.8735 0.00830162C68.6581 0.00790155 69.4428 0.00790155 70.3844 0.00910175C71.2475 0.00910175 72.1107 0.00870168 72.8953 0.00750148C73.68 0.00630128 74.3862 0.00630128 75.0924 0.00750148C75.9555 0.00630128 76.7402 0.00630128 77.4464 0.00750148C78.0741 0.00870168 78.7803 0.009902 79.4081 0.0111022C80.5066 0.00550103 81.919 0.0047009 83.7237 0.00950181V0.00790143C84.8222 0.00790143 85.8423 0.00750124 86.7054 0.00630105C87.5686 0.00510085 88.5886 0.00510085 89.6872 0.00630105C90.7857 0.00750124 92.355 0.00790143 94.3167 0.00790143C94.5521 0.00790143 94.9444 0.00630128 95.6506 0.00270057H100.986C101.457 0.00150037 101.928 0.00110018 102.477 0.00190032C103.026 0.00230038 103.497 0.00230038 103.968 0.00110018C104.439 -0.000100136 104.831 -0.000100136 105.145 0.00110018C105.459 0.00230038 105.851 0.00270057 106.322 0.00270057C107.185 0.00030005 107.97 -0.000100136 108.676 0.00110018C109.304 0.00230038 110.088 0.00270057 111.03 0.00270057C111.658 0.00390077 112.129 0.00630116 112.364 0.00950181H113.384C113.149 0.0071013 112.913 0.00590098 112.756 0.00510085C112.521 0.00470078 112.285 0.00390077 112.129 0.00270057C113.227 0.00270057 114.012 0.00230038 114.483 0.00110018C115.346 -0.000100136 116.444 0.000700116 117.778 0.00270057C118.641 0.00030005 119.504 -0.000500202 120.289 0.000299931C121.074 0.00110006 121.858 0.00110018 122.8 0.00110018C123.428 0.00110018 124.055 0.00190043 124.605 0.00270057C125.154 0.00390077 125.625 0.00510085 126.096 0.00630105C126.723 0.00630105 127.43 0.0059011 128.057 0.0047009C128.685 0.0035007 129.391 0.0035007 130.019 0.0047009C132.216 0.00230038 133.864 0.00190032 134.962 0.00310051H136.296C136.924 0.00190032 137.63 0.00150025 138.258 0.00230038C138.886 0.00270045 139.592 0.00310051 140.22 0.00310051C140.22 0.00430071 140.298 0.00510097 140.376 0.00550103C140.455 0.00630116 140.533 0.0071013 140.533 0.00790143C140.533 0.00670123 140.612 0.0059011 140.69 0.00550103C140.769 0.00510097 140.847 0.00430071 140.847 0.00310051C142.652 0.00310051 143.829 0.00270033 144.535 0.00150013C145.006 0.000299931 145.477 0.000700116 146.026 0.00230038C146.575 0.00390065 147.046 0.00390065 147.517 0.00150013C147.988 0.000299931 148.38 0.000299931 148.851 0.00150013C149.322 0.00270033 149.714 0.00310051 150.185 0.00310051H155.834V0.00750148C156.305 0.00630128 156.619 0.00510097 156.854 0.00310051C157.09 0.00150025 157.404 0.00110018 157.875 0.00230038C158.11 0.00110018 158.659 0.0019002 159.522 0.00390065L160.856 0.000299931C161.484 0.00150013 162.19 0.00270045 162.818 0.00390065C163.446 0.00510085 164.152 0.00430083 164.78 0.00230038C165.25 -0.000100136 165.721 -0.000500202 166.27 0.000699997C166.82 0.0019002 167.447 0.00310051 168.075 0.00430071V0.00750148C169.174 0.00510097 170.351 0.0047009 171.528 0.0059011C172.783 0.0071013 173.882 0.00670123 174.98 0.00430071C175.843 0.00310051 177.177 0.00390065 178.982 0.0059011C180.081 0.0047009 181.179 0.00470078 182.278 0.00510085C183.376 0.00590098 184.475 0.0059011 185.573 0.0059011C186.044 0.0059011 186.201 0.00750148 186.201 0.0111022L186.829 0.00430071C187.692 0.00670123 188.476 0.0071013 189.183 0.0059011C189.81 0.0047009 190.595 0.0047009 191.537 0.0059011C192.4 0.0071013 193.184 0.00750136 193.891 0.00670123C194.518 0.00630116 195.303 0.00630128 196.245 0.00750148C196.715 0.00750148 197.108 0.0071013 197.422 0.0059011C197.735 0.0047009 198.128 0.0047009 198.599 0.0059011C199.069 0.0071013 199.383 0.0071013 199.619 0.0059011C199.854 0.0047009 200.168 0.0047009 200.639 0.0059011C201.266 0.0071013 201.973 0.00750136 202.6 0.00670123C203.228 0.00630116 203.777 0.00630128 204.248 0.00750148C205.582 0.00750148 206.445 0.0071013 206.916 0.0059011C207.779 0.00350058 208.642 0.00270045 209.427 0.00350058C210.212 0.00390065 210.918 0.00430071 211.624 0.00430071C213.586 0.00670123 215.077 0.00950181 215.94 0.0127025C217.038 0.015103 218.137 0.0171033 219.078 0.0187036C220.02 0.0203038 221.118 0.020304 222.217 0.0179034C222.845 0.0167032 223.394 0.0155029 223.865 0.0135025C224.336 0.0119022 224.885 0.0103019 225.513 0.00910175V0.0159031C225.748 0.0135026 225.826 0.011502 225.826 0.00990176C225.826 0.0083015 226.062 0.00630116 226.454 0.00390065C226.925 0.00390065 227.082 0.00550103 227.082 0.00910175C227.553 0.00670123 228.102 0.0059011 228.73 0.00670123C229.436 0.00750136 229.985 0.00830162 230.378 0.00910175C230.378 0.0115023 230.142 0.0135026 229.671 0.0159031C230.378 0.0147029 231.005 0.0143027 231.633 0.0143027C232.261 0.0143027 232.888 0.0139027 233.281 0.0127025C233.909 0.0127025 234.693 0.0139025 235.635 0.0163031V0.00950181C235.87 0.010702 236.184 0.0111022 236.655 0.0111022V0.00750148C237.126 0.009902 237.439 0.0111022 237.675 0.0111022V0.00430071H238.303V0.0147029L238.616 0.0163031C239.087 0.0151029 239.48 0.0135027 239.95 0.0111022C241.049 0.0147029 241.598 0.0203041 241.598 0.0283056C241.598 0.0307062 241.677 0.0323063 241.912 0.0335065C242.383 0.0335065 242.618 0.0323063 242.618 0.0299058C242.383 0.0275053 242.304 0.0251049 242.304 0.0223043C242.304 0.0195037 242.226 0.0167034 241.991 0.0147029L243.246 0.00910175C243.717 0.0115023 243.874 0.0135026 243.874 0.0151029C243.874 0.0167031 243.874 0.0187036 243.874 0.0211041H243.952C244.188 0.0191036 244.501 0.0175035 244.894 0.015503C244.894 0.0143028 244.815 0.0135026 244.737 0.0131025C244.658 0.0127025 244.58 0.0119022 244.58 0.010702L245.6 0.00550103C246.071 0.00550103 246.385 0.00510085 246.62 0.00390065C246.62 0.0123023 246.149 0.0183036 245.365 0.0227045C245.443 0.0227045 245.443 0.0227045 245.522 0.0227045C245.522 0.0239047 245.6 0.0251049 245.678 0.0263051C245.757 0.0275053 245.835 0.0287056 245.835 0.0299058C245.522 0.0331064 245.286 0.035107 245.051 0.0367073C245.129 0.0379075 245.129 0.0391077 245.208 0.0399078H244.188C244.188 0.0407079 244.658 0.0419083 245.286 0.0435085C245.678 0.041108 246.071 0.0387076 246.463 0.0363071C246.463 0.0387076 246.463 0.0403079 246.385 0.0423083L247.954 0.0347068L246.542 0.0279055C247.012 0.0279055 247.326 0.0275053 247.405 0.0271052C247.483 0.0267051 247.797 0.0263051 248.268 0.0263051V0.0299058C248.739 0.0299058 249.053 0.0295058 249.288 0.0283056V0.0267053L247.876 0.0231045C247.876 0.020704 247.797 0.0191036 247.719 0.0179034C247.64 0.0167032 247.562 0.015103 247.562 0.0127025C248.739 0.0139027 249.759 0.0131027 250.7 0.0111022C251.642 0.00870168 252.662 0.00830162 253.839 0.00950181C255.016 0.010702 256.193 0.0111021 257.448 0.0103019C258.704 0.00990188 259.959 0.009902 261.058 0.0111022C261.529 0.0111022 261.843 0.0115023 262.078 0.0119023C262.313 0.0123024 262.627 0.0123024 263.098 0.0111022C264.746 0.00750148 266.472 0.00750148 268.277 0.0111022C268.748 0.00870168 269.061 0.00750148 269.297 0.00750148C270.474 0.0111022 271.651 0.0119022 272.906 0.00990176C274.162 0.0083015 275.417 0.0083015 276.516 0.010702C277.222 0.0131025 277.85 0.0131024 278.399 0.0115021C278.948 0.00990188 279.576 0.00910175 280.282 0.00910175H286.56C288.443 0.0115023 290.012 0.0107021 291.424 0.00750148C291.424 0.0111022 291.581 0.0131025 291.738 0.0143027C291.738 0.0131025 291.974 0.0115023 292.444 0.00910175C293.151 0.00790155 293.935 0.00790155 294.72 0.00910175C295.505 0.0103019 296.368 0.0103019 297.309 0.00910175C297.78 0.0103019 298.486 0.010702 299.428 0.010702C299.663 0.00950181 299.899 0.00910175 300.134 0.00910175L300.84 0.0127025C301.547 0.0103019 302.331 0.00950181 303.116 0.0103019C303.901 0.010702 304.685 0.0111022 305.391 0.0111022C307.745 0.00870168 309.55 0.00750148 310.963 0.00750148V0.0127025C311.669 0.0127025 312.375 0.0119022 313.081 0.0103019C313.787 0.00870168 314.494 0.00790143 315.2 0.00790143C316.141 0.00790143 317.004 0.0083015 317.789 0.00870156C318.574 0.0095017 319.515 0.0083015 320.379 0.00630105C321.085 0.00870156 321.791 0.00910163 322.654 0.00790143C323.439 0.00670123 324.223 0.00550091 324.93 0.00430071C325.871 0.00430071 326.734 0.00390065 327.519 0.00350058C328.304 0.00310051 329.088 0.00390065 329.794 0.0059011C330.736 0.0059011 331.442 0.00550091 331.913 0.00430071C332.855 0.00670123 333.796 0.00790143 334.659 0.00790143C335.601 0.00790143 336.543 0.00750124 337.406 0.00630105C338.583 0.00510085 339.838 0.00510085 341.251 0.00630105C342.663 0.00750124 343.918 0.00710142 345.095 0.0047009C346.272 0.00710142 347.293 0.00710142 348.234 0.0047009H360.946C362.594 0.0035007 364.163 0.0035007 365.811 0.0047009C366.752 0.00710142 367.537 0.0071013 368.243 0.00550103C368.949 0.00390077 369.734 0.0035007 370.676 0.0047009C371.382 0.0059011 372.088 0.00630116 372.951 0.00550103C373.736 0.00510097 374.52 0.00590098 375.227 0.00790143C376.639 0.00550091 377.816 0.00510085 378.679 0.00630105C379.856 0.00630105 381.582 0.00510108 383.858 0.00270057C384.329 0.00390077 384.799 0.00510085 385.27 0.00630105V0.00990176C385.898 0.0107019 386.526 0.0119022 386.997 0.0143027C387.232 0.0119022 387.467 0.0107019 387.624 0.00990176C387.86 0.00910163 388.095 0.00790155 388.331 0.00550103V0.00910175C389.037 0.0103019 389.664 0.0103019 390.292 0.00910175C390.92 0.00790155 391.705 0.00790155 392.646 0.00910175C393.509 0.0103019 394.843 0.00950193 396.648 0.00750148C397.276 0.00870168 398.06 0.00910175 399.002 0.00830162C399.865 0.00790155 400.807 0.00790155 401.67 0.00910175C402.141 0.0103019 402.533 0.0103018 402.847 0.00990176C403.161 0.00910163 403.553 0.00950181 404.024 0.010702C404.495 0.0131025 404.965 0.0131024 405.515 0.0115021C406.064 0.00990188 406.535 0.00910175 407.005 0.00910175H412.655C413.126 0.00910175 413.44 0.00990188 413.675 0.0115021C413.911 0.0131024 414.224 0.0147029 414.695 0.0159031C414.46 0.0195038 414.067 0.0219042 413.361 0.0235045C412.734 0.0251048 412.027 0.0259051 411.4 0.0259051C411.635 0.0259051 411.949 0.0271053 412.42 0.0295058H411.086C411.321 0.030706 411.87 0.0311061 412.734 0.0311061C413.204 0.0299059 413.518 0.0295058 413.754 0.030306C413.989 0.030706 414.303 0.0311061 414.774 0.0311061C415.244 0.0323063 415.637 0.0327065 416.108 0.0319064C416.578 0.0315063 416.971 0.0323063 417.442 0.0343068V0.0291058H418.775C418.305 0.0267053 417.912 0.0255051 417.442 0.0255051V0.0171033C416.971 0.0195038 416.657 0.020704 416.421 0.0215042C416.186 0.0219042 415.872 0.0235046 415.401 0.0259051C415.401 0.020304 415.558 0.0163032 415.715 0.0139027L415.401 0.0123024C416.265 0.00990188 416.971 0.00950181 417.363 0.010702C417.834 0.0131025 418.226 0.0131024 418.697 0.0115021C419.168 0.00990188 419.56 0.0083015 420.031 0.0071013C420.894 0.00950181 421.757 0.0103019 422.542 0.00950181C423.327 0.00870168 424.19 0.00870156 425.053 0.00870156C425.524 0.00990176 425.916 0.00990176 426.387 0.00870156C426.858 0.00750136 427.25 0.00750136 427.721 0.00870156C428.584 0.00990176 429.525 0.00990188 430.388 0.00950181C431.252 0.00870168 432.036 0.0103019 432.743 0.0139027C433.449 0.0103019 434.155 0.00870156 435.097 0.00870156C436.43 0.00990176 437.686 0.00870156 438.784 0.00510085C439.412 0.00630105 440.04 0.00710142 440.589 0.00750148C441.138 0.00790155 441.766 0.00830162 442.394 0.00830162C442.865 0.00950181 443.257 0.00950181 443.571 0.00830162C443.885 0.00710142 444.277 0.00670123 444.748 0.00670123C445.846 0.00910175 446.788 0.00990188 447.573 0.00910175C448.357 0.00830162 449.299 0.00830162 450.397 0.00830162C451.104 0.0059011 451.731 0.00550103 452.359 0.00670123C453.065 0.00790143 453.693 0.00830162 454.321 0.00830162C455.419 0.0107021 456.204 0.011102 456.675 0.00990176C457.302 0.00750124 458.244 0.00750124 459.343 0.00990176V0.00310051C459.343 0.00430071 459.421 0.00550103 459.657 0.00670123H466.954C467.425 0.00670123 467.895 0.00710142 468.445 0.00830162C468.994 0.00950181 469.465 0.00950181 469.936 0.00830162C471.034 0.0059011 472.054 0.00670111 472.917 0.00990176C473.78 0.00750124 474.565 0.00750124 475.271 0.00990176C475.742 0.011102 476.056 0.011102 476.291 0.00990176C476.527 0.00870156 476.841 0.00830162 477.311 0.00830162C477.939 0.0059011 478.724 0.00590122 479.508 0.00750148C480.293 0.00910175 481.156 0.00950181 482.019 0.00830162C482.883 0.00830162 483.746 0.00870168 484.53 0.00910175C485.315 0.00950181 486.021 0.00950181 486.727 0.00830162C487.198 0.00710142 487.591 0.00670135 487.904 0.00750148C488.218 0.00790155 488.611 0.00830162 489.081 0.00830162C489.709 0.00950181 490.415 0.00910175 491.043 0.00750148C491.671 0.00590122 492.455 0.0059011 493.397 0.00830162C493.868 0.00830162 494.417 0.00870168 495.045 0.00910175C495.673 0.00950181 496.3 0.00950181 496.693 0.00830162C497.791 0.00710142 498.89 0.00670135 499.831 0.00750148C500.851 0.00790155 501.793 0.00790143 502.656 0.00670123C503.755 0.00790143 505.01 0.00830162 506.344 0.00750148C507.678 0.00710142 508.933 0.00790131 510.032 0.00990176C510.503 0.00870156 510.895 0.00750124 511.366 0.00630105C511.837 0.00510085 512.229 0.0047009 512.7 0.0047009C513.563 0.0059011 514.426 0.00630116 515.211 0.00550103C515.995 0.00510097 516.859 0.0047009 517.722 0.0047009C518.349 0.0047009 519.056 0.00510097 519.683 0.00550103C520.311 0.0059011 521.096 0.0071013 522.037 0.00790143L523.057 0.0131025C523.057 0.00870168 523.842 0.00630105 525.411 0.00630105C525.411 0.00870156 525.49 0.00990176 525.725 0.00990176C525.725 0.00750124 525.882 0.0059011 526.039 0.0047009C526.51 0.00710142 526.981 0.00790143 527.53 0.0071013C528.079 0.00670123 528.707 0.00670123 529.335 0.00790143C529.805 0.00910163 530.198 0.00870156 530.669 0.0071013C531.139 0.00550103 531.532 0.0047009 532.003 0.0047009C534.2 0.0047009 535.769 0.0059011 536.632 0.00830162C537.26 0.0107021 538.201 0.0107021 539.3 0.00830162C541.105 0.0107021 542.988 0.0107021 544.949 0.00830162C545.813 0.0059011 546.676 0.00630116 547.46 0.00910175C548.245 0.0119023 549.108 0.0123023 549.971 0.00990176C551.776 0.00550091 553.188 0.00310051 554.287 0.00310051H561.271C561.977 0.00430071 562.604 0.00430071 563.232 0.00310051C563.86 0.00190032 564.566 0.00150013 565.194 0.00150013C566.292 0.00270033 567.548 0.00270033 568.882 0.00150013C570.216 0.000299931 571.471 0.000699997 572.57 0.00310051C573.041 0.00430071 573.433 0.00430071 573.904 0.00310051C574.374 0.00190032 574.767 0.00150013 575.238 0.00150013H580.652V0.00510085C581.201 0.00590098 581.75 0.00670123 582.3 0.00670123C583.398 0.00550103 584.34 0.00550103 585.124 0.00670123C585.909 0.00790143 586.772 0.00910175 587.635 0.0103019H592.579C593.049 0.0103019 593.442 0.0107021 593.756 0.0111022C594.07 0.0119023 594.462 0.0115021 594.933 0.0103019C595.639 0.00910175 596.267 0.00990188 596.894 0.0119023C597.522 0.0143028 598.307 0.015503 599.248 0.015503C600.111 0.015503 600.896 0.0171033 601.602 0.020704C602.073 0.0231045 602.465 0.0243047 602.936 0.0243047C603.407 0.0243047 603.799 0.0255049 604.27 0.0279055C604.898 0.030306 605.604 0.0331064 606.232 0.0363071C606.86 0.0399078 607.566 0.0427084 608.194 0.0447088C608.664 0.045909 608.9 0.0487096 608.9 0.0531105C610.469 0.061112 611.254 0.0687137 611.254 0.075515C611.724 0.0799159 612.038 0.0839167 612.274 0.0875174C612.509 0.0911181 612.509 0.095119 612.274 0.0995198C612.509 0.10072 612.666 0.10112 612.745 0.10112C612.901 0.10112 613.058 0.10152 613.215 0.10272L612.588 0.104321C612.588 0.108722 612.823 0.115923 613.215 0.124725L612.666 0.127525C612.823 0.129926 612.823 0.131926 612.901 0.134327ZM4.78645 1.38898C4.31566 1.38778 4.31566 1.38818 4.78645 1.39058C5.25725 1.39058 5.25725 1.38978 4.78645 1.38898ZM5.33572 1.13893C5.33572 1.14053 5.17879 1.14213 5.10032 1.14373H5.41419C5.41419 1.14213 5.41419 1.14053 5.33572 1.13893ZM4.78645 0.94849L5.80652 0.938087H4.78645V0.94849ZM4.94339 0.922484C4.86492 0.923685 4.78645 0.925285 4.78645 0.927685C5.02185 0.930086 5.25725 0.931286 5.49265 0.932086C5.72805 0.932886 5.96345 0.933687 6.12038 0.934487C5.88498 0.932086 5.88498 0.929686 5.96345 0.926885C6.12038 0.924085 6.12038 0.920884 6.12038 0.917283H5.10032C5.10032 0.919684 5.10032 0.921684 4.94339 0.922484ZM5.10032 0.85167C5.10032 0.855671 5.33572 0.856471 5.72805 0.854071C5.88498 0.853671 5.88498 0.853271 5.96345 0.85287C6.04192 0.853671 6.19885 0.854071 6.43425 0.854071C6.66965 0.852871 6.74812 0.85047 6.74812 0.847269C6.35578 0.847269 6.04192 0.848469 5.96345 0.85047C5.88498 0.85007 5.88498 0.84927 5.80652 0.84887C5.33572 0.846469 5.10032 0.847669 5.10032 0.85167ZM6.43425 0.758051C6.19885 0.758051 6.04192 0.758852 5.96345 0.760452C5.88498 0.762052 5.88498 0.763653 6.12038 0.764853C6.59118 0.766053 6.82658 0.765653 6.82658 0.763252C6.82658 0.760852 6.66965 0.759252 6.43425 0.758051ZM33.0344 0.220344L33.1128 0.225545C32.4851 0.225945 31.7004 0.225945 30.9158 0.225545C30.1311 0.225145 29.4249 0.226345 28.7972 0.228746C27.9341 0.227946 26.914 0.227145 25.9724 0.227145C24.9523 0.226745 24.1677 0.228346 23.5399 0.231946C24.0107 0.235147 25.0308 0.235547 26.5217 0.232746C27.6202 0.229946 28.6403 0.229946 29.6603 0.231946C30.6804 0.233947 31.7004 0.234347 32.799 0.232746C33.1913 0.230346 33.4267 0.228346 33.5836 0.226345C33.6621 0.224745 33.819 0.222744 33.976 0.220344H33.0344ZM35.3099 1.9851C35.0745 1.9875 35.2314 1.9875 35.6238 1.9851C35.6238 1.9831 35.4668 1.9831 35.3099 1.9851ZM58.6144 0.845269C59.0852 0.847269 59.3206 0.847269 59.2422 0.844869C59.2422 0.842868 59.0068 0.842868 58.6144 0.845269ZM79.6434 0.19994C79.4865 0.20234 79.565 0.20234 79.9573 0.19994C79.9573 0.197539 79.8004 0.197539 79.6434 0.19994ZM84.4299 0.210342C84.273 0.212743 84.3514 0.212743 84.7438 0.210342C84.7438 0.208342 84.5868 0.208342 84.4299 0.210342ZM89.9226 0.195139C89.5302 0.196339 88.7456 0.195939 87.5686 0.193939C87.804 0.197139 88.1963 0.19914 88.824 0.19954C89.3733 0.19994 89.9226 0.19994 90.3149 0.19994C90.2364 0.197939 90.158 0.196339 89.9226 0.195139ZM119.661 1.35537C119.818 1.35377 120.054 1.35217 120.524 1.35097H119.897C119.897 1.34977 119.897 1.34857 119.975 1.34737C120.054 1.34617 120.132 1.34497 120.132 1.34377C119.897 1.34257 119.818 1.34177 119.74 1.34057C119.74 1.33937 119.504 1.33817 119.034 1.33737L118.406 1.34097L119.426 1.34057C119.661 1.34377 119.818 1.34777 119.74 1.35177C119.661 1.35297 119.661 1.35417 119.661 1.35537ZM120.446 1.28736C120.446 1.28496 120.211 1.28416 119.74 1.28416L119.426 1.28776C118.955 1.28576 118.798 1.28376 119.034 1.28256C118.955 1.27696 119.034 1.27295 119.191 1.27055H118.877C118.72 1.27415 118.563 1.27776 118.484 1.28176C118.406 1.28576 118.641 1.28896 119.112 1.29096C118.877 1.29216 118.563 1.29296 118.17 1.29296L119.191 1.29776C119.034 1.30016 118.877 1.30256 118.955 1.30456C119.426 1.30656 119.583 1.30936 119.426 1.31296C119.269 1.31656 119.347 1.31936 119.818 1.32136C119.74 1.31576 120.054 1.31096 120.681 1.30736L119.661 1.30776L119.504 1.29576C119.897 1.29136 120.211 1.28856 120.446 1.28736ZM119.975 1.36297C119.74 1.36097 119.583 1.35937 119.504 1.35777C119.426 1.35977 119.347 1.36177 119.269 1.36337C119.269 1.36577 119.426 1.36777 119.661 1.37017C119.897 1.37217 120.132 1.37457 120.368 1.37698L119.347 1.37738C119.426 1.38378 119.74 1.38698 120.368 1.38738C120.054 1.38778 119.897 1.38898 120.054 1.39098C120.211 1.39338 120.132 1.39538 119.975 1.39778C120.681 1.39858 120.917 1.39778 120.76 1.39498C120.603 1.39218 120.524 1.38978 120.524 1.38738C120.603 1.38738 120.76 1.38738 120.838 1.38698C120.838 1.37658 120.524 1.36857 119.975 1.36297ZM120.054 1.42498C120.132 1.42859 119.818 1.43139 119.191 1.43379L120.524 1.43339C120.524 1.43379 120.446 1.43379 120.446 1.43419L121.309 1.43379C121.623 1.43179 121.623 1.43059 121.466 1.42939C121.231 1.42819 121.074 1.42659 121.074 1.42418L120.054 1.42498ZM123.742 1.42018C123.271 1.41818 122.878 1.41658 122.565 1.41618C122.251 1.41578 121.858 1.41498 121.388 1.41418L121.466 1.41938L122.486 1.41898C122.565 1.42218 122.565 1.42619 122.486 1.43019C122.486 1.43139 122.486 1.43259 122.486 1.43379C122.8 1.43419 123.114 1.43419 123.428 1.43499C123.585 1.43499 123.663 1.43539 123.742 1.43539C123.977 1.43059 124.055 1.42539 123.742 1.42018ZM134.256 1.9783C134.021 1.9807 134.178 1.9807 134.57 1.9783C134.57 1.9763 134.492 1.9763 134.256 1.9783ZM138.886 1.9903C138.65 1.9927 138.807 1.9927 139.199 1.9903C139.278 1.9883 139.121 1.9883 138.886 1.9903ZM142.26 1.9751C142.495 1.9787 142.887 1.9807 143.437 1.9811C143.986 1.9819 144.457 1.9819 144.928 1.9819C144.928 1.9795 144.771 1.9779 144.614 1.9767C144.143 1.9779 143.358 1.9771 142.26 1.9751ZM148.851 0.0363071C148.851 0.0407079 149.165 0.0415082 149.871 0.0379075C149.871 0.0335066 149.557 0.0331064 148.851 0.0363071ZM149.871 0.0159031V0.0211041C150.499 0.0235046 151.205 0.0235046 151.833 0.0211041L149.871 0.0159031ZM150.185 0.0399078C150.185 0.0423083 150.263 0.0431085 150.499 0.0423083C150.734 0.0419083 150.813 0.0407079 150.813 0.0399078C150.813 0.0375073 150.734 0.0367073 150.499 0.0375074C150.263 0.0379075 150.185 0.0387076 150.185 0.0399078ZM152.539 0.0159031C153.01 0.0183036 153.323 0.020304 153.559 0.0227045C154.03 0.020304 154.187 0.0183036 154.187 0.0159031H152.539ZM152.146 0.175935L152.225 0.181136L149.871 0.181936C148.929 0.179936 148.38 0.178335 148.145 0.177135C147.674 0.177135 147.517 0.178336 147.517 0.180736L148.223 0.182336C147.831 0.184737 147.517 0.185537 147.282 0.184337C146.183 0.184737 145.398 0.184337 144.928 0.183537V0.185137C145.634 0.185937 146.34 0.186737 147.125 0.187137C147.909 0.187537 148.537 0.186337 148.929 0.183937C149.165 0.185137 149.322 0.186737 149.322 0.189138L150.263 0.183537C150.734 0.184737 151.126 0.185137 151.597 0.184737C151.99 0.182336 152.539 0.181536 153.245 0.182336C153.951 0.183136 154.5 0.182737 154.893 0.180336C153.716 0.180336 152.853 0.179136 152.146 0.175935ZM157.796 0.0243047C157.325 0.0255049 156.933 0.0259051 156.462 0.0259051C156.462 0.0271053 156.541 0.0279056 156.619 0.0283056C156.697 0.0291058 156.776 0.0299059 156.776 0.030706H157.796V0.0243047ZM168.546 0.189938C168.546 0.187537 168.389 0.187537 168.232 0.189938C168.075 0.192338 168.154 0.192338 168.546 0.189938ZM160.464 0.176735L160.542 0.179936C160.307 0.179936 160.072 0.179936 159.836 0.179136C159.601 0.178736 159.365 0.178336 159.13 0.178336C158.895 0.179536 158.738 0.180336 158.502 0.180336C158.267 0.180336 158.11 0.181536 157.875 0.183937L158.581 0.187137L158.502 0.181936C159.13 0.180736 159.836 0.179936 160.621 0.180336C160.856 0.180336 161.013 0.180736 161.249 0.180736C160.935 0.180736 160.699 0.179136 160.464 0.176735ZM168.938 0.175135C168.389 0.175935 167.918 0.176335 167.526 0.176335C167.526 0.175935 167.526 0.175135 167.447 0.174735C165.486 0.175535 163.916 0.177135 162.818 0.179536C162.426 0.180736 162.112 0.181536 161.798 0.181936C162.19 0.182336 162.504 0.182737 162.896 0.183137C163.367 0.183137 163.759 0.182336 164.23 0.181136C164.623 0.179936 165.093 0.178735 165.486 0.177135L165.564 0.182336C166.82 0.181936 167.447 0.180336 167.526 0.177135C167.604 0.178735 167.84 0.179536 168.232 0.178736C168.624 0.177935 169.095 0.178336 169.566 0.179136C169.644 0.175535 169.409 0.174335 168.938 0.175135ZM174.745 0.179136C175.373 0.178736 176 0.180336 176.471 0.183937L176.393 0.177135C176.863 0.178335 177.334 0.178736 177.727 0.178336C178.197 0.178336 178.59 0.178736 179.06 0.179536L178.982 0.174335L179.688 0.177535C179.924 0.176335 180.394 0.174335 181.258 0.171934C180.787 0.171934 180.394 0.172334 180.081 0.173135C179.767 0.173935 179.374 0.174335 178.904 0.174335C178.668 0.173135 178.511 0.172334 178.511 0.171934C178.511 0.171534 178.354 0.170734 178.119 0.169534C177.883 0.169534 177.334 0.170734 176.471 0.173535C176 0.171534 175.686 0.171134 175.451 0.172334C175.216 0.173535 174.902 0.174335 174.509 0.174335L174.745 0.179136ZM180.237 0.159932C179.139 0.162732 178.119 0.162732 177.099 0.160732C176.079 0.158732 175.059 0.158332 173.96 0.159932C173.568 0.162332 173.332 0.164333 173.175 0.166333C173.097 0.167933 172.94 0.169934 172.783 0.172334L173.803 0.171934L173.725 0.166733C174.352 0.166333 175.137 0.166333 175.922 0.166733C176.706 0.167133 177.413 0.165933 178.04 0.163533C178.904 0.164333 179.924 0.165133 180.865 0.165133C181.885 0.165533 182.67 0.163933 183.298 0.159932C182.748 0.157531 181.728 0.157131 180.237 0.159932ZM183.455 1.9751C183.219 1.9763 182.984 1.9771 182.827 1.9775C182.591 1.9779 182.356 1.9791 182.199 1.9799L180.237 1.97469C180.002 1.9759 179.767 1.9767 179.61 1.9771C179.374 1.9775 179.139 1.9787 178.904 1.9795C179.374 1.9807 179.767 1.9811 180.237 1.9811C180.708 1.9811 181.101 1.9823 181.571 1.9847L183.533 1.9795V1.9751H183.455ZM188.712 1.9819C188.712 1.9807 188.476 1.9779 188.084 1.97349C187.613 1.9759 187.221 1.9775 186.75 1.9787C187.613 1.9807 188.319 1.9819 188.712 1.9819ZM188.084 0.166733C188.163 0.165533 188.398 0.163933 188.869 0.161532C187.535 0.164333 186.829 0.165533 186.593 0.165533L186.515 0.162332C186.122 0.163533 185.652 0.165533 185.259 0.167933L186.279 0.167533L186.358 0.174335C187.221 0.171934 187.849 0.172734 188.398 0.177135C188.633 0.175935 188.79 0.175135 188.869 0.175135C188.947 0.175135 189.104 0.174335 189.34 0.173135C188.869 0.171934 188.555 0.171534 188.319 0.171534C188.084 0.171534 187.77 0.171134 187.299 0.170334C187.77 0.169134 188.006 0.167933 188.084 0.166733ZM202.679 1.96989V1.9751C202.051 1.9751 201.266 1.97469 200.482 1.97429C199.697 1.97389 198.991 1.97469 198.285 1.9767C197.422 1.9755 196.48 1.97469 195.46 1.97429C194.44 1.97389 193.655 1.9751 192.949 1.9787C193.42 1.9819 194.361 1.9827 195.931 1.9803C197.029 1.9779 198.128 1.9779 199.069 1.9803C200.089 1.9827 201.11 1.9831 202.208 1.9819C202.679 1.9795 202.914 1.9775 203.071 1.9759C203.15 1.97429 203.307 1.97229 203.542 1.96989H202.679ZM212.33 1.95949C213.429 1.95949 214.213 1.95789 214.684 1.95429C214.449 1.95549 214.057 1.95589 213.35 1.95589V1.95229H212.33L212.644 1.95589C212.409 1.95629 212.33 1.95749 212.33 1.95949ZM204.327 1.96989C204.327 1.97429 204.405 1.9779 204.641 1.9803C205.111 1.9791 205.347 1.9783 205.504 1.9779C205.582 1.9775 205.896 1.9763 206.367 1.9755C206.602 1.97309 206.445 1.97189 205.896 1.97189C205.268 1.97149 204.797 1.97109 204.327 1.96989ZM206.681 1.94069C206.445 1.93949 206.288 1.93829 206.21 1.93709C206.053 1.93589 205.818 1.93469 205.347 1.93349V1.94229C205.818 1.94229 206.21 1.94189 206.681 1.94069ZM206.21 1.84027C206.21 1.83787 206.21 1.83547 206.288 1.83267C206.367 1.82987 206.367 1.82707 206.367 1.82507C206.131 1.82507 205.974 1.82547 205.896 1.82627C205.818 1.82707 205.661 1.82707 205.425 1.82747C205.425 1.82987 205.425 1.83147 205.347 1.83267C205.268 1.83387 205.19 1.83547 205.268 1.83787C205.818 1.84467 206.053 1.85027 206.131 1.85467L206.759 1.85267C206.759 1.85387 206.838 1.85467 206.916 1.85507C207.073 1.85547 207.073 1.85627 207.151 1.85747C207.387 1.85747 207.544 1.85667 207.779 1.85547C207.544 1.85427 207.387 1.85347 207.23 1.85227C207.073 1.85107 206.916 1.85027 206.681 1.84907C206.995 1.84387 207.23 1.84107 207.151 1.83987L206.21 1.84027ZM210.29 0.0175034V0.010702C209.819 0.0119022 209.427 0.0131024 208.956 0.0151029C208.485 0.0167031 208.093 0.0183036 207.622 0.0195038C208.721 0.0195038 209.976 0.020704 211.31 0.0231045C211.31 0.0219043 211.232 0.0211041 211.153 0.020704C210.996 0.020304 210.996 0.0191038 210.996 0.0183036C211.467 0.0159031 211.624 0.0143027 211.624 0.0131025C211.389 0.0127025 210.996 0.0143027 210.29 0.0175034ZM210.839 1.95349C210.526 1.95189 210.369 1.94989 210.369 1.94749C210.369 1.94389 209.819 1.94109 208.721 1.93909C208.25 1.94349 208.015 1.94669 208.015 1.94749C208.25 1.94869 208.799 1.94909 209.662 1.94909C209.662 1.95029 209.584 1.95109 209.505 1.95149C209.427 1.95229 209.349 1.95309 209.349 1.95389C209.819 1.95509 210.212 1.95629 210.682 1.95749C211.153 1.95869 211.546 1.95909 212.016 1.95909C211.546 1.95709 211.153 1.95509 210.839 1.95349ZM213.664 0.0227045C213.664 0.020304 213.586 0.0191038 213.507 0.0183036C213.35 0.0179036 213.35 0.0167032 213.35 0.0159031C213.115 0.0159031 212.958 0.0155029 212.879 0.0151029C212.723 0.0147028 212.566 0.0143027 212.409 0.0143027C212.879 0.0211041 213.115 0.025905 213.115 0.0279055C213.507 0.0267053 213.978 0.025105 214.37 0.0227045C214.056 0.0227045 213.9 0.0227045 213.664 0.0227045ZM214.292 0.0231045C214.527 0.0263052 214.92 0.0287056 215.626 0.0299058C215.626 0.0287056 215.704 0.0279055 215.783 0.0275054C215.861 0.0271053 215.94 0.025905 215.94 0.0251049C215.783 0.0235046 215.155 0.0231045 214.292 0.0231045ZM216.646 1.96989C216.646 1.97109 216.724 1.97149 216.96 1.97149L218.921 1.96629L218.294 1.96269C218.294 1.96389 218.058 1.96429 217.587 1.96429L216.96 1.96269C216.96 1.96389 216.881 1.96509 216.803 1.96629C216.724 1.96749 216.646 1.96869 216.646 1.96989ZM217.274 0.0263051C217.038 0.0275053 216.96 0.0291057 216.96 0.0315062L218.294 0.0351069C218.294 0.0327064 218.372 0.0315062 218.451 0.030706C218.529 0.030306 218.608 0.0295058 218.608 0.0283056C217.98 0.0279056 217.509 0.0275053 217.274 0.0263051ZM219.628 1.26015C218.764 1.26215 218.215 1.26575 218.137 1.27095C218.058 1.27656 218.294 1.27976 218.921 1.28136C219.863 1.27936 220.569 1.27535 221.118 1.26895C221.668 1.26255 221.197 1.25975 219.628 1.26015ZM231.947 1.9895C231.711 1.9911 231.868 1.9915 232.261 1.9903C232.261 1.9883 232.104 1.9879 231.947 1.9895ZM238.224 0.131126C238.224 0.132326 238.381 0.133126 238.538 0.133527C238.46 0.133927 238.381 0.133927 238.303 0.134727C237.91 0.137127 238.067 0.138327 238.852 0.137927C239.637 0.137527 239.793 0.136327 239.323 0.134327C239.166 0.133927 239.087 0.133927 239.009 0.133527C239.401 0.132726 239.637 0.131526 239.637 0.129126C238.93 0.129126 238.46 0.129926 238.224 0.131126ZM241.598 1.0117C240.892 1.0101 240.343 1.0105 239.95 1.0125C239.872 1.0109 239.95 1.0093 239.637 1.0077C238.93 0.9985 238.067 0.9993 237.126 1.0105C236.184 1.0217 236.655 1.02571 238.46 1.0221C238.93 1.0213 239.087 1.0197 239.323 1.0189C239.166 1.02571 239.637 1.03051 240.892 1.03331C241.677 1.0237 241.912 1.0165 241.598 1.0117ZM245.051 0.0443087C244.737 0.0439086 244.266 0.0427085 243.795 0.0419084C243.795 0.0379076 243.717 0.0339066 243.638 0.0299058C243.481 0.0303059 243.246 0.0311061 243.089 0.0315062C242.854 0.0327064 242.54 0.0339067 242.069 0.0351069V0.0435085C242.775 0.0447087 243.246 0.0479095 243.717 0.0539107C243.795 0.0535107 243.874 0.0531106 243.874 0.0527105C243.874 0.0511103 243.952 0.0499098 244.031 0.0487096H244.423C244.737 0.0471094 244.972 0.0455089 245.051 0.0443087C245.129 0.0443087 245.129 0.0443087 245.051 0.0443087ZM255.801 0.123925C255.33 0.123925 255.251 0.125125 255.487 0.127525C255.722 0.128726 255.958 0.128726 256.35 0.127926C256.664 0.127125 256.821 0.126325 256.821 0.125125C256.585 0.124325 256.271 0.123925 255.801 0.123925ZM272.2 1.95789C271.729 1.95909 271.494 1.96029 271.337 1.96149C271.259 1.96269 271.102 1.96389 270.866 1.96509C271.337 1.96629 271.729 1.96669 272.2 1.96669V1.95789ZM336.621 1.85347C336.386 1.85227 336.15 1.85227 335.758 1.85307C335.444 1.85387 335.287 1.85467 335.287 1.85587C335.523 1.85707 335.836 1.85747 336.307 1.85747C336.778 1.85707 336.856 1.85587 336.621 1.85347ZM353.884 1.84987C353.884 1.84867 353.727 1.84787 353.57 1.84747C353.648 1.84707 353.727 1.84707 353.805 1.84627C354.198 1.84387 354.041 1.84267 353.256 1.84307C352.471 1.84347 352.314 1.84467 352.785 1.84667C353.021 1.84747 353.099 1.84747 353.177 1.84787C352.785 1.84867 352.55 1.84987 352.55 1.85227C353.256 1.85187 353.648 1.85107 353.884 1.84987ZM353.727 0.958892C353.256 0.959692 353.099 0.961292 352.864 0.962092C353.021 0.955291 352.55 0.95049 351.294 0.947689C350.51 0.957291 350.274 0.964493 350.667 0.968894C351.373 0.970494 351.922 0.970094 352.314 0.968094C352.393 0.969694 352.314 0.971294 352.628 0.972894C353.334 0.982096 354.198 0.981296 355.139 0.970094C355.924 0.959292 355.532 0.955291 353.727 0.958892ZM373.186 0.69964C372.245 0.70164 371.539 0.705641 370.989 0.712042C370.44 0.718444 370.911 0.721244 372.48 0.720844C373.343 0.718844 373.893 0.715243 373.971 0.710042C374.05 0.704441 373.814 0.70124 373.186 0.69964ZM377.973 1.96309C377.973 1.96549 377.894 1.96669 377.816 1.96749C377.738 1.96789 377.659 1.96869 377.659 1.96989C378.287 1.96989 378.758 1.97029 378.993 1.97149C379.228 1.97029 379.307 1.96869 379.307 1.96629L377.973 1.96309ZM383.309 1.96989C382.916 1.97109 382.445 1.97269 382.053 1.9751C382.053 1.9751 382.053 1.9751 381.975 1.9751C381.739 1.97189 381.347 1.96949 380.641 1.96829C380.641 1.96949 380.562 1.97029 380.484 1.97069C380.405 1.97109 380.327 1.97229 380.327 1.97309C380.484 1.97389 381.112 1.97429 381.975 1.97469C381.975 1.97469 381.975 1.97469 382.053 1.97469C382.289 1.97469 382.446 1.97469 382.681 1.97469C382.681 1.9771 382.759 1.9783 382.838 1.9791C382.995 1.9795 382.995 1.9807 382.995 1.9815C383.23 1.9815 383.387 1.9819 383.466 1.9823C383.622 1.9827 383.779 1.9831 383.936 1.9831C383.544 1.9771 383.309 1.97229 383.309 1.96989ZM386.133 0.127125L385.506 0.129126C385.506 0.127926 385.427 0.127125 385.349 0.126725C385.27 0.126325 385.192 0.125525 385.192 0.124325C384.956 0.124325 384.799 0.125125 384.564 0.126325C384.799 0.127525 384.956 0.128326 385.113 0.129526C385.27 0.130726 385.427 0.131526 385.663 0.132727C385.27 0.137527 385.113 0.140328 385.113 0.141528L386.133 0.141128C386.133 0.143529 386.133 0.145929 386.055 0.14873C385.976 0.15153 385.976 0.154331 385.976 0.156331C386.212 0.156331 386.369 0.155931 386.447 0.155131C386.526 0.154331 386.683 0.154331 386.918 0.153931C386.918 0.15153 386.918 0.14993 386.997 0.14873C387.075 0.147529 387.154 0.145929 387.075 0.143529C386.447 0.137527 386.212 0.131926 386.133 0.127125ZM384.956 1.9751C384.956 1.9763 385.035 1.9771 385.113 1.9775C385.27 1.9779 385.27 1.9791 385.27 1.9799C384.799 1.9823 384.564 1.9839 384.564 1.9851C384.799 1.9851 385.192 1.9835 385.898 1.9799V1.9871C386.369 1.9859 386.761 1.9847 387.232 1.9827C387.703 1.9811 388.095 1.9795 388.566 1.9783C387.546 1.9787 386.29 1.9775 384.956 1.9751ZM405.907 1.81386L405.829 1.80706C404.965 1.80946 404.338 1.80866 403.788 1.80426C403.553 1.80546 403.396 1.80626 403.318 1.80626C403.239 1.80626 403.082 1.80706 402.847 1.80826C403.318 1.80946 403.631 1.80986 403.867 1.80986C404.102 1.80986 404.416 1.81026 404.887 1.81106C404.495 1.81226 404.181 1.81346 404.102 1.81466C404.024 1.81586 403.788 1.81746 403.318 1.81986C404.652 1.81706 405.358 1.81586 405.593 1.81586L405.672 1.81906C406.064 1.81786 406.535 1.81586 406.927 1.81346L405.907 1.81386ZM413.44 0.015503C413.675 0.0139028 413.518 0.0135027 413.126 0.0147029C413.126 0.0171034 413.204 0.0175035 413.44 0.015503ZM417.363 1.80186C416.735 1.80226 416.108 1.80066 415.637 1.79706L415.715 1.80386C415.244 1.80266 414.774 1.80226 414.381 1.80266C413.911 1.80266 413.518 1.80226 413.047 1.80146L413.126 1.80666L412.42 1.80346C412.184 1.80466 411.714 1.80666 410.85 1.80906C411.321 1.80906 411.713 1.80866 412.027 1.80786C412.341 1.80706 412.734 1.80666 413.204 1.80666C413.44 1.80786 413.597 1.80866 413.597 1.80906C413.597 1.80946 413.754 1.81026 413.989 1.81146C414.224 1.81146 414.774 1.81026 415.637 1.80746C416.108 1.80946 416.421 1.80986 416.657 1.80866C416.892 1.80746 417.206 1.80666 417.598 1.80666L417.363 1.80186ZM418.462 1.80906L418.54 1.81426C417.912 1.81426 417.128 1.81466 416.343 1.81426C415.558 1.81386 414.852 1.81506 414.224 1.81746C413.361 1.81666 412.341 1.81586 411.4 1.81586C410.38 1.81546 409.595 1.81706 408.967 1.82106C409.438 1.82426 410.458 1.82466 411.949 1.82186C413.047 1.81906 414.067 1.81906 415.088 1.82106C416.108 1.82306 417.128 1.82346 418.226 1.82186C418.619 1.81946 418.854 1.81746 419.011 1.81546C419.089 1.81386 419.246 1.81186 419.403 1.80946L418.462 1.80906ZM446.396 1.9823V1.9771C445.768 1.97469 445.062 1.97469 444.434 1.9771L446.396 1.9823ZM446.553 1.96309V1.95949C446.474 1.95949 446.474 1.95989 446.474 1.95989C446.396 1.96149 446.474 1.96229 446.553 1.96309ZM446.082 1.95829C446.082 1.95589 446.003 1.95509 445.768 1.95589C445.533 1.95629 445.454 1.95749 445.454 1.95829C445.454 1.96069 445.533 1.96149 445.768 1.96069C446.003 1.95989 446.082 1.95909 446.082 1.95829ZM443.806 1.9823C443.335 1.9799 443.022 1.9779 442.786 1.9755C442.315 1.9779 442.158 1.9799 442.158 1.9823H443.806ZM438.471 1.97349C438.941 1.97229 439.334 1.97189 439.804 1.97189C439.804 1.97069 439.726 1.96989 439.648 1.96949C439.569 1.96869 439.491 1.96789 439.491 1.96709H438.471V1.97349ZM431.722 1.80426L431.644 1.80066C431.879 1.80066 432.115 1.80066 432.35 1.80146C432.586 1.80186 432.821 1.80226 433.056 1.80226C433.292 1.80106 433.449 1.80026 433.684 1.80026C433.919 1.80026 434.076 1.79906 434.312 1.79666L433.606 1.79346L433.684 1.79866C432.978 1.79986 432.272 1.80066 431.487 1.80026C431.252 1.80026 431.095 1.79986 430.859 1.79986C431.173 1.80026 431.487 1.80186 431.722 1.80426ZM427.485 1.9803C427.485 1.9779 427.328 1.9779 427.171 1.9803C426.936 1.9827 427.093 1.9827 427.485 1.9803ZM423.562 1.79146C423.562 1.79386 423.719 1.79386 423.876 1.79146C424.111 1.78906 424.033 1.78906 423.562 1.79146ZM428.427 0.0335065L426.465 0.0387076L427.093 0.0423083C427.093 0.0411081 427.328 0.0407079 427.799 0.0407079L428.427 0.0423083C428.427 0.0411081 428.505 0.0399078 428.584 0.0387076C428.741 0.0375074 428.741 0.0363071 428.741 0.0351069C428.741 0.0343068 428.584 0.0335065 428.427 0.0335065ZM429.29 1.79826C428.819 1.79826 428.427 1.79906 427.956 1.80026C427.564 1.80146 427.093 1.80266 426.701 1.80426L426.622 1.79906C425.367 1.79946 424.739 1.80106 424.66 1.80426C424.582 1.80266 424.347 1.80186 423.954 1.80266C423.562 1.80346 423.091 1.80306 422.62 1.80226C422.463 1.80586 422.62 1.80706 423.17 1.80626C423.719 1.80546 424.19 1.80506 424.582 1.80506C424.582 1.80546 424.582 1.80626 424.66 1.80666C426.622 1.80586 428.191 1.80426 429.29 1.80186C429.682 1.80066 429.996 1.79986 430.31 1.79946C429.996 1.79906 429.682 1.79866 429.29 1.79826ZM433.056 0.0455091C431.958 0.0455091 431.173 0.0471092 430.702 0.05071C430.938 0.0495098 431.33 0.0491098 432.036 0.0491098V0.0527105H433.056L432.743 0.0491098C432.899 0.0491098 433.056 0.0479096 433.056 0.0455091ZM435.881 0.0531105C435.96 0.0523103 436.038 0.0515101 436.038 0.05071C435.567 0.0495098 435.175 0.0483094 434.704 0.0471092C434.233 0.045909 433.841 0.0455091 433.37 0.0455091C433.841 0.0479096 434.233 0.0499099 434.547 0.0515102C434.861 0.0531105 435.018 0.0551109 435.018 0.0575114C435.018 0.0611122 435.567 0.0639126 436.666 0.0659131C437.137 0.0615122 437.372 0.0583116 437.372 0.0575114C437.137 0.0563112 436.587 0.0559111 435.724 0.0559111C435.724 0.0547109 435.724 0.0539106 435.881 0.0531105ZM437.294 1.80106C438.392 1.80066 439.334 1.80226 440.04 1.80546L439.961 1.80026L442.315 1.79946C443.257 1.80146 443.806 1.80306 444.042 1.80426C444.512 1.80426 444.669 1.80306 444.669 1.80066L443.963 1.79906C444.356 1.79666 444.669 1.79586 444.905 1.79706C446.003 1.79666 446.788 1.79706 447.259 1.79786V1.79626C446.553 1.79546 445.846 1.79466 445.062 1.79426C444.277 1.79386 443.649 1.79506 443.257 1.79746C443.022 1.79626 442.865 1.79466 442.865 1.79226L441.923 1.79786C441.452 1.79666 441.06 1.79626 440.589 1.79666C440.197 1.79906 439.648 1.79986 438.941 1.79866C438.314 1.79786 437.764 1.79866 437.294 1.80106ZM439.177 0.0679134C439.334 0.0691136 439.569 0.0703139 440.04 0.0715141V0.0631125C439.569 0.0631125 439.177 0.0635127 438.706 0.0647129C438.941 0.065513 439.098 0.0667132 439.177 0.0679134ZM440.668 0.0251049C440.197 0.0263051 439.961 0.0271053 439.804 0.0275054C439.726 0.0279055 439.412 0.0291057 438.941 0.0299058C438.706 0.0323063 438.863 0.0335065 439.412 0.0335065C439.961 0.0335065 440.432 0.0339067 440.903 0.0351069C440.981 0.030706 440.903 0.0275054 440.668 0.0251049ZM449.299 0.0251049C448.2 0.0275054 447.102 0.0275054 446.16 0.0251049C445.14 0.0227044 444.12 0.0223043 443.022 0.0235045C442.551 0.025905 442.315 0.0279056 442.158 0.0295058C442.08 0.0311061 441.923 0.0331066 441.688 0.0355071H442.708V0.030306C443.414 0.030306 444.12 0.030706 444.905 0.0311061C445.689 0.0315062 446.396 0.030706 447.102 0.0287056C447.965 0.0299058 448.907 0.030706 449.927 0.0311061C450.947 0.0315062 451.731 0.030306 452.438 0.0267053C451.888 0.0231045 450.868 0.0227044 449.299 0.0251049ZM456.596 0.0231045C456.596 0.0243047 456.832 0.0271053 457.302 0.0315062C457.773 0.0291057 458.166 0.0275053 458.636 0.0263051C457.773 0.0243046 457.067 0.0231045 456.596 0.0231045ZM465.228 0.0231045C464.757 0.0231045 464.364 0.0219043 463.894 0.0195038L461.932 0.0247049V0.0299058C462.167 0.0287056 462.403 0.0279055 462.638 0.0275054C462.874 0.0271053 463.109 0.025905 463.266 0.0251049L465.228 0.030306C465.463 0.0291058 465.698 0.0283055 465.855 0.0279055C466.091 0.0275054 466.326 0.0263052 466.562 0.0255051C466.169 0.0239048 465.698 0.0231045 465.228 0.0231045ZM472.682 0.604021C472.603 0.597619 472.29 0.594419 471.662 0.594019C471.976 0.593619 472.133 0.592419 471.976 0.590418C471.819 0.588018 471.897 0.586017 472.054 0.583617C471.348 0.582816 471.113 0.583617 471.27 0.586417C471.426 0.589218 471.505 0.591618 471.505 0.594019C471.426 0.594019 471.27 0.594019 471.191 0.594419C471.27 0.604821 471.583 0.612823 472.133 0.618024C472.368 0.620024 472.525 0.621624 472.603 0.623225C472.682 0.621224 472.76 0.619224 472.839 0.617623C472.839 0.615223 472.682 0.613223 472.447 0.610822C472.211 0.608822 471.976 0.606421 471.74 0.604021H472.682ZM469.779 0.547209C469.465 0.547209 469.151 0.546809 468.837 0.546009C468.68 0.546009 468.602 0.545609 468.523 0.545609C468.209 0.55041 468.209 0.555611 468.445 0.560812C468.916 0.562812 469.308 0.564413 469.622 0.564813C469.936 0.565213 470.328 0.566013 470.799 0.566813L470.72 0.561612L469.7 0.562012C469.622 0.558812 469.622 0.554811 469.7 0.55081C469.779 0.54961 469.779 0.54841 469.779 0.547209ZM471.662 0.547609C471.662 0.547209 471.74 0.547209 471.74 0.546809L470.877 0.547209C470.563 0.54921 470.563 0.55041 470.72 0.55161C470.956 0.55281 471.113 0.554411 471.113 0.556811L472.133 0.556411C472.054 0.55281 472.368 0.55001 472.996 0.547609H471.662ZM472.76 0.640028C472.525 0.636827 472.368 0.632826 472.447 0.628826C472.447 0.627625 472.525 0.626425 472.525 0.625625C472.368 0.627225 472.133 0.628826 471.662 0.630026L472.29 0.629626C472.29 0.630826 472.29 0.632026 472.211 0.633227C472.133 0.634427 472.054 0.635627 472.054 0.636827C472.29 0.638028 472.368 0.638828 472.447 0.640028C472.447 0.641228 472.682 0.642429 473.153 0.643229L473.78 0.639628L472.76 0.640028ZM472.917 0.683237C473.074 0.680836 473.231 0.678436 473.153 0.676435C472.682 0.674435 472.525 0.671634 472.682 0.668033C472.839 0.664433 472.76 0.661632 472.29 0.659632C472.368 0.665233 472.054 0.670034 471.426 0.673635L472.447 0.673235L472.603 0.685237C472.211 0.690038 471.897 0.692839 471.74 0.694039C471.74 0.696439 471.976 0.697239 472.447 0.697239L472.76 0.693639C473.231 0.695639 473.388 0.697639 473.153 0.69884C473.231 0.704441 473.153 0.708441 472.996 0.710842H473.31C473.467 0.707241 473.624 0.703641 473.702 0.69964C473.78 0.695639 473.545 0.692438 473.074 0.690438C473.31 0.689238 473.624 0.688438 474.016 0.688438L472.917 0.683237ZM493.476 1.9799C493.005 1.9799 492.691 1.9803 492.455 1.9815C492.455 1.9827 492.612 1.9835 492.926 1.9839C493.24 1.9843 493.554 1.9843 493.789 1.9831C494.025 1.9811 493.946 1.9799 493.476 1.9799ZM501.95 0.0243047C501.401 0.0235046 500.93 0.0235045 500.459 0.0235045C500.459 0.025905 500.616 0.0275054 500.773 0.0287056C501.244 0.0275054 502.028 0.0279055 503.127 0.030306C502.892 0.0267053 502.499 0.0247048 501.95 0.0243047ZM503.362 1.78146C502.813 1.78106 502.264 1.78106 501.871 1.78106C501.871 1.78346 502.028 1.78506 502.264 1.78626C502.656 1.78506 503.441 1.78546 504.618 1.78746C504.304 1.78346 503.912 1.78186 503.362 1.78146ZM506.109 0.0147029C506.109 0.0171034 506.266 0.0171034 506.422 0.0147029C506.658 0.0123024 506.579 0.0123024 506.109 0.0147029ZM507.364 1.77065C507.364 1.77305 507.521 1.77305 507.678 1.77065C507.913 1.76825 507.835 1.76825 507.364 1.77065ZM510.738 0.0267053C510.738 0.0291058 510.895 0.0291058 511.052 0.0267053C511.366 0.0243047 511.209 0.0243047 510.738 0.0267053ZM511.052 1.9851C510.974 1.9843 510.895 1.9843 510.817 1.9839C510.974 1.9835 511.052 1.9827 511.052 1.9815C510.817 1.9803 510.424 1.9799 509.718 1.9799C509.718 1.9823 509.954 1.9835 510.346 1.9839C510.267 1.9843 510.189 1.9843 510.032 1.9847C509.561 1.9871 509.797 1.9883 510.503 1.9883C511.366 1.9883 511.523 1.9875 511.052 1.9851ZM512.151 1.78146C512.151 1.78386 512.307 1.78386 512.464 1.78146C512.7 1.77866 512.621 1.77866 512.151 1.78146ZM525.176 1.9843C524.627 1.9835 523.999 1.9835 523.371 1.9835V1.9883C523.842 1.9883 524.156 1.9887 524.391 1.9891C524.627 1.9895 524.941 1.9899 525.411 1.9899C525.882 1.9887 526.118 1.9875 526.275 1.9863C526.431 1.9851 526.588 1.9839 526.745 1.9827C526.274 1.9843 525.725 1.9847 525.176 1.9843ZM527.373 1.9851V1.9903H529.335L527.373 1.9851ZM532.944 1.13613C532.944 1.13853 533.18 1.13813 533.572 1.13573C533.101 1.13373 532.866 1.13373 532.944 1.13613ZM564.488 0.00990176C563.389 0.0123023 562.291 0.0123023 561.349 0.00990176C560.329 0.00750124 559.309 0.00710142 558.21 0.00830162C557.74 0.0107021 557.504 0.0127025 557.347 0.0143027C557.269 0.015903 557.112 0.0179034 556.876 0.020304H557.896V0.0151029C558.524 0.0151029 559.309 0.015503 560.094 0.0159031C560.878 0.0163032 561.584 0.0155029 562.291 0.0135025C563.154 0.0147027 564.095 0.015503 565.115 0.0159031C565.508 0.0159031 565.743 0.0159031 566.057 0.015503V0.00910175C565.586 0.00910175 565.115 0.00910163 564.488 0.00990176ZM565.586 1.74825C564.488 1.75105 563.468 1.75105 562.448 1.74905C561.427 1.74705 560.407 1.74665 559.309 1.74825C558.917 1.75065 558.681 1.75265 558.524 1.75465C558.446 1.75625 558.289 1.75825 558.132 1.76065L559.152 1.76025L559.073 1.75505C559.701 1.75465 560.486 1.75465 561.271 1.75505C562.055 1.75545 562.761 1.75425 563.389 1.75185C564.252 1.75265 565.272 1.75345 566.214 1.75345C567.234 1.75385 568.019 1.75225 568.646 1.74825C568.176 1.74585 567.156 1.74545 565.586 1.74825ZM588.812 1.36657C588.577 1.36777 588.42 1.36857 588.185 1.36937C587.949 1.37017 587.792 1.37097 587.557 1.37217C586.615 1.37017 586.066 1.36937 585.831 1.36937L585.909 1.37457C585.438 1.37457 584.967 1.37457 584.418 1.37417C583.869 1.37377 583.398 1.37377 582.927 1.37377C582.927 1.37498 583.006 1.37578 583.084 1.37618C583.241 1.37658 583.241 1.37738 583.32 1.37858C583.79 1.37858 584.104 1.37858 584.34 1.37898C584.575 1.37938 584.889 1.37978 585.36 1.37938C586.694 1.37658 587.792 1.37538 588.655 1.37497L588.263 1.37177C588.498 1.37177 588.655 1.37137 588.734 1.37097C588.812 1.37017 588.969 1.37017 589.205 1.36977C589.205 1.36857 589.048 1.36777 588.812 1.36657ZM589.048 1.60542C588.891 1.60502 588.891 1.60422 588.812 1.60302C588.341 1.60302 588.028 1.60302 587.792 1.60262C587.557 1.60222 587.243 1.60182 586.772 1.60222C585.438 1.60502 584.34 1.60622 583.477 1.60662L583.869 1.60982C583.634 1.60982 583.477 1.61022 583.398 1.61062C583.32 1.61142 583.163 1.61142 582.927 1.61182C582.927 1.61302 583.084 1.61422 583.32 1.61502C583.555 1.61382 583.712 1.61302 583.947 1.61222C584.183 1.61142 584.34 1.61062 584.575 1.60942C585.517 1.61142 586.066 1.61222 586.301 1.61222L586.223 1.60702C586.694 1.60702 587.164 1.60702 587.714 1.60742C588.263 1.60782 588.734 1.60782 589.205 1.60782C589.205 1.60702 589.126 1.60622 589.048 1.60542ZM599.17 1.63303C598.934 1.63343 598.777 1.63383 598.542 1.63383C598.464 1.63383 598.464 1.63423 598.385 1.63423C598.15 1.63503 597.914 1.63623 597.679 1.63863H599.327C599.405 1.63703 599.327 1.63503 599.17 1.63303ZM608.115 1.0173C608.272 1.0145 608.272 1.0117 608.272 1.0097C607.801 1.0097 607.487 1.0105 607.252 1.0113C607.487 1.0137 607.409 1.0177 606.938 1.0233C607.644 1.0221 607.958 1.0201 608.115 1.0173ZM607.644 1.06451C608.115 1.06571 608.115 1.06491 607.644 1.06291C607.173 1.06291 607.173 1.06331 607.644 1.06451ZM607.016 1.72545C607.016 1.72504 607.095 1.72464 607.095 1.72424C606.938 1.72424 606.703 1.72464 606.389 1.72545H607.016ZM606.31 1.81626C606.781 1.81746 606.781 1.81666 606.31 1.81466C605.918 1.81466 605.918 1.81506 606.31 1.81626ZM604.741 1.65223H605.761C605.761 1.65583 605.683 1.65943 605.604 1.66343C605.526 1.66743 605.683 1.67103 606.075 1.67463C605.839 1.67904 605.683 1.68424 605.604 1.68904C605.526 1.69424 605.761 1.69864 606.467 1.70184C607.095 1.69944 607.252 1.69424 606.781 1.68624C606.31 1.68064 606.31 1.67503 606.781 1.66983C607.252 1.66463 607.33 1.65943 607.095 1.65343C606.624 1.65103 606.232 1.64983 605.918 1.64903C605.604 1.64863 605.212 1.64783 604.741 1.64663V1.65223ZM604.741 1.64383C605.604 1.64383 606.31 1.64343 606.703 1.64223C606.467 1.63983 606.31 1.63863 606.232 1.63783C606.153 1.63743 606.153 1.63703 606.075 1.63663C605.761 1.63663 605.447 1.63663 605.055 1.63703C604.976 1.63943 604.898 1.64183 604.741 1.64383ZM607.173 0.709242C607.173 0.709242 607.252 0.709242 607.252 0.709642C607.252 0.709242 607.173 0.709242 607.173 0.709242ZM607.33 0.711642C607.173 0.710842 607.016 0.709642 606.86 0.708042C606.624 0.707641 606.389 0.706841 606.075 0.706441H605.918V0.711242H606.938C606.938 0.713643 606.86 0.716043 606.86 0.718444C607.33 0.717643 607.723 0.716843 608.037 0.716843C607.801 0.714843 607.566 0.712842 607.33 0.711642ZM607.958 0.729246C608.115 0.727645 608.115 0.726045 608.194 0.724845C608.037 0.725245 607.88 0.725645 607.723 0.725645C607.33 0.724845 607.095 0.724045 606.781 0.723245C606.703 0.727245 606.86 0.730446 607.252 0.734047C607.016 0.738448 606.86 0.743649 606.781 0.74845C606.703 0.753651 606.938 0.758052 607.644 0.761252C608.272 0.758852 608.429 0.753651 607.958 0.745649C607.487 0.740048 607.487 0.734447 607.958 0.729246ZM606.624 0.786857C607.095 0.789258 607.409 0.791258 607.644 0.793659C608.115 0.789258 608.272 0.785657 608.272 0.783257C608.036 0.783257 607.487 0.784457 606.624 0.786857ZM607.958 0.810862H606.938C607.173 0.812062 607.33 0.813263 607.409 0.814463C607.487 0.815663 607.723 0.816863 607.88 0.818063L606.86 0.828466C607.095 0.829666 607.252 0.830866 607.33 0.832066C607.409 0.833266 607.644 0.834467 607.801 0.835667C608.037 0.833266 608.115 0.831266 608.115 0.828866C608.115 0.826465 608.35 0.824465 608.821 0.822064L607.958 0.810862ZM609.92 1.03891C609.449 1.03891 609.449 1.03931 609.92 1.04051C610.391 1.04171 610.391 1.04091 609.92 1.03891Z" fill="white"/>
</svg>
