<svg width="121" height="5" viewBox="0 0 121 5" fill="none" xmlns="http://www.w3.org/2000/svg">
<path d="M4.59617 2.92844C3.48236 3.09063 1.62275 2.97147 0 3.08069V3.21971C0.230983 3.26274 0.436519 3.26936 0.857378 3.2826C0.563756 3.62684 0.30341 3.57388 0.620523 3.8784L1.40939 3.90488L1.42113 4.22926C1.20581 4.23257 0.992445 4.21271 0.800611 4.17961C0.736014 4.29877 0.330815 4.24912 0 4.22926V4.28222L0.223153 4.2756C0.401284 4.36497 0.252515 4.40138 0 4.42124V4.56357C0.489371 4.55364 1.10794 4.4742 1.70301 4.47089C1.6345 4.35173 2.58388 4.12334 1.65603 4.08693C1.66778 3.95453 2.22175 3.89164 2.58584 3.89164C2.41749 3.94791 3.10653 4.18954 2.67001 4.30208C3.17895 4.22595 2.90882 4.33518 3.72314 4.27891C3.59394 4.36497 5.3224 4.29546 5.21474 4.5735C5.5064 4.45765 5.19908 4.15975 6.26199 4.15975C6.0036 3.96446 4.81933 3.91812 5.61407 3.72283L5.09729 3.8453C4.35736 3.746 5.29891 3.6467 4.33387 3.55402C4.61771 3.57057 5.19321 3.47127 5.32044 3.61029C5.07184 3.19654 6.75332 3.42493 6.8003 3.12372C7.01367 3.2495 7.29359 3.26605 7.82602 3.23957C7.7536 3.3488 8.04722 3.46134 7.63615 3.53416C7.29554 3.49444 7.0489 3.53747 6.67306 3.44148C6.88252 3.85192 8.04526 3.58712 8.92613 3.68642C8.80281 3.65332 8.76757 3.6136 9.0103 3.55733C9.54861 3.62684 10.7368 3.7129 10.3962 3.90157L13.1093 3.88502C13.121 3.98101 12.7217 3.92143 12.5573 3.94791L14.0724 3.9777C14.4267 4.1101 13.5575 4.10017 13.4049 4.22264L14.4971 4.22926L14.3444 4.35173C14.6126 4.27229 15.8713 4.24912 16.1767 4.45765C17.3746 4.41131 17.3531 3.99425 18.9739 4.19947C18.9152 4.40469 18.0578 4.26236 17.682 4.39145C17.9991 4.46758 18.9622 4.33187 19.1266 4.53047C20.2893 4.42455 20.1621 4.05714 20.7258 3.86185C21.6772 3.85854 20.8316 4.03728 20.8687 4.09686C21.1506 4.11341 21.6087 3.73938 21.8651 4.02073C22.3232 3.87509 22.5835 3.69966 21.9003 3.62353C22.4054 3.63346 23.1238 3.54078 23.251 3.45472C22.8419 3.75593 23.8285 3.58381 23.8852 3.83206C24.6506 3.89495 26.3419 3.99094 27.0583 3.66987L26.8469 4.00087L27.7395 3.97439C28.407 4.18292 26.9526 4.1763 26.5063 4.18954C27.718 4.23919 28.5284 4.22926 29.6207 4.23257C29.3016 4.15644 29.4915 4.09355 29.3388 3.98763C29.7146 3.85523 30.2294 3.96115 30.619 3.92805C30.7129 4.0108 30.666 4.08362 30.3606 4.10348L31.1103 4.07038C31.0516 4.2756 31.4157 4.27891 30.6757 4.40469L31.3687 4.34842C32.1341 4.41131 31.3354 4.51723 31.1455 4.58343L32.3553 4.63308C32.7898 4.52385 32.1086 4.44772 32.9425 4.40138C34.0583 4.59667 35.4814 4.54702 36.7498 4.61653L35.8572 4.41462C36.6226 4.47751 36.4679 4.14651 36.7028 4.00749C37.4095 4.04721 38.3589 4.0439 38.9579 4.13658C38.2766 4.28884 38.5585 4.53047 39.1928 4.68273C40.6256 4.72576 40.2733 4.36497 41.0739 4.25905C40.4514 4.65956 42.0742 4.41131 41.9332 4.62977C43.7537 4.6397 45.5859 4.51392 47.467 4.54702C47.4298 4.48744 46.8915 4.41793 47.2204 4.36166C47.9114 4.30539 48.2402 4.47751 48.3362 4.55695C49.2288 4.53047 49.7456 4.408 50.0392 4.29215C49.6516 4.32525 49.6164 4.26898 49.6868 4.15644C50.5794 4.13327 50.3328 4.40138 51.1784 4.22264C51.4016 4.44441 50.2369 4.32194 50.3191 4.53378C51.108 4.56026 51.6012 4.4742 52.1767 4.37159C52.3079 4.51392 51.6482 4.39807 52.0828 4.51723C53.3023 4.42455 54.7724 4.31532 55.6904 4.24912L55.9371 4.43448C56.5243 4.43117 56.9119 4.39476 57.182 4.31532C57.4991 4.39145 57.2525 4.43448 56.9471 4.45434C57.734 4.48082 58.6991 4.34511 59.1454 4.33187C59.0749 4.4411 58.6991 4.34511 58.5679 4.43117C59.5545 4.48744 60.7995 4.13989 61.4474 4.38483C61.3632 4.41462 61.2673 4.41793 61.1792 4.41793C62.6415 4.44772 63.9138 4.33187 65.5013 4.33187C66.9558 4.56688 65.9711 4.05383 67.404 4.09686C67.4138 4.58674 69.3537 4.14982 69.9585 4.24912L69.7667 4.1763C70.4734 3.98763 71.4482 4.1763 71.9415 4.31863C73.0103 4.36166 74.6095 4.3749 75.6764 4.18954L75.4649 4.29215C76.3478 4.17299 76.8978 4.33518 77.7806 4.21602C77.7572 4.25243 77.4263 4.3087 77.7689 4.34842C82.0225 4.55364 86.3583 4.28884 90.5983 4.39476C98.7179 4.60991 108.828 4.81844 116.819 4.53047C116.819 4.53047 121.229 4.85816 120.659 4.02073C120.342 3.9115 121.444 3.75262 120.787 3.69966L120.137 3.92805C120.244 3.81882 119.874 3.68311 119.802 3.5805C119.542 3.79896 120.636 3.95784 119.87 4.24912C119.714 4.36497 119.553 4.4742 118.555 3.01118C118.896 3.50768 117.919 3.07076 117.674 3.14358C117.269 3.0476 116.864 3.19985 116.678 3.05421C116.615 3.10386 116.302 3.13034 116.089 3.10386L116.067 3.03104C115.584 3.09062 116.232 3.10386 116.108 3.17999C115.758 3.19985 115.212 3.03435 114.642 3.03766C115.212 3.03435 115.685 2.93837 116.094 2.85893C115.055 2.7166 116.278 2.48159 116.509 2.29292C115.674 2.37236 115.355 2.50476 114.673 2.62392C113.843 2.45842 114.738 2.07777 114.947 2.05791C114.19 2.15721 113.395 2.3856 112.988 2.46173C113.552 2.17707 113.456 2.08439 113.965 1.856C113.356 1.68057 113.233 1.88579 112.941 1.99171C113.111 1.96523 113.372 1.95199 113.434 2.00826C112.712 1.97516 112.835 2.42532 112.459 2.61399C111.96 2.49483 111.042 2.42532 110.976 2.20355L110.982 2.43525C110.355 2.49483 110.657 2.2863 110.559 2.19362C110.326 2.38229 110.617 2.66364 109.56 2.72322C109.723 2.27306 108.619 2.67357 108.648 2.25982C108.155 2.27968 107.932 2.50807 107.417 2.45511C106.849 2.21348 108.194 1.90565 108.501 1.97847C109.214 1.97516 108.407 2.16714 108.693 2.16714L109.374 2.05129C108.995 1.95861 108.249 1.84938 108.341 1.66402C107.648 1.74346 108.899 1.86593 108.139 1.96523L107.681 1.856C106.922 1.9553 107.84 2.17376 106.851 2.21679C107.513 2.02481 105.779 2.20355 105.837 1.90234C105.798 2.27968 104.064 1.93213 103.858 2.23334L104.383 2.32271L104.265 2.1539C104.835 2.15059 105.309 2.0546 105.898 2.12742C105.436 2.25982 106.057 2.44518 105.518 2.56103C104.506 2.77287 105.248 2.35581 105.105 2.35581L104.301 2.54779L104.847 2.71329C104.22 2.77287 103.365 2.77949 102.5 2.74639C101.222 2.51138 102.656 2.53786 101.74 2.3194C101.331 2.39553 101.431 2.49152 100.85 2.45511C101.163 2.56434 101.409 2.41539 101.627 2.43194C101.909 2.67357 100.585 2.53124 100.644 2.75632C100.405 2.66364 100.45 2.57096 100.64 2.47497C99.6614 2.55441 98.7199 2.50476 98.3538 2.20686L97.931 2.49152C96.2554 2.36905 99.0761 2.23996 97.6667 2.04136C97.0854 2.00826 96.5138 2.01157 96.2593 2.12411L96.7624 2.14066C96.3767 2.29292 96.4061 2.40546 95.7915 2.50145C95.353 2.46504 95.5879 2.27637 95.0594 2.43194C93.9925 2.28961 94.3684 2.0877 94.6718 1.87917C94.2294 1.89903 93.6558 1.88579 93.5795 2.00495C93.5717 1.93544 93.6441 1.80635 93.8947 1.73684C94.7971 2.04467 94.2431 1.43894 94.615 1.76001L94.8147 1.76994C94.8343 1.75339 94.8499 1.73684 94.8636 1.72029C94.478 1.65409 94.476 1.55479 94.5719 1.46873L94.2137 1.60113L93.9455 1.3264C93.6069 1.28668 93.3818 1.52169 93.1939 1.3595C92.6869 1.12118 93.9338 1.00202 92.6908 0.8961C91.3597 0.80011 91.4419 1.24365 90.5376 1.17083C90.6296 1.25027 90.8547 1.24696 91.1366 1.2602C90.8429 1.37605 91.3597 1.48197 90.8645 1.56803C90.5826 1.3264 89.6313 1.3264 88.9031 1.32309C89.0929 1.194 88.6271 1.05829 88.8541 0.988779C88.4861 1.01526 88.1455 1.05167 87.987 1.15759C89.4668 1.35619 86.5541 1.34295 87.7031 1.59782C86.5502 1.57134 86.327 1.34957 85.6125 1.21386C85.6595 1.14104 86.9397 1.08146 85.9179 0.965609C84.7415 1.20393 86.1274 1.31978 85.2132 1.60775L85.9531 1.70705C86.0452 2.01488 84.6729 1.76663 84.4831 1.83283C84.027 1.75008 85.1193 1.75339 84.673 1.54155C83.9917 1.46542 83.6492 1.65409 83.2146 1.53493C83.6374 1.33302 83.3693 1.40915 83.8508 1.23041C82.2535 1.21386 83.933 0.988779 82.7115 0.84314C82.324 0.87955 82.5706 1.0616 81.9462 1.00864C82.3103 1.23703 82.2652 1.31316 83.2753 1.32971C82.923 1.65078 81.9462 1.23372 81.2415 1.42239C81.8072 1.45549 81.4176 1.48859 82.0303 1.44887C82.1126 1.7236 82.3396 1.76663 81.7817 2.01488C82.4375 1.94868 82.7213 1.66071 83.6629 1.75008C83.9213 2.03143 82.5099 1.94868 82.5001 2.30947C82.0323 2.4849 80.895 2.3194 80.3763 2.18038C79.4641 2.39222 78.3464 2.38229 77.6475 2.69674C76.9879 2.5842 75.3436 2.53786 74.0986 2.42863C73.9146 2.27306 72.6638 2.30285 73.2647 2.1539C73.0063 2.19362 72.2273 2.22341 72.4661 2.35581C72.5718 2.30616 72.6892 2.34919 72.9124 2.34257L72.7147 2.54117C72.1157 2.4518 71.4443 2.69674 70.8688 2.56765C70.6808 2.40546 71.9493 2.47828 71.5617 2.28299C71.0097 2.57427 68.7547 2.67357 68.0363 2.53786C67.5547 2.49152 67.498 2.23996 67.2964 2.21017L66.4879 2.2201C66.392 2.13735 66.3803 2.04136 66.2295 1.93875C65.8302 1.87917 65.5601 1.95861 65.3115 2.00164C64.2544 1.82952 64.8182 1.63092 65.3604 1.47204L65.9574 1.56472C66.392 1.45549 67.0164 1.51176 66.6504 1.28337C66.347 1.30323 66.3587 1.39922 66.2511 1.44887L65.9007 1.31647C65.5483 1.40915 64.5715 1.44887 64.6772 1.62761C63.9628 1.4919 63.1406 1.63423 62.5044 1.48528C62.939 1.60444 62.387 1.66733 62.5162 1.80966L63.2796 1.87255C62.6689 1.91558 61.788 2.03474 61.2125 1.90565C61.283 1.79642 61.3065 1.76001 61.0148 1.64747C61.4259 1.80304 59.946 1.83283 60.8367 2.03805C61.1655 1.98178 61.4709 1.96192 61.8957 1.98509C62.1736 2.23003 61.5061 2.24658 61.1303 2.37898C60.6605 2.42863 59.7424 2.49152 59.1082 2.56765C58.7089 2.50807 58.5914 2.23334 57.9102 2.3856C58.7793 2.62392 57.0881 2.75632 56.863 2.99132C56.2052 2.87879 55.7942 3.17668 55.2657 2.97478C55.5358 2.89534 56.5459 2.9152 56.8042 2.73977C56.8414 2.57096 56.5811 2.28961 57.5794 2.21348C56.3795 2.11418 56.8747 2.34919 56.3207 2.41208L56.7318 2.39553C56.5439 2.46173 56.8982 2.59413 56.5322 2.59413C55.1228 2.51469 54.8761 2.32933 53.9228 2.10425C54.1342 2.23003 53.6997 2.33926 53.4765 2.34588C52.5604 2.18038 53.4883 1.98509 52.9265 1.72691C52.6074 1.87917 51.9849 1.82621 52.1963 1.95199C51.8342 1.95199 52.0221 1.88579 51.7618 1.83283C51.5269 1.97185 51.2548 2.05129 50.7517 2.04136C50.7967 1.96854 50.8672 1.85931 51.3507 1.90565C50.8104 1.83614 50.6127 1.57796 50.8457 1.43894L51.7265 1.54486C52.1259 1.37605 50.9044 1.4588 50.9396 1.28999C51.3272 1.25358 51.6208 1.36612 51.8675 1.32309C51.6208 1.13773 50.8574 1.30323 50.4111 1.31647C49.7064 1.27675 49.9648 1.10132 49.953 1.00533C48.7531 1.28006 51.3389 1.34957 50.2212 1.61106C49.7984 1.81297 48.7296 1.77325 47.9779 1.80635C48.6239 2.05129 47.9055 2.14397 47.1304 2.21348C48.1404 2.23334 47.3887 2.49483 48.575 2.3525L48.5985 2.54448C48.0934 2.53455 47.4944 2.44518 46.9894 2.43525C47.0951 2.3856 46.9777 2.33926 47.1441 2.30947L45.6387 2.37567L45.7914 2.2532C44.8636 2.2201 43.7243 2.05791 43.1704 2.12411C43.6167 2.11087 44.0042 2.30285 43.5364 2.3525C43.2663 2.43194 42.773 2.518 42.3502 2.49483C42.127 2.27306 40.5278 2.25651 41.5398 2.05129C40.2361 2.14728 40.7176 2.19362 39.4707 2.31278L40.3046 2.26644C40.4103 2.44187 39.7154 2.72653 40.516 2.849C39.5764 2.9483 40.1754 2.60406 38.9167 2.62723C38.4058 2.51469 39.0694 2.93836 39.7761 2.90196C39.4198 2.8821 39.0968 2.7828 38.7288 2.89865C38.4607 2.7497 39.3983 2.65371 39.3631 2.59413C38.7171 2.57758 39.3748 2.69012 38.7641 2.72984C37.6953 2.91519 38.0829 1.76332 37.0591 1.87586C37.2822 1.86924 37.6816 1.93213 37.4114 2.01157C36.0373 1.99171 36.6461 2.17707 35.6497 2.2532C35.086 1.99171 35.3326 1.72029 34.4302 1.65078L34.9333 1.66071C34.5809 1.52831 34.1816 1.46542 33.8175 1.46542C31.9383 1.66071 30.386 2.02812 28.4481 2.20355L29.1411 2.14728C29.376 2.23665 28.5636 2.24658 28.5754 2.34257L28.1428 2.22341C28.0233 2.40546 29.1176 2.41208 28.8572 2.58751C28.7985 2.56434 28.6576 2.55772 28.5754 2.57096L28.9747 2.63054C28.0684 2.56103 27.3519 2.87879 26.6707 2.57427C28.4344 2.56103 26.9409 2.03805 28.6674 1.96854C27.7532 2.03143 28.5049 1.76994 28.4109 1.68719C27.9294 1.64085 28.1741 1.82621 27.6338 1.7567C27.6456 1.6243 28.8103 1.51838 28.2935 1.41246C28.2348 1.61768 27.7532 1.57134 27.5183 1.71036C27.119 1.65078 27.5281 1.57796 27.3519 1.51176C27.1288 1.51838 26.9996 1.60775 26.7999 1.57465L26.9506 1.44887C25.8368 1.25358 26.61 1.63754 25.3436 1.56803C25.3083 1.73684 25.6959 1.70043 26.2244 1.67395C26.4926 2.05129 24.5919 2.0546 24.6956 2.45842C23.4976 2.50476 25.0127 2.30616 23.9909 2.19031C23.4272 1.93213 24.7426 1.92882 25.003 1.75339L23.944 1.58127C24.2983 1.2602 24.956 1.37274 25.1439 1.08146C24.357 1.05498 24.4509 1.13773 23.6503 1.24365C24.9423 1.50514 23.0866 1.43894 23.8265 1.76663C23.2275 1.67726 23.4154 1.61106 22.5463 1.59782C23.0983 1.53493 22.5678 1.33302 23.298 1.33633C22.1235 1.34626 22.4406 1.41908 21.2661 1.42901C20.9001 1.65409 22.4523 1.74346 21.041 1.89241C20.7356 1.8891 20.7963 1.80304 20.9744 1.80635C19.9663 1.70374 21.1819 2.09432 20.5477 2.20355C20.1073 2.22672 19.9487 2.13404 20.1308 2.08108C19.4691 2.20024 19.8352 2.35912 19.3967 2.40546L19.5964 2.43525C19.4085 2.50145 19.9233 2.83245 18.9719 2.83576C18.277 2.82583 18.4943 2.70005 18.4787 2.62392C17.9384 2.69674 17.5254 2.62392 17.1554 2.53786C17.1926 2.5842 17.1515 2.62723 16.9871 2.62723C16.0709 2.69012 16.4605 2.42532 16.1179 2.38891C14.8123 2.25651 16.2804 2.8159 14.824 2.80928L16.5153 2.90527C16.4448 3.01449 16.4076 3.1833 16.7737 3.18661C16.807 3.0178 17.4079 2.8821 17.9736 2.91189C18.1361 3.11048 16.4566 3.11048 17.4079 3.33556C17.0673 3.29584 16.5956 3.34549 16.1747 3.32232C16.5975 3.12041 14.8221 3.26605 15.5522 3.04097C13.7063 3.06745 13.4362 2.92182 11.7449 3.0509C11.8976 2.92513 12.9781 2.60737 13.859 2.7166L13.9314 2.83576C15.0354 2.70998 13.0721 2.69343 13.2717 2.49483C11.9093 2.79604 10.2533 2.30285 8.58553 2.39884C8.87915 2.51138 8.54834 2.56765 8.47787 2.67688C9.14732 2.65702 9.02988 2.61399 9.52316 2.75632C9.4292 2.90196 9.02988 2.84238 8.81847 2.94499C8.64229 3.10717 9.3235 2.95492 9.56035 3.04428C8.92417 3.12041 8.98485 3.14358 8.60706 3.27598C8.25471 3.14358 8.30365 3.06745 8.03156 2.92182C6.45774 2.86886 6.63391 3.16344 5.36351 3.09062C5.98207 3.12703 5.2578 2.96816 5.59645 2.97147L5.37525 2.95823C6.46753 2.73646 8.34867 2.76625 8.16075 2.37567C7.26814 2.40215 6.62021 2.61068 5.52989 2.60406L5.57687 2.53124C4.78801 2.50476 5.58862 2.62723 5.40266 2.69343C4.52179 2.8159 4.26144 2.30616 3.65267 2.57427L4.55507 2.64378C3.87778 2.79273 4.75864 2.67026 4.59617 2.92844Z" fill="#F39720"/>
</svg>
